<svg xmlns="http://www.w3.org/2000/svg" xmlns:xlink="http://www.w3.org/1999/xlink" width="944" zoomAndPan="magnify" viewBox="0 0 708 662.249984" height="883" preserveAspectRatio="xMidYMid meet" version="1.0"><defs><g/><clipPath id="ab0a0a0699"><path d="M 0.402344 19.074219 L 706.851562 19.074219 L 706.851562 661 L 0.402344 661 Z M 0.402344 19.074219 " clip-rule="nonzero"/></clipPath><clipPath id="06fc702d8e"><path d="M 38.605469 19.074219 L 668.832031 19.074219 C 678.964844 19.074219 688.683594 23.097656 695.847656 30.265625 C 703.011719 37.429688 707.039062 47.148438 707.039062 57.28125 L 707.039062 622.769531 C 707.039062 632.902344 703.011719 642.621094 695.847656 649.785156 C 688.683594 656.949219 678.964844 660.976562 668.832031 660.976562 L 38.605469 660.976562 C 28.472656 660.976562 18.753906 656.949219 11.589844 649.785156 C 4.425781 642.621094 0.402344 632.902344 0.402344 622.769531 L 0.402344 57.28125 C 0.402344 47.148438 4.425781 37.429688 11.589844 30.265625 C 18.753906 23.097656 28.472656 19.074219 38.605469 19.074219 Z M 38.605469 19.074219 " clip-rule="nonzero"/></clipPath><clipPath id="1c4479093a"><rect x="0" width="387" y="0" height="346"/></clipPath><clipPath id="fd0f5cef0b"><path d="M 469.894531 237 L 646.695312 237 L 646.695312 345.90625 L 469.894531 345.90625 Z M 469.894531 237 " clip-rule="nonzero"/></clipPath><clipPath id="f38ada9fd9"><path d="M 71 0.0898438 L 177.355469 0.0898438 L 177.355469 108.6875 L 71 108.6875 Z M 71 0.0898438 " clip-rule="nonzero"/></clipPath><clipPath id="73f8aa62af"><path d="M 0.894531 0.0898438 L 107 0.0898438 L 107 108.6875 L 0.894531 108.6875 Z M 0.894531 0.0898438 " clip-rule="nonzero"/></clipPath><clipPath id="4979d4c8a2"><rect x="0" width="178" y="0" height="109"/></clipPath><clipPath id="6eb27443b8"><path d="M 217.398438 420.941406 L 647.878906 420.941406 L 647.878906 573.574219 L 217.398438 573.574219 Z M 217.398438 420.941406 " clip-rule="nonzero"/></clipPath><clipPath id="76c4ca5b7b"><path d="M 243.621094 420.941406 L 621.460938 420.941406 C 628.414062 420.941406 635.085938 423.703125 640.003906 428.621094 C 644.917969 433.535156 647.683594 440.207031 647.683594 447.160156 L 647.683594 547.355469 C 647.683594 554.308594 644.917969 560.976562 640.003906 565.894531 C 635.085938 570.8125 628.414062 573.574219 621.460938 573.574219 L 243.621094 573.574219 C 236.664062 573.574219 229.996094 570.8125 225.078125 565.894531 C 220.160156 560.976562 217.398438 554.308594 217.398438 547.355469 L 217.398438 447.160156 C 217.398438 440.207031 220.160156 433.535156 225.078125 428.621094 C 229.996094 423.703125 236.664062 420.941406 243.621094 420.941406 Z M 243.621094 420.941406 " clip-rule="nonzero"/></clipPath><clipPath id="eb79a879df"><path d="M 0.398438 0.941406 L 430.878906 0.941406 L 430.878906 153.574219 L 0.398438 153.574219 Z M 0.398438 0.941406 " clip-rule="nonzero"/></clipPath><clipPath id="12641ad2ca"><path d="M 26.621094 0.941406 L 404.460938 0.941406 C 411.414062 0.941406 418.085938 3.703125 423.003906 8.621094 C 427.917969 13.535156 430.683594 20.207031 430.683594 27.160156 L 430.683594 127.355469 C 430.683594 134.308594 427.917969 140.976562 423.003906 145.894531 C 418.085938 150.8125 411.414062 153.574219 404.460938 153.574219 L 26.621094 153.574219 C 19.664062 153.574219 12.996094 150.8125 8.078125 145.894531 C 3.160156 140.976562 0.398438 134.308594 0.398438 127.355469 L 0.398438 27.160156 C 0.398438 20.207031 3.160156 13.535156 8.078125 8.621094 C 12.996094 3.703125 19.664062 0.941406 26.621094 0.941406 Z M 26.621094 0.941406 " clip-rule="nonzero"/></clipPath><clipPath id="72cf78cee8"><rect x="0" width="431" y="0" height="154"/></clipPath><clipPath id="75882196d2"><path d="M 217.398438 420.941406 L 647.410156 420.941406 L 647.410156 573.765625 L 217.398438 573.765625 Z M 217.398438 420.941406 " clip-rule="nonzero"/></clipPath><clipPath id="45df5d1043"><path d="M 243.628906 420.941406 L 621.453125 420.941406 C 628.40625 420.941406 635.074219 423.703125 639.992188 428.621094 C 644.910156 433.535156 647.671875 440.207031 647.671875 447.160156 L 647.671875 547.347656 C 647.671875 554.300781 644.910156 560.972656 639.992188 565.886719 C 635.074219 570.804688 628.40625 573.566406 621.453125 573.566406 L 243.628906 573.566406 C 236.675781 573.566406 230.003906 570.804688 225.089844 565.886719 C 220.171875 560.972656 217.410156 554.300781 217.410156 547.347656 L 217.410156 447.160156 C 217.410156 440.207031 220.171875 433.535156 225.089844 428.621094 C 230.003906 423.703125 236.675781 420.941406 243.628906 420.941406 Z M 243.628906 420.941406 " clip-rule="nonzero"/></clipPath><clipPath id="0547b2654d"><path d="M 201.742188 408.21875 L 632.222656 408.21875 L 632.222656 560.855469 L 201.742188 560.855469 Z M 201.742188 408.21875 " clip-rule="nonzero"/></clipPath><clipPath id="25f14bdc3e"><path d="M 227.960938 408.21875 L 605.804688 408.21875 C 612.757812 408.21875 619.429688 410.984375 624.34375 415.898438 C 629.261719 420.816406 632.023438 427.488281 632.023438 434.441406 L 632.023438 534.636719 C 632.023438 541.589844 629.261719 548.257812 624.34375 553.175781 C 619.429688 558.09375 612.757812 560.855469 605.804688 560.855469 L 227.960938 560.855469 C 221.007812 560.855469 214.339844 558.09375 209.421875 553.175781 C 204.503906 548.257812 201.742188 541.589844 201.742188 534.636719 L 201.742188 434.441406 C 201.742188 427.488281 204.503906 420.816406 209.421875 415.898438 C 214.339844 410.984375 221.007812 408.21875 227.960938 408.21875 Z M 227.960938 408.21875 " clip-rule="nonzero"/></clipPath><clipPath id="a1ed918610"><path d="M 0.742188 0.21875 L 431.085938 0.21875 L 431.085938 152.855469 L 0.742188 152.855469 Z M 0.742188 0.21875 " clip-rule="nonzero"/></clipPath><clipPath id="1e1d61e46d"><path d="M 26.960938 0.21875 L 404.804688 0.21875 C 411.757812 0.21875 418.429688 2.984375 423.34375 7.898438 C 428.261719 12.816406 431.023438 19.488281 431.023438 26.441406 L 431.023438 126.636719 C 431.023438 133.589844 428.261719 140.257812 423.34375 145.175781 C 418.429688 150.09375 411.757812 152.855469 404.804688 152.855469 L 26.960938 152.855469 C 20.007812 152.855469 13.339844 150.09375 8.421875 145.175781 C 3.503906 140.257812 0.742188 133.589844 0.742188 126.636719 L 0.742188 26.441406 C 0.742188 19.488281 3.503906 12.816406 8.421875 7.898438 C 13.339844 2.984375 20.007812 0.21875 26.960938 0.21875 Z M 26.960938 0.21875 " clip-rule="nonzero"/></clipPath><clipPath id="b96831690f"><rect x="0" width="432" y="0" height="153"/></clipPath><clipPath id="9d0525ac2c"><path d="M 201.742188 408.21875 L 631.753906 408.21875 L 631.753906 561 L 201.742188 561 Z M 201.742188 408.21875 " clip-rule="nonzero"/></clipPath><clipPath id="4c05551ca8"><path d="M 227.972656 408.21875 L 605.792969 408.21875 C 612.75 408.21875 619.417969 410.984375 624.335938 415.898438 C 629.25 420.816406 632.015625 427.484375 632.015625 434.4375 L 632.015625 534.628906 C 632.015625 541.582031 629.25 548.25 624.335938 553.167969 C 619.417969 558.085938 612.75 560.847656 605.792969 560.847656 L 227.972656 560.847656 C 221.015625 560.847656 214.347656 558.085938 209.429688 553.167969 C 204.515625 548.25 201.75 541.582031 201.75 534.628906 L 201.75 434.4375 C 201.75 427.484375 204.515625 420.816406 209.429688 415.898438 C 214.347656 410.984375 221.015625 408.21875 227.972656 408.21875 Z M 227.972656 408.21875 " clip-rule="nonzero"/></clipPath><clipPath id="71b3536f7e"><path d="M 64 375.953125 L 289.757812 375.953125 L 289.757812 602 L 64 602 Z M 64 375.953125 " clip-rule="nonzero"/></clipPath><clipPath id="8aae4657aa"><path d="M 59.765625 375.953125 L 286 375.953125 L 286 602 L 59.765625 602 Z M 59.765625 375.953125 " clip-rule="nonzero"/></clipPath><clipPath id="d7468ecb57"><path d="M 117 168 L 304 168 L 304 244 L 117 244 Z M 117 168 " clip-rule="nonzero"/></clipPath><clipPath id="fc4599dadc"><path d="M 122.65625 164.574219 L 308.035156 199.144531 L 299.039062 247.375 L 113.664062 212.800781 Z M 122.65625 164.574219 " clip-rule="nonzero"/></clipPath><clipPath id="5debc6131d"><path d="M 146.773438 169.070312 L 283.808594 194.628906 C 297.125 197.113281 305.90625 209.921875 303.421875 223.238281 C 300.941406 236.558594 288.128906 245.339844 274.8125 242.855469 L 137.777344 217.296875 C 124.460938 214.8125 115.675781 202.003906 118.160156 188.6875 C 120.644531 175.367188 133.453125 166.585938 146.773438 169.070312 Z M 146.773438 169.070312 " clip-rule="nonzero"/></clipPath><clipPath id="718a1d6cc3"><path d="M 0 0 L 187 0 L 187 76 L 0 76 Z M 0 0 " clip-rule="nonzero"/></clipPath><clipPath id="850e8310f3"><path d="M 5.65625 -3.425781 L 191.035156 31.144531 L 182.039062 79.375 L -3.335938 44.800781 Z M 5.65625 -3.425781 " clip-rule="nonzero"/></clipPath><clipPath id="414b054560"><path d="M 29.773438 1.070312 L 166.808594 26.628906 C 180.125 29.113281 188.90625 41.921875 186.421875 55.238281 C 183.941406 68.558594 171.128906 77.339844 157.8125 74.855469 L 20.777344 49.296875 C 7.460938 46.8125 -1.324219 34.003906 1.160156 20.6875 C 3.644531 7.367188 16.453125 -1.414062 29.773438 1.070312 Z M 29.773438 1.070312 " clip-rule="nonzero"/></clipPath><clipPath id="3bf641ef6f"><rect x="0" width="187" y="0" height="76"/></clipPath><clipPath id="7d13a7b75f"><path d="M 117 168 L 304 168 L 304 244 L 117 244 Z M 117 168 " clip-rule="nonzero"/></clipPath><clipPath id="ce8bd5d070"><path d="M 122.65625 164.574219 L 308.242188 199.183594 L 299.316406 247.054688 L 113.730469 212.441406 Z M 122.65625 164.574219 " clip-rule="nonzero"/></clipPath><clipPath id="11c38ca1d0"><path d="M 122.65625 164.574219 L 309.0625 199.339844 L 300.023438 247.804688 L 113.617188 213.039062 Z M 122.65625 164.574219 " clip-rule="nonzero"/></clipPath><clipPath id="6ce96529f5"><path d="M 146.769531 169.070312 L 283.796875 194.625 C 297.113281 197.109375 305.898438 209.917969 303.414062 223.234375 C 300.929688 236.554688 288.121094 245.335938 274.804688 242.851562 L 137.777344 217.296875 C 124.460938 214.8125 115.675781 202.003906 118.160156 188.6875 C 120.644531 175.367188 133.453125 166.585938 146.769531 169.070312 Z M 146.769531 169.070312 " clip-rule="nonzero"/></clipPath><clipPath id="e5a7b397ba"><rect x="0" width="117" y="0" height="70"/></clipPath><clipPath id="059fab9c8a"><rect x="0" width="251" y="0" height="83"/></clipPath><clipPath id="59810cfec1"><rect x="0" width="118" y="0" height="41"/></clipPath></defs><g clip-path="url(#ab0a0a0699)"><g clip-path="url(#06fc702d8e)"><path stroke-linecap="butt" transform="matrix(0.749152, 0, 0, 0.749152, 0.400461, 19.073938)" fill="none" stroke-linejoin="miter" d="M 50.997704 0.00037515 L 892.251486 0.00037515 C 905.777204 0.00037515 918.750214 5.371034 928.313116 14.93915 C 937.876017 24.502052 943.251891 37.475061 943.251891 51.00078 L 943.251891 805.839093 C 943.251891 819.364811 937.876017 832.337821 928.313116 841.900723 C 918.750214 851.463624 905.777204 856.839498 892.251486 856.839498 L 50.997704 856.839498 C 37.471985 856.839498 24.498976 851.463624 14.936074 841.900723 C 5.373173 832.337821 0.00251342 819.364811 0.00251342 805.839093 L 0.00251342 51.00078 C 0.00251342 37.475061 5.373173 24.502052 14.936074 14.93915 C 24.498976 5.371034 37.471985 0.00037515 50.997704 0.00037515 Z M 50.997704 0.00037515 " stroke="#b2a7fe" stroke-width="40" stroke-opacity="1" stroke-miterlimit="4"/></g></g><g transform="matrix(1, 0, 0, 1, 58, 43)"><g clip-path="url(#1c4479093a)"><g fill="#ff5757" fill-opacity="1"><g transform="translate(0.452122, 163.044663)"><g><path d="M 41.671875 -33.4375 L 41.671875 -44.296875 C 41.671875 -45.703125 41.21875 -46.914062 40.3125 -47.9375 C 39.40625 -48.957031 38.078125 -49.46875 36.328125 -49.46875 L 32.390625 -49.46875 L 32.390625 -28.359375 L 36.5 -28.359375 C 37.90625 -28.359375 39.117188 -28.851562 40.140625 -29.84375 C 41.160156 -30.84375 41.671875 -32.039062 41.671875 -33.4375 Z M 41.5 -80.109375 L 41.5 -87.015625 C 41.5 -89.117188 40.957031 -90.59375 39.875 -91.4375 C 38.800781 -92.289062 37.59375 -92.71875 36.25 -92.71875 L 32.390625 -92.71875 L 32.390625 -74.5 L 36.25 -74.5 C 37.644531 -74.5 38.867188 -74.878906 39.921875 -75.640625 C 40.972656 -76.398438 41.5 -77.890625 41.5 -80.109375 Z M 71.34375 -88.859375 L 71.34375 -81.765625 C 71.34375 -78.617188 70.6875 -75.703125 69.375 -73.015625 C 68.0625 -70.328125 66.5 -68.09375 64.6875 -66.3125 C 62.882812 -64.53125 61.222656 -63.410156 59.703125 -62.953125 C 60.753906 -62.535156 62.023438 -61.757812 63.515625 -60.625 C 65.003906 -59.488281 66.492188 -58 67.984375 -56.15625 C 69.472656 -54.320312 70.710938 -52.148438 71.703125 -49.640625 C 72.691406 -47.128906 73.1875 -44.296875 73.1875 -41.140625 L 73.1875 -29.9375 C 73.1875 -25.675781 72.253906 -21.722656 70.390625 -18.078125 C 68.523438 -14.429688 66.03125 -11.25 62.90625 -8.53125 C 59.78125 -5.820312 56.273438 -3.722656 52.390625 -2.234375 C 48.515625 -0.742188 44.5625 0 40.53125 0 L 6.65625 0 C 4.4375 0 3.328125 -1.195312 3.328125 -3.59375 L 3.328125 -117.578125 C 3.328125 -120.023438 4.4375 -121.25 6.65625 -121.25 L 37.90625 -121.25 C 42.988281 -121.25 47.570312 -120.390625 51.65625 -118.671875 C 55.738281 -116.953125 59.253906 -114.601562 62.203125 -111.625 C 65.148438 -108.644531 67.410156 -105.195312 68.984375 -101.28125 C 70.554688 -97.375 71.34375 -93.234375 71.34375 -88.859375 Z M 71.34375 -88.859375 "/></g></g></g><g fill="#ff5757" fill-opacity="1"><g transform="translate(73.72898, 163.044663)"><g><path d="M 73.71875 -90.78125 L 73.71875 -30.46875 C 73.71875 -25.15625 72.753906 -20.484375 70.828125 -16.453125 C 68.898438 -12.429688 66.257812 -9.046875 62.90625 -6.296875 C 59.550781 -3.554688 55.726562 -1.484375 51.4375 -0.078125 C 47.144531 1.316406 42.609375 2.015625 37.828125 2.015625 C 33.097656 2.015625 28.585938 1.285156 24.296875 -0.171875 C 20.003906 -1.628906 16.191406 -3.757812 12.859375 -6.5625 C 9.535156 -9.363281 6.910156 -12.765625 4.984375 -16.765625 C 3.054688 -20.765625 2.09375 -25.332031 2.09375 -30.46875 L 2.09375 -90.78125 C 2.09375 -96.039062 3.054688 -100.679688 4.984375 -104.703125 C 6.910156 -108.734375 9.519531 -112.117188 12.8125 -114.859375 C 16.113281 -117.609375 19.910156 -119.679688 24.203125 -121.078125 C 28.492188 -122.472656 33.003906 -123.171875 37.734375 -123.171875 C 42.515625 -123.171875 47.066406 -122.484375 51.390625 -121.109375 C 55.710938 -119.742188 59.550781 -117.6875 62.90625 -114.9375 C 66.257812 -112.195312 68.898438 -108.8125 70.828125 -104.78125 C 72.753906 -100.757812 73.71875 -96.09375 73.71875 -90.78125 Z M 38 -94.8125 C 36.300781 -94.8125 35.144531 -94.171875 34.53125 -92.890625 C 33.925781 -91.609375 33.625 -90.265625 33.625 -88.859375 L 33.625 -32.3125 C 33.625 -30.84375 33.882812 -29.492188 34.40625 -28.265625 C 34.925781 -27.046875 36.066406 -26.4375 37.828125 -26.4375 C 39.628906 -26.4375 40.804688 -26.929688 41.359375 -27.921875 C 41.921875 -28.921875 42.203125 -30.148438 42.203125 -31.609375 L 42.203125 -88.859375 C 42.203125 -90.265625 41.921875 -91.609375 41.359375 -92.890625 C 40.804688 -94.171875 39.6875 -94.8125 38 -94.8125 Z M 38 -94.8125 "/></g></g></g><g fill="#ff5757" fill-opacity="1"><g transform="translate(149.544695, 163.044663)"><g><path d="M 71.4375 0 L 46.046875 0 C 45.171875 0 44.441406 -0.378906 43.859375 -1.140625 C 43.273438 -1.898438 42.984375 -2.742188 42.984375 -3.671875 L 42.984375 -88.953125 C 42.984375 -90.410156 42.707031 -91.75 42.15625 -92.96875 C 41.601562 -94.195312 40.476562 -94.8125 38.78125 -94.8125 C 37.09375 -94.8125 35.957031 -94.195312 35.375 -92.96875 C 34.789062 -91.75 34.5 -90.410156 34.5 -88.953125 L 34.5 -3.671875 C 34.5 -2.679688 34.320312 -1.820312 33.96875 -1.09375 C 33.613281 -0.363281 32.851562 0 31.6875 0 L 5.34375 0 C 4.695312 0 4.140625 -0.378906 3.671875 -1.140625 C 3.210938 -1.898438 2.984375 -2.742188 2.984375 -3.671875 L 2.984375 -90.78125 C 2.984375 -95.28125 3.941406 -99.5 5.859375 -103.4375 C 7.785156 -107.375 10.410156 -110.832031 13.734375 -113.8125 C 17.066406 -116.789062 20.878906 -119.109375 25.171875 -120.765625 C 29.460938 -122.429688 33.972656 -123.265625 38.703125 -123.265625 C 43.421875 -123.265625 47.941406 -122.429688 52.265625 -120.765625 C 56.585938 -119.109375 60.410156 -116.789062 63.734375 -113.8125 C 67.054688 -110.832031 69.679688 -107.375 71.609375 -103.4375 C 73.535156 -99.5 74.5 -95.28125 74.5 -90.78125 L 74.5 -3.671875 C 74.5 -2.742188 74.234375 -1.898438 73.703125 -1.140625 C 73.179688 -0.378906 72.425781 0 71.4375 0 Z M 71.4375 0 "/></g></g></g><g fill="#ff5757" fill-opacity="1"><g transform="translate(227.023821, 163.044663)"><g><path d="M 42.984375 -32.3125 L 42.984375 -117.578125 C 42.984375 -118.566406 43.273438 -119.425781 43.859375 -120.15625 C 44.441406 -120.882812 45.171875 -121.25 46.046875 -121.25 L 71.4375 -121.25 C 72.425781 -121.25 73.179688 -120.867188 73.703125 -120.109375 C 74.234375 -119.359375 74.5 -118.515625 74.5 -117.578125 L 74.5 -30.46875 C 74.5 -25.96875 73.535156 -21.75 71.609375 -17.8125 C 69.679688 -13.875 67.054688 -10.414062 63.734375 -7.4375 C 60.410156 -4.46875 56.585938 -2.148438 52.265625 -0.484375 C 47.941406 1.179688 43.421875 2.015625 38.703125 2.015625 C 33.972656 2.015625 29.460938 1.179688 25.171875 -0.484375 C 20.878906 -2.148438 17.066406 -4.46875 13.734375 -7.4375 C 10.410156 -10.414062 7.785156 -13.875 5.859375 -17.8125 C 3.941406 -21.75 2.984375 -25.96875 2.984375 -30.46875 L 2.984375 -117.578125 C 2.984375 -118.515625 3.210938 -119.359375 3.671875 -120.109375 C 4.140625 -120.867188 4.695312 -121.25 5.34375 -121.25 L 31.6875 -121.25 C 32.851562 -121.25 33.613281 -120.882812 33.96875 -120.15625 C 34.320312 -119.425781 34.5 -118.566406 34.5 -117.578125 L 34.5 -32.3125 C 34.5 -30.84375 34.789062 -29.492188 35.375 -28.265625 C 35.957031 -27.046875 37.09375 -26.4375 38.78125 -26.4375 C 40.476562 -26.4375 41.601562 -27.046875 42.15625 -28.265625 C 42.707031 -29.492188 42.984375 -30.84375 42.984375 -32.3125 Z M 42.984375 -32.3125 "/></g></g></g><g fill="#ff5757" fill-opacity="1"><g transform="translate(304.502936, 163.044663)"><g><path d="M 40.015625 -76.25 C 43.984375 -73.394531 47.789062 -70.445312 51.4375 -67.40625 C 55.082031 -64.375 58.316406 -61.078125 61.140625 -57.515625 C 63.972656 -53.953125 66.207031 -49.953125 67.84375 -45.515625 C 69.476562 -41.085938 70.296875 -36.070312 70.296875 -30.46875 C 70.296875 -26.03125 69.476562 -21.84375 67.84375 -17.90625 C 66.207031 -13.96875 63.875 -10.507812 60.84375 -7.53125 C 57.8125 -4.550781 54.148438 -2.210938 49.859375 -0.515625 C 45.566406 1.171875 40.738281 2.015625 35.375 2.015625 C 29.0625 2.015625 23.71875 1.023438 19.34375 -0.953125 C 14.96875 -2.941406 11.4375 -5.582031 8.75 -8.875 C 6.070312 -12.175781 4.117188 -15.78125 2.890625 -19.6875 C 1.660156 -23.601562 1.046875 -27.488281 1.046875 -31.34375 L 1.046875 -36.0625 C 1.046875 -37.9375 1.25 -39.222656 1.65625 -39.921875 C 2.070312 -40.617188 2.976562 -40.96875 4.375 -40.96875 L 27.140625 -40.96875 C 28.660156 -40.96875 29.609375 -40.691406 29.984375 -40.140625 C 30.359375 -39.585938 30.546875 -38.519531 30.546875 -36.9375 L 30.546875 -33.1875 C 30.546875 -30.550781 31.039062 -28.765625 32.03125 -27.828125 C 33.03125 -26.898438 34.257812 -26.4375 35.71875 -26.4375 C 37.0625 -26.4375 38.1875 -26.898438 39.09375 -27.828125 C 40 -28.765625 40.453125 -30.226562 40.453125 -32.21875 C 40.453125 -34.78125 39.515625 -37.082031 37.640625 -39.125 C 35.773438 -41.175781 33.003906 -43.660156 29.328125 -46.578125 C 25.003906 -50.078125 21.253906 -53.15625 18.078125 -55.8125 C 14.898438 -58.46875 12.210938 -60.960938 10.015625 -63.296875 C 7.828125 -65.628906 6.078125 -68.066406 4.765625 -70.609375 C 3.453125 -73.148438 2.503906 -75.992188 1.921875 -79.140625 C 1.335938 -82.296875 1.046875 -86.0625 1.046875 -90.4375 C 1.046875 -95.800781 2.035156 -100.523438 4.015625 -104.609375 C 6.003906 -108.703125 8.632812 -112.117188 11.90625 -114.859375 C 15.175781 -117.609375 18.78125 -119.679688 22.71875 -121.078125 C 26.65625 -122.472656 30.582031 -123.171875 34.5 -123.171875 C 40.976562 -123.171875 46.769531 -121.8125 51.875 -119.09375 C 56.976562 -116.382812 61.003906 -112.445312 63.953125 -107.28125 C 66.898438 -102.125 68.375 -95.867188 68.375 -88.515625 L 68.375 -83.6875 C 68.375 -82.289062 68.140625 -81.34375 67.671875 -80.84375 C 67.203125 -80.351562 66.125 -80.109375 64.4375 -80.109375 L 42.109375 -80.109375 C 40.878906 -80.109375 40.101562 -80.351562 39.78125 -80.84375 C 39.46875 -81.34375 39.3125 -82.320312 39.3125 -83.78125 L 39.3125 -88.328125 C 39.3125 -92.648438 37.734375 -94.8125 34.578125 -94.8125 C 33.066406 -94.8125 31.941406 -94.316406 31.203125 -93.328125 C 30.472656 -92.335938 30.109375 -91.082031 30.109375 -89.5625 C 30.109375 -87.8125 30.359375 -86.304688 30.859375 -85.046875 C 31.359375 -83.796875 32.320312 -82.515625 33.75 -81.203125 C 35.175781 -79.890625 37.265625 -78.238281 40.015625 -76.25 Z M 40.015625 -76.25 "/></g></g></g><g fill="#ff5757" fill-opacity="1"><g transform="translate(0.452122, 300.980674)"><g><path d="M 38.265625 -92.71875 L 34.84375 -92.71875 L 34.84375 -67.0625 L 38.34375 -67.0625 C 39.863281 -67.0625 41.117188 -67.515625 42.109375 -68.421875 C 43.097656 -69.328125 43.59375 -70.476562 43.59375 -71.875 L 43.59375 -87.8125 C 43.59375 -89.445312 43.066406 -90.671875 42.015625 -91.484375 C 40.972656 -92.304688 39.722656 -92.71875 38.265625 -92.71875 Z M 71.53125 -0.09375 L 48.59375 -0.09375 C 47.300781 -0.09375 46.160156 -0.484375 45.171875 -1.265625 C 44.179688 -2.054688 43.6875 -3.179688 43.6875 -4.640625 L 43.6875 -23.28125 C 43.6875 -28.476562 42.984375 -32.609375 41.578125 -35.671875 C 40.179688 -38.734375 37.9375 -40.847656 34.84375 -42.015625 L 34.84375 -3.59375 C 34.84375 -1.195312 33.765625 0 31.609375 0 L 6.65625 0 C 4.4375 0 3.328125 -1.195312 3.328125 -3.59375 L 3.328125 -117.578125 C 3.328125 -120.023438 4.4375 -121.25 6.65625 -121.25 L 40.890625 -121.25 C 45.671875 -121.25 50.132812 -120.375 54.28125 -118.625 C 58.425781 -116.875 62.054688 -114.453125 65.171875 -111.359375 C 68.296875 -108.265625 70.734375 -104.703125 72.484375 -100.671875 C 74.234375 -96.648438 75.109375 -92.363281 75.109375 -87.8125 L 75.109375 -74.59375 C 75.109375 -69.976562 74.144531 -65.960938 72.21875 -62.546875 C 70.300781 -59.140625 67.851562 -56.238281 64.875 -53.84375 C 68.3125 -50.394531 70.875 -45.910156 72.5625 -40.390625 C 74.257812 -34.878906 75.109375 -28.039062 75.109375 -19.875 L 75.109375 -4.296875 C 75.109375 -3.421875 74.847656 -2.5 74.328125 -1.53125 C 73.804688 -0.570312 72.875 -0.09375 71.53125 -0.09375 Z M 71.53125 -0.09375 "/></g></g></g><g fill="#ff5757" fill-opacity="1"><g transform="translate(78.10633, 300.980674)"><g><path d="M 73.71875 -90.78125 L 73.71875 -30.46875 C 73.71875 -25.15625 72.753906 -20.484375 70.828125 -16.453125 C 68.898438 -12.429688 66.257812 -9.046875 62.90625 -6.296875 C 59.550781 -3.554688 55.726562 -1.484375 51.4375 -0.078125 C 47.144531 1.316406 42.609375 2.015625 37.828125 2.015625 C 33.097656 2.015625 28.585938 1.285156 24.296875 -0.171875 C 20.003906 -1.628906 16.191406 -3.757812 12.859375 -6.5625 C 9.535156 -9.363281 6.910156 -12.765625 4.984375 -16.765625 C 3.054688 -20.765625 2.09375 -25.332031 2.09375 -30.46875 L 2.09375 -90.78125 C 2.09375 -96.039062 3.054688 -100.679688 4.984375 -104.703125 C 6.910156 -108.734375 9.519531 -112.117188 12.8125 -114.859375 C 16.113281 -117.609375 19.910156 -119.679688 24.203125 -121.078125 C 28.492188 -122.472656 33.003906 -123.171875 37.734375 -123.171875 C 42.515625 -123.171875 47.066406 -122.484375 51.390625 -121.109375 C 55.710938 -119.742188 59.550781 -117.6875 62.90625 -114.9375 C 66.257812 -112.195312 68.898438 -108.8125 70.828125 -104.78125 C 72.753906 -100.757812 73.71875 -96.09375 73.71875 -90.78125 Z M 38 -94.8125 C 36.300781 -94.8125 35.144531 -94.171875 34.53125 -92.890625 C 33.925781 -91.609375 33.625 -90.265625 33.625 -88.859375 L 33.625 -32.3125 C 33.625 -30.84375 33.882812 -29.492188 34.40625 -28.265625 C 34.925781 -27.046875 36.066406 -26.4375 37.828125 -26.4375 C 39.628906 -26.4375 40.804688 -26.929688 41.359375 -27.921875 C 41.921875 -28.921875 42.203125 -30.148438 42.203125 -31.609375 L 42.203125 -88.859375 C 42.203125 -90.265625 41.921875 -91.609375 41.359375 -92.890625 C 40.804688 -94.171875 39.6875 -94.8125 38 -94.8125 Z M 38 -94.8125 "/></g></g></g><g fill="#ff5757" fill-opacity="1"><g transform="translate(153.922046, 300.980674)"><g><path d="M 42.984375 -32.3125 L 42.984375 -117.578125 C 42.984375 -118.566406 43.273438 -119.425781 43.859375 -120.15625 C 44.441406 -120.882812 45.171875 -121.25 46.046875 -121.25 L 71.4375 -121.25 C 72.425781 -121.25 73.179688 -120.867188 73.703125 -120.109375 C 74.234375 -119.359375 74.5 -118.515625 74.5 -117.578125 L 74.5 -30.46875 C 74.5 -25.96875 73.535156 -21.75 71.609375 -17.8125 C 69.679688 -13.875 67.054688 -10.414062 63.734375 -7.4375 C 60.410156 -4.46875 56.585938 -2.148438 52.265625 -0.484375 C 47.941406 1.179688 43.421875 2.015625 38.703125 2.015625 C 33.972656 2.015625 29.460938 1.179688 25.171875 -0.484375 C 20.878906 -2.148438 17.066406 -4.46875 13.734375 -7.4375 C 10.410156 -10.414062 7.785156 -13.875 5.859375 -17.8125 C 3.941406 -21.75 2.984375 -25.96875 2.984375 -30.46875 L 2.984375 -117.578125 C 2.984375 -118.515625 3.210938 -119.359375 3.671875 -120.109375 C 4.140625 -120.867188 4.695312 -121.25 5.34375 -121.25 L 31.6875 -121.25 C 32.851562 -121.25 33.613281 -120.882812 33.96875 -120.15625 C 34.320312 -119.425781 34.5 -118.566406 34.5 -117.578125 L 34.5 -32.3125 C 34.5 -30.84375 34.789062 -29.492188 35.375 -28.265625 C 35.957031 -27.046875 37.09375 -26.4375 38.78125 -26.4375 C 40.476562 -26.4375 41.601562 -27.046875 42.15625 -28.265625 C 42.707031 -29.492188 42.984375 -30.84375 42.984375 -32.3125 Z M 42.984375 -32.3125 "/></g></g></g><g fill="#ff5757" fill-opacity="1"><g transform="translate(231.40116, 300.980674)"><g><path d="M 71.4375 0 L 46.046875 0 C 45.171875 0 44.441406 -0.378906 43.859375 -1.140625 C 43.273438 -1.898438 42.984375 -2.742188 42.984375 -3.671875 L 42.984375 -88.953125 C 42.984375 -90.410156 42.707031 -91.75 42.15625 -92.96875 C 41.601562 -94.195312 40.476562 -94.8125 38.78125 -94.8125 C 37.09375 -94.8125 35.957031 -94.195312 35.375 -92.96875 C 34.789062 -91.75 34.5 -90.410156 34.5 -88.953125 L 34.5 -3.671875 C 34.5 -2.679688 34.320312 -1.820312 33.96875 -1.09375 C 33.613281 -0.363281 32.851562 0 31.6875 0 L 5.34375 0 C 4.695312 0 4.140625 -0.378906 3.671875 -1.140625 C 3.210938 -1.898438 2.984375 -2.742188 2.984375 -3.671875 L 2.984375 -90.78125 C 2.984375 -95.28125 3.941406 -99.5 5.859375 -103.4375 C 7.785156 -107.375 10.410156 -110.832031 13.734375 -113.8125 C 17.066406 -116.789062 20.878906 -119.109375 25.171875 -120.765625 C 29.460938 -122.429688 33.972656 -123.265625 38.703125 -123.265625 C 43.421875 -123.265625 47.941406 -122.429688 52.265625 -120.765625 C 56.585938 -119.109375 60.410156 -116.789062 63.734375 -113.8125 C 67.054688 -110.832031 69.679688 -107.375 71.609375 -103.4375 C 73.535156 -99.5 74.5 -95.28125 74.5 -90.78125 L 74.5 -3.671875 C 74.5 -2.742188 74.234375 -1.898438 73.703125 -1.140625 C 73.179688 -0.378906 72.425781 0 71.4375 0 Z M 71.4375 0 "/></g></g></g><g fill="#ff5757" fill-opacity="1"><g transform="translate(308.880274, 300.980674)"><g><path d="M 34.84375 -92.71875 L 34.84375 -28.359375 L 38.609375 -28.359375 C 40.003906 -28.484375 41.15625 -29.039062 42.0625 -30.03125 C 42.96875 -31.019531 43.421875 -32.21875 43.421875 -33.625 L 43.421875 -87.203125 C 43.421875 -89.585938 42.894531 -91.101562 41.84375 -91.75 C 40.789062 -92.394531 39.566406 -92.71875 38.171875 -92.71875 Z M 3.328125 -3.59375 L 3.328125 -117.578125 C 3.328125 -120.023438 4.4375 -121.25 6.65625 -121.25 L 40.015625 -121.25 C 44.796875 -121.25 49.285156 -120.578125 53.484375 -119.234375 C 57.691406 -117.890625 61.398438 -115.859375 64.609375 -113.140625 C 67.816406 -110.429688 70.335938 -107.050781 72.171875 -103 C 74.015625 -98.945312 74.9375 -94.144531 74.9375 -88.59375 L 74.9375 -32.5625 C 74.9375 -27.019531 74.015625 -22.207031 72.171875 -18.125 C 70.335938 -14.039062 67.816406 -10.65625 64.609375 -7.96875 C 61.398438 -5.28125 57.675781 -3.28125 53.4375 -1.96875 C 49.207031 -0.65625 44.734375 0 40.015625 0 L 6.65625 0 C 4.4375 0 3.328125 -1.195312 3.328125 -3.59375 Z M 3.328125 -3.59375 "/></g></g></g></g></g><g clip-path="url(#fd0f5cef0b)"><g transform="matrix(1, 0, 0, 1, 469, 237)"><g clip-path="url(#4979d4c8a2)"><g clip-path="url(#f38ada9fd9)"><path fill="#ff5757" d="M 124.488281 108.613281 C 131.679688 108.625 138.566406 107.191406 145.15625 104.3125 C 151.457031 101.566406 157.105469 97.640625 161.957031 92.644531 C 171.882812 82.417969 177.347656 68.839844 177.347656 54.410156 C 177.347656 39.984375 171.882812 26.40625 161.957031 16.179688 C 157.113281 11.183594 151.457031 7.257812 145.15625 4.511719 C 141.894531 3.09375 138.523438 2.023438 135.042969 1.296875 C 131.5625 0.574219 128.042969 0.210938 124.488281 0.210938 C 120.933594 0.210938 117.414062 0.574219 113.933594 1.296875 C 110.453125 2.023438 107.082031 3.09375 103.824219 4.511719 C 97.519531 7.257812 91.871094 11.183594 87.019531 16.179688 C 77.09375 26.40625 71.628906 39.984375 71.628906 54.410156 C 71.628906 68.839844 77.09375 82.417969 87.019531 92.644531 C 91.867188 97.640625 97.519531 101.566406 103.824219 104.3125 C 110.410156 107.191406 117.300781 108.625 124.488281 108.613281 Z M 124.488281 108.613281 " fill-opacity="1" fill-rule="nonzero"/></g><g clip-path="url(#73f8aa62af)"><path fill="#ff5757" d="M 53.769531 108.613281 C 60.957031 108.625 67.847656 107.191406 74.433594 104.3125 C 80.738281 101.566406 86.386719 97.640625 91.238281 92.644531 C 101.164062 82.417969 106.628906 68.839844 106.628906 54.410156 C 106.628906 39.984375 101.164062 26.40625 91.238281 16.179688 C 86.390625 11.183594 80.738281 7.257812 74.433594 4.511719 C 71.175781 3.09375 67.804688 2.023438 64.324219 1.296875 C 60.84375 0.574219 57.324219 0.210938 53.769531 0.210938 C 50.214844 0.210938 46.695312 0.574219 43.214844 1.296875 C 39.734375 2.023438 36.363281 3.09375 33.101562 4.511719 C 26.800781 7.257812 21.148438 11.183594 16.300781 16.179688 C 6.375 26.40625 0.910156 39.984375 0.910156 54.410156 C 0.910156 68.839844 6.375 82.417969 16.300781 92.644531 C 21.148438 97.640625 26.800781 101.566406 33.101562 104.3125 C 39.691406 107.191406 46.578125 108.625 53.769531 108.613281 Z M 53.769531 108.613281 " fill-opacity="1" fill-rule="nonzero"/></g><path fill="#f2f1f4" d="M 12.234375 54.410156 C 12.230469 58.023438 12.664062 61.582031 13.535156 65.089844 C 17.628906 81.496094 30.917969 94.101562 47.40625 96.714844 C 49.515625 97.046875 51.636719 97.214844 53.769531 97.214844 C 76.710938 97.214844 95.304688 78.050781 95.304688 54.410156 C 95.304688 30.773438 76.710938 11.609375 53.765625 11.609375 C 30.820312 11.609375 12.234375 30.773438 12.234375 54.410156 Z M 12.234375 54.410156 " fill-opacity="1" fill-rule="nonzero"/><path fill="#343434" d="M 53.769531 98.867188 C 65.316406 98.867188 76.167969 94.234375 84.328125 85.828125 C 92.472656 77.433594 96.960938 66.277344 96.960938 54.410156 C 96.960938 42.546875 92.472656 31.390625 84.328125 22.996094 C 76.167969 14.585938 65.316406 9.957031 53.769531 9.957031 C 42.222656 9.957031 31.371094 14.585938 23.210938 22.996094 C 15.066406 31.390625 10.578125 42.546875 10.578125 54.410156 C 10.578125 58.160156 11.027344 61.851562 11.929688 65.488281 C 14.023438 73.878906 18.433594 81.414062 24.6875 87.28125 C 30.992188 93.191406 38.757812 97.015625 47.144531 98.347656 C 49.339844 98.695312 51.546875 98.867188 53.769531 98.867188 Z M 53.769531 13.265625 C 75.761719 13.265625 93.652344 31.722656 93.652344 54.410156 C 93.652344 77.101562 75.761719 95.558594 53.769531 95.558594 C 51.722656 95.558594 49.6875 95.402344 47.664062 95.082031 C 31.882812 92.582031 19.117188 80.652344 15.140625 64.6875 C 14.300781 61.316406 13.882812 57.890625 13.882812 54.410156 C 13.882812 31.722656 31.777344 13.265625 53.769531 13.265625 Z M 53.769531 13.265625 " fill-opacity="1" fill-rule="nonzero"/><path fill="#343434" d="M 13.535156 65.089844 C 17.625 81.496094 30.914062 94.101562 47.40625 96.714844 C 56.050781 92.6875 62.066406 83.71875 62.066406 73.304688 C 62.066406 59.125 50.914062 47.628906 37.148438 47.628906 C 26.179688 47.628906 16.859375 54.9375 13.535156 65.089844 Z M 13.535156 65.089844 " fill-opacity="1" fill-rule="nonzero"/><path fill="#f2f1f4" d="M 37.148438 61.660156 C 37.148438 62.136719 37.195312 62.609375 37.285156 63.074219 C 37.375 63.542969 37.507812 63.996094 37.683594 64.433594 C 37.863281 64.875 38.078125 65.292969 38.335938 65.6875 C 38.589844 66.085938 38.882812 66.449219 39.210938 66.785156 C 39.535156 67.125 39.890625 67.425781 40.277344 67.6875 C 40.660156 67.953125 41.066406 68.175781 41.492188 68.359375 C 41.917969 68.539062 42.359375 68.679688 42.8125 68.769531 C 43.265625 68.863281 43.722656 68.910156 44.183594 68.910156 C 44.648438 68.910156 45.105469 68.863281 45.558594 68.769531 C 46.011719 68.679688 46.449219 68.539062 46.875 68.359375 C 47.304688 68.175781 47.710938 67.953125 48.09375 67.6875 C 48.476562 67.425781 48.832031 67.125 49.160156 66.785156 C 49.484375 66.449219 49.777344 66.085938 50.035156 65.6875 C 50.289062 65.292969 50.507812 64.875 50.683594 64.433594 C 50.859375 63.996094 50.996094 63.542969 51.085938 63.074219 C 51.175781 62.609375 51.21875 62.136719 51.21875 61.660156 C 51.21875 61.183594 51.175781 60.714844 51.085938 60.246094 C 50.996094 59.78125 50.859375 59.328125 50.683594 58.886719 C 50.507812 58.445312 50.289062 58.03125 50.035156 57.632812 C 49.777344 57.238281 49.484375 56.871094 49.160156 56.535156 C 48.832031 56.199219 48.476562 55.898438 48.09375 55.632812 C 47.710938 55.367188 47.304688 55.144531 46.875 54.964844 C 46.449219 54.78125 46.011719 54.644531 45.558594 54.550781 C 45.105469 54.457031 44.648438 54.410156 44.183594 54.410156 C 43.722656 54.410156 43.265625 54.457031 42.8125 54.550781 C 42.359375 54.644531 41.917969 54.78125 41.492188 54.964844 C 41.066406 55.144531 40.660156 55.367188 40.277344 55.632812 C 39.890625 55.898438 39.535156 56.199219 39.210938 56.535156 C 38.882812 56.871094 38.589844 57.238281 38.335938 57.632812 C 38.078125 58.03125 37.863281 58.445312 37.683594 58.886719 C 37.507812 59.328125 37.375 59.78125 37.285156 60.246094 C 37.195312 60.714844 37.148438 61.183594 37.148438 61.660156 Z M 37.148438 61.660156 " fill-opacity="1" fill-rule="nonzero"/><path fill="#f2f1f4" d="M 82.953125 54.410156 C 82.949219 58.023438 83.386719 61.582031 84.257812 65.089844 C 88.347656 81.496094 101.636719 94.101562 118.125 96.714844 C 120.234375 97.046875 122.355469 97.214844 124.492188 97.214844 C 147.429688 97.214844 166.023438 78.050781 166.023438 54.410156 C 166.023438 30.773438 147.429688 11.609375 124.488281 11.609375 C 101.546875 11.609375 82.953125 30.773438 82.953125 54.410156 Z M 82.953125 54.410156 " fill-opacity="1" fill-rule="nonzero"/><path fill="#343434" d="M 124.488281 98.867188 C 136.035156 98.867188 146.886719 94.234375 155.046875 85.828125 C 163.191406 77.433594 167.679688 66.277344 167.679688 54.410156 C 167.679688 42.546875 163.191406 31.390625 155.046875 22.996094 C 146.886719 14.585938 136.035156 9.957031 124.488281 9.957031 C 112.941406 9.957031 102.089844 14.585938 93.929688 22.996094 C 85.785156 31.390625 81.296875 42.546875 81.296875 54.410156 C 81.296875 58.160156 81.746094 61.851562 82.648438 65.488281 C 84.742188 73.878906 89.15625 81.414062 95.410156 87.28125 C 101.710938 93.191406 109.476562 97.015625 117.867188 98.347656 C 120.058594 98.695312 122.269531 98.867188 124.488281 98.867188 Z M 124.488281 13.265625 C 146.480469 13.265625 164.375 31.722656 164.375 54.410156 C 164.375 77.101562 146.480469 95.558594 124.488281 95.558594 C 122.441406 95.558594 120.40625 95.402344 118.382812 95.082031 C 102.605469 92.582031 89.839844 80.652344 85.859375 64.6875 C 85.019531 61.316406 84.601562 57.890625 84.605469 54.410156 C 84.605469 31.722656 102.496094 13.265625 124.488281 13.265625 Z M 124.488281 13.265625 " fill-opacity="1" fill-rule="nonzero"/><path fill="#343434" d="M 84.253906 65.089844 C 88.34375 81.496094 101.636719 94.101562 118.125 96.714844 C 126.773438 92.6875 132.789062 83.71875 132.789062 73.304688 C 132.789062 59.125 121.632812 47.628906 107.871094 47.628906 C 96.898438 47.628906 87.582031 54.9375 84.253906 65.089844 Z M 84.253906 65.089844 " fill-opacity="1" fill-rule="nonzero"/><path fill="#f2f1f4" d="M 107.871094 61.660156 C 107.871094 62.136719 107.914062 62.609375 108.003906 63.074219 C 108.09375 63.542969 108.226562 63.996094 108.40625 64.433594 C 108.582031 64.875 108.796875 65.292969 109.054688 65.6875 C 109.3125 66.085938 109.601562 66.449219 109.929688 66.785156 C 110.257812 67.125 110.613281 67.425781 110.996094 67.6875 C 111.378906 67.953125 111.785156 68.175781 112.210938 68.359375 C 112.640625 68.539062 113.078125 68.679688 113.53125 68.769531 C 113.984375 68.863281 114.441406 68.910156 114.90625 68.910156 C 115.367188 68.910156 115.824219 68.863281 116.277344 68.769531 C 116.730469 68.679688 117.171875 68.539062 117.597656 68.359375 C 118.023438 68.175781 118.429688 67.953125 118.8125 67.6875 C 119.199219 67.425781 119.554688 67.125 119.878906 66.785156 C 120.207031 66.449219 120.496094 66.085938 120.753906 65.6875 C 121.011719 65.292969 121.226562 64.875 121.40625 64.433594 C 121.582031 63.996094 121.714844 63.542969 121.804688 63.074219 C 121.894531 62.609375 121.941406 62.136719 121.941406 61.660156 C 121.941406 61.183594 121.894531 60.714844 121.804688 60.246094 C 121.714844 59.78125 121.582031 59.328125 121.40625 58.886719 C 121.226562 58.445312 121.011719 58.03125 120.753906 57.632812 C 120.496094 57.238281 120.207031 56.871094 119.878906 56.535156 C 119.554688 56.199219 119.199219 55.898438 118.8125 55.632812 C 118.429688 55.367188 118.023438 55.144531 117.597656 54.964844 C 117.171875 54.78125 116.730469 54.644531 116.277344 54.550781 C 115.824219 54.457031 115.367188 54.410156 114.90625 54.410156 C 114.441406 54.410156 113.984375 54.457031 113.53125 54.550781 C 113.078125 54.644531 112.640625 54.78125 112.210938 54.964844 C 111.785156 55.144531 111.378906 55.367188 110.996094 55.632812 C 110.613281 55.898438 110.257812 56.199219 109.929688 56.535156 C 109.601562 56.871094 109.3125 57.238281 109.054688 57.632812 C 108.796875 58.03125 108.582031 58.445312 108.40625 58.886719 C 108.226562 59.328125 108.09375 59.78125 108.003906 60.246094 C 107.914062 60.714844 107.871094 61.183594 107.871094 61.660156 Z M 107.871094 61.660156 " fill-opacity="1" fill-rule="nonzero"/></g></g></g><g clip-path="url(#6eb27443b8)"><g clip-path="url(#76c4ca5b7b)"><g transform="matrix(1, 0, 0, 1, 217, 420)"><g clip-path="url(#72cf78cee8)"><g clip-path="url(#eb79a879df)"><g clip-path="url(#12641ad2ca)"><path fill="#b2a7fe" d="M 0.398438 0.941406 L 430.878906 0.941406 L 430.878906 153.574219 L 0.398438 153.574219 Z M 0.398438 0.941406 " fill-opacity="1" fill-rule="nonzero"/></g></g></g></g></g></g><g clip-path="url(#75882196d2)"><g clip-path="url(#45df5d1043)"><path stroke-linecap="butt" transform="matrix(0.749152, 0, 0, 0.749152, 217.409133, 420.939929)" fill="none" stroke-linejoin="miter" d="M 34.999293 0.00197209 L 539.335466 0.00197209 C 548.6168 0.00197209 557.517494 3.688434 564.082212 10.253152 C 570.64693 16.812656 574.333392 25.718565 574.333392 34.999898 L 574.333392 168.734524 C 574.333392 178.015857 570.64693 186.921765 564.082212 193.481269 C 557.517494 200.045988 548.6168 203.73245 539.335466 203.73245 L 34.999293 203.73245 C 25.717959 203.73245 16.812051 200.045988 10.252547 193.481269 C 3.687829 186.921765 0.00136653 178.015857 0.00136653 168.734524 L 0.00136653 34.999898 C 0.00136653 25.718565 3.687829 16.812656 10.252547 10.253152 C 16.812051 3.688434 25.717959 0.00197209 34.999293 0.00197209 Z M 34.999293 0.00197209 " stroke="#000000" stroke-width="8" stroke-opacity="1" stroke-miterlimit="4"/></g></g><g clip-path="url(#0547b2654d)"><g clip-path="url(#25f14bdc3e)"><g transform="matrix(1, 0, 0, 1, 201, 408)"><g clip-path="url(#b96831690f)"><g clip-path="url(#a1ed918610)"><g clip-path="url(#1e1d61e46d)"><path fill="#f2f1f4" d="M 0.742188 0.21875 L 431.222656 0.21875 L 431.222656 152.855469 L 0.742188 152.855469 Z M 0.742188 0.21875 " fill-opacity="1" fill-rule="nonzero"/></g></g></g></g></g></g><g clip-path="url(#9d0525ac2c)"><g clip-path="url(#4c05551ca8)"><path stroke-linecap="butt" transform="matrix(0.749152, 0, 0, 0.749152, 201.751734, 408.220199)" fill="none" stroke-linejoin="miter" d="M 35.000826 -0.00193394 L 539.331786 -0.00193394 C 548.618333 -0.00193394 557.519028 3.689742 564.083746 10.249246 C 570.64325 16.813965 574.334926 25.714659 574.334926 34.995992 L 574.334926 168.735832 C 574.334926 178.017165 570.64325 186.917859 564.083746 193.482578 C 557.519028 200.047296 548.618333 203.733758 539.331786 203.733758 L 35.000826 203.733758 C 25.714279 203.733758 16.813585 200.047296 10.248866 193.482578 C 3.689362 186.917859 -0.00231406 178.017165 -0.00231406 168.735832 L -0.00231406 34.995992 C -0.00231406 25.714659 3.689362 16.813965 10.248866 10.249246 C 16.813585 3.689742 25.714279 -0.00193394 35.000826 -0.00193394 Z M 35.000826 -0.00193394 " stroke="#000000" stroke-width="8" stroke-opacity="1" stroke-miterlimit="4"/></g></g><path fill="#404040" d="M 288.394531 488.894531 C 288.394531 481.019531 273.867188 473.957031 250.839844 469.121094 C 268.371094 453.414062 277.414062 440.027344 273.476562 433.214844 C 269.539062 426.402344 253.433594 427.542969 231.066406 434.863281 C 238.386719 412.496094 239.539062 396.390625 232.714844 392.453125 C 225.890625 388.515625 212.515625 397.5625 196.808594 415.089844 C 191.960938 392.050781 184.898438 377.539062 177.023438 377.539062 C 169.148438 377.539062 162.089844 392.050781 157.25 415.089844 C 141.542969 397.5625 128.160156 388.515625 121.347656 392.453125 C 114.535156 396.390625 115.671875 412.496094 122.996094 434.863281 C 100.628906 427.542969 84.519531 426.394531 80.582031 433.214844 C 76.644531 440.027344 85.691406 453.414062 103.222656 469.121094 C 80.179688 473.957031 65.667969 481.019531 65.667969 488.894531 C 65.667969 496.769531 80.191406 503.832031 103.222656 508.667969 C 85.691406 524.375 76.644531 537.761719 80.582031 544.574219 C 84.519531 551.386719 100.628906 550.246094 122.996094 542.925781 C 115.671875 565.292969 114.523438 581.398438 121.347656 585.335938 C 128.160156 589.273438 141.542969 580.226562 157.25 562.699219 C 162.089844 585.738281 169.160156 600.253906 177.023438 600.253906 C 184.890625 600.253906 191.960938 585.726562 196.800781 562.699219 C 212.507812 580.226562 225.890625 589.273438 232.703125 585.335938 C 239.515625 581.398438 238.375 565.292969 231.054688 542.925781 C 253.421875 550.246094 269.53125 551.394531 273.46875 544.574219 C 277.40625 537.761719 268.359375 524.375 250.828125 508.667969 C 273.867188 503.832031 288.394531 496.769531 288.394531 488.894531 Z M 288.394531 488.894531 " fill-opacity="1" fill-rule="nonzero"/><g clip-path="url(#71b3536f7e)"><path fill="#404040" d="M 177.023438 601.8125 C 172.546875 601.8125 168.367188 598.113281 164.617188 590.824219 C 161.492188 584.761719 158.726562 576.421875 156.371094 565.976562 C 149.117188 573.839844 142.542969 579.6875 136.804688 583.375 C 129.90625 587.808594 124.4375 588.917969 120.566406 586.683594 C 116.683594 584.449219 114.914062 579.152344 115.304688 570.964844 C 115.628906 564.152344 117.410156 555.539062 120.585938 545.320312 C 110.367188 548.5 101.757812 550.277344 94.945312 550.605469 C 86.753906 550.996094 81.460938 549.226562 79.226562 545.34375 C 76.992188 541.460938 78.097656 536.003906 82.535156 529.105469 C 86.222656 523.367188 92.070312 516.792969 99.933594 509.535156 C 89.5 507.183594 81.148438 504.417969 75.082031 501.292969 C 67.804688 497.550781 64.105469 493.375 64.105469 488.894531 C 64.105469 484.414062 67.804688 480.238281 75.09375 476.484375 C 81.15625 473.363281 89.5 470.59375 99.945312 468.242188 C 92.070312 460.984375 86.234375 454.410156 82.546875 448.671875 C 78.109375 441.773438 77.003906 436.308594 79.238281 432.433594 C 81.472656 428.550781 86.765625 426.785156 94.957031 427.175781 C 101.765625 427.5 110.378906 429.277344 120.597656 432.457031 C 117.417969 422.238281 115.640625 413.625 115.316406 406.8125 C 114.925781 398.625 116.691406 393.332031 120.578125 391.097656 C 124.460938 388.863281 129.914062 389.96875 136.816406 394.40625 C 142.550781 398.09375 149.125 403.9375 156.382812 411.804688 C 158.738281 401.367188 161.503906 393.015625 164.625 386.953125 C 168.367188 379.675781 172.546875 375.976562 177.023438 375.976562 C 181.503906 375.976562 185.679688 379.675781 189.433594 386.964844 C 192.558594 393.027344 195.324219 401.367188 197.679688 411.8125 C 204.933594 403.949219 211.507812 398.105469 217.246094 394.414062 C 224.144531 389.980469 229.613281 388.871094 233.484375 391.105469 C 237.367188 393.339844 239.136719 398.636719 238.746094 406.824219 C 238.421875 413.636719 236.640625 422.25 233.464844 432.46875 C 243.679688 429.289062 252.292969 427.511719 259.105469 427.183594 C 267.296875 426.792969 272.589844 428.5625 274.824219 432.445312 C 277.058594 436.328125 275.953125 441.785156 271.515625 448.683594 C 267.828125 454.421875 261.980469 460.996094 254.117188 468.253906 C 264.550781 470.605469 272.902344 473.371094 278.96875 476.496094 C 286.257812 480.25 289.957031 484.425781 289.957031 488.90625 C 289.957031 493.386719 286.257812 497.5625 278.96875 501.316406 C 272.902344 504.4375 264.5625 507.203125 254.117188 509.558594 C 261.980469 516.816406 267.828125 523.390625 271.515625 529.125 C 275.953125 536.027344 277.058594 541.492188 274.824219 545.363281 C 272.589844 549.25 267.296875 551.015625 259.105469 550.625 C 252.292969 550.300781 243.679688 548.523438 233.464844 545.34375 C 236.640625 555.5625 238.421875 564.175781 238.746094 570.984375 C 239.136719 579.175781 237.367188 584.46875 233.484375 586.703125 C 232.183594 587.453125 230.707031 587.832031 229.070312 587.832031 C 225.792969 587.832031 221.835938 586.355469 217.246094 583.40625 C 211.507812 579.71875 204.933594 573.871094 197.679688 566.007812 C 195.324219 576.441406 192.558594 584.792969 189.433594 590.859375 C 185.679688 598.113281 181.503906 601.8125 177.023438 601.8125 Z M 158.140625 559.367188 L 158.769531 562.375 C 161.167969 573.761719 164.136719 583.113281 167.382812 589.394531 C 170.515625 595.480469 173.847656 598.691406 177.023438 598.691406 C 180.191406 598.691406 183.535156 595.480469 186.667969 589.394531 C 189.910156 583.101562 192.882812 573.761719 195.28125 562.375 L 195.910156 559.367188 L 197.960938 561.65625 C 205.726562 570.324219 212.984375 576.929688 218.929688 580.75 C 224.6875 584.449219 229.179688 585.566406 231.921875 583.980469 C 234.667969 582.398438 235.945312 577.9375 235.621094 571.105469 C 235.285156 564.042969 233.191406 554.457031 229.570312 543.402344 L 228.613281 540.484375 L 231.53125 541.4375 C 242.597656 545.0625 252.175781 547.15625 259.234375 547.492188 C 266.070312 547.816406 270.515625 546.535156 272.113281 543.792969 C 273.695312 541.046875 272.578125 536.546875 268.878906 530.796875 C 265.050781 524.84375 258.457031 517.597656 249.789062 509.828125 L 247.5 507.78125 L 250.503906 507.152344 C 261.894531 504.753906 271.242188 501.78125 277.523438 498.539062 C 283.609375 495.402344 286.820312 492.074219 286.820312 488.894531 C 286.820312 485.726562 283.609375 482.386719 277.523438 479.25 C 271.234375 476.007812 261.894531 473.035156 250.503906 470.640625 L 247.5 470.007812 L 249.789062 467.960938 C 258.457031 460.191406 265.0625 452.9375 268.878906 446.992188 C 272.578125 441.230469 273.695312 436.742188 272.113281 433.996094 C 270.527344 431.253906 266.070312 429.972656 259.234375 430.296875 C 252.175781 430.632812 242.585938 432.726562 231.53125 436.351562 L 228.613281 437.304688 L 229.570312 434.386719 C 233.191406 423.324219 235.285156 413.746094 235.621094 406.683594 C 235.945312 399.851562 234.667969 395.402344 231.921875 393.808594 C 229.179688 392.222656 224.675781 393.339844 218.929688 397.039062 C 212.972656 400.871094 205.726562 407.464844 197.960938 416.132812 L 195.910156 418.421875 L 195.28125 415.414062 C 192.882812 404.027344 189.910156 394.675781 186.667969 388.394531 C 183.535156 382.308594 180.203125 379.097656 177.023438 379.097656 C 173.859375 379.097656 170.515625 382.308594 167.382812 388.394531 C 164.136719 394.6875 161.167969 404.027344 158.769531 415.414062 L 158.140625 418.421875 L 156.089844 416.132812 C 148.324219 407.464844 141.066406 400.859375 135.121094 397.039062 C 129.363281 393.339844 124.871094 392.222656 122.128906 393.808594 C 119.371094 395.390625 118.09375 399.839844 118.417969 406.671875 C 118.753906 413.734375 120.847656 423.324219 124.46875 434.375 L 125.425781 437.292969 L 122.507812 436.339844 C 111.441406 432.71875 101.863281 430.625 94.804688 430.289062 C 87.96875 429.960938 83.523438 431.242188 81.925781 433.984375 C 80.34375 436.730469 81.460938 441.230469 85.160156 446.980469 C 88.988281 452.9375 95.585938 460.183594 104.25 467.949219 L 106.539062 470 L 103.535156 470.628906 C 92.144531 473.023438 82.796875 475.996094 76.515625 479.242188 C 70.441406 482.386719 67.21875 485.726562 67.21875 488.894531 C 67.21875 492.0625 70.429688 495.402344 76.515625 498.539062 C 82.804688 501.78125 92.144531 504.753906 103.535156 507.152344 L 106.539062 507.78125 L 104.25 509.828125 C 95.585938 517.597656 88.976562 524.851562 85.160156 530.796875 C 81.460938 536.558594 80.34375 541.046875 81.925781 543.792969 C 83.511719 546.535156 87.96875 547.816406 94.804688 547.492188 C 101.863281 547.15625 111.453125 545.0625 122.507812 541.4375 L 125.425781 540.484375 L 124.46875 543.402344 C 120.847656 554.464844 118.753906 564.042969 118.417969 571.105469 C 118.09375 577.9375 119.371094 582.386719 122.117188 583.980469 C 124.859375 585.566406 129.363281 584.449219 135.113281 580.75 C 141.066406 576.917969 148.3125 570.324219 156.078125 561.65625 Z M 158.140625 559.367188 " fill-opacity="1" fill-rule="nonzero"/></g><path fill="#00bf63" d="M 284.042969 488.894531 C 284.042969 481.019531 269.519531 473.957031 246.492188 469.121094 C 264.019531 453.414062 273.066406 440.027344 269.128906 433.214844 C 265.191406 426.402344 249.082031 427.542969 226.714844 434.863281 C 234.039062 412.496094 235.1875 396.390625 228.363281 392.453125 C 221.542969 388.515625 208.167969 397.5625 192.460938 415.089844 C 187.621094 392.050781 180.5625 377.539062 172.6875 377.539062 C 164.8125 377.539062 157.75 392.050781 152.910156 415.089844 C 137.203125 397.5625 123.820312 388.515625 117.007812 392.453125 C 110.195312 396.390625 111.335938 412.496094 118.65625 434.863281 C 96.289062 427.542969 80.179688 426.394531 76.242188 433.214844 C 72.304688 440.027344 81.351562 453.414062 98.882812 469.121094 C 75.84375 473.957031 61.316406 481.019531 61.316406 488.894531 C 61.316406 496.769531 75.84375 503.832031 98.871094 508.667969 C 81.34375 524.375 72.296875 537.761719 76.234375 544.574219 C 80.171875 551.386719 96.277344 550.246094 118.644531 542.925781 C 111.324219 565.292969 110.171875 581.398438 116.996094 585.335938 C 123.808594 589.273438 137.195312 580.226562 152.902344 562.699219 C 157.738281 585.738281 164.8125 600.253906 172.675781 600.253906 C 180.539062 600.253906 187.613281 585.726562 192.449219 562.699219 C 208.15625 580.226562 221.542969 589.273438 228.355469 585.335938 C 235.167969 581.398438 234.027344 565.292969 226.707031 542.925781 C 249.070312 550.246094 265.179688 551.394531 269.117188 544.574219 C 273.054688 537.761719 264.007812 524.375 246.480469 508.667969 C 269.53125 503.832031 284.042969 496.769531 284.042969 488.894531 Z M 284.042969 488.894531 " fill-opacity="1" fill-rule="nonzero"/><g clip-path="url(#8aae4657aa)"><path fill="#404040" d="M 172.6875 601.8125 C 168.207031 601.8125 164.03125 598.113281 160.277344 590.824219 C 157.152344 584.761719 154.386719 576.421875 152.03125 565.976562 C 144.777344 573.839844 138.203125 579.6875 132.464844 583.375 C 125.566406 587.808594 120.097656 588.917969 116.226562 586.683594 C 112.34375 584.449219 110.574219 579.152344 110.964844 570.964844 C 111.292969 564.152344 113.070312 555.539062 116.25 545.320312 C 106.03125 548.5 97.417969 550.277344 90.605469 550.605469 C 82.414062 550.996094 77.121094 549.226562 74.886719 545.34375 C 72.652344 541.460938 73.757812 536.003906 78.195312 529.105469 C 81.882812 523.367188 87.730469 516.792969 95.59375 509.535156 C 85.160156 507.183594 76.808594 504.417969 70.746094 501.292969 C 63.464844 497.550781 59.765625 493.375 59.765625 488.894531 C 59.765625 484.414062 63.464844 480.238281 70.753906 476.484375 C 76.820312 473.363281 85.160156 470.59375 95.605469 468.242188 C 87.742188 460.984375 81.894531 454.410156 78.207031 448.671875 C 73.769531 441.773438 72.664062 436.308594 74.898438 432.433594 C 77.132812 428.5625 82.425781 426.785156 90.617188 427.175781 C 97.429688 427.5 106.042969 429.277344 116.257812 432.457031 C 113.070312 422.25 111.292969 413.636719 110.964844 406.824219 C 110.574219 398.636719 112.34375 393.339844 116.226562 391.105469 C 120.109375 388.871094 125.566406 389.980469 132.464844 394.414062 C 138.203125 398.105469 144.777344 403.949219 152.03125 411.8125 C 154.386719 401.378906 157.152344 393.027344 160.277344 386.964844 C 164.03125 379.675781 168.207031 375.976562 172.6875 375.976562 C 177.167969 375.976562 181.34375 379.675781 185.09375 386.964844 C 188.21875 393.027344 190.984375 401.367188 193.339844 411.8125 C 200.597656 403.949219 207.167969 398.105469 212.90625 394.414062 C 219.804688 389.980469 225.273438 388.871094 229.144531 391.105469 C 233.027344 393.339844 234.796875 398.636719 234.40625 406.824219 C 234.082031 413.636719 232.300781 422.25 229.125 432.46875 C 239.34375 429.289062 247.953125 427.511719 254.765625 427.183594 C 262.957031 426.792969 268.25 428.5625 270.484375 432.445312 C 272.71875 436.328125 271.613281 441.785156 267.175781 448.683594 C 263.488281 454.421875 257.640625 460.996094 249.777344 468.253906 C 260.210938 470.605469 268.566406 473.371094 274.628906 476.496094 C 281.917969 480.25 285.617188 484.425781 285.617188 488.90625 C 285.617188 493.386719 281.917969 497.5625 274.628906 501.316406 C 268.566406 504.4375 260.222656 507.203125 249.777344 509.558594 C 257.640625 516.816406 263.488281 523.390625 267.175781 529.125 C 271.613281 536.027344 272.71875 541.492188 270.484375 545.363281 C 268.25 549.25 262.957031 551.003906 254.765625 550.625 C 247.953125 550.300781 239.34375 548.523438 229.125 545.34375 C 232.300781 555.5625 234.082031 564.175781 234.40625 570.984375 C 234.796875 579.175781 233.027344 584.46875 229.144531 586.703125 C 227.84375 587.453125 226.367188 587.832031 224.730469 587.832031 C 221.457031 587.832031 217.496094 586.355469 212.90625 583.40625 C 207.167969 579.71875 200.597656 573.871094 193.339844 566.007812 C 190.984375 576.441406 188.21875 584.792969 185.09375 590.859375 C 181.34375 598.113281 177.167969 601.8125 172.6875 601.8125 Z M 153.800781 559.367188 L 154.429688 562.375 C 156.828125 573.761719 159.800781 583.113281 163.042969 589.394531 C 166.179688 595.480469 169.507812 598.691406 172.6875 598.691406 C 175.855469 598.691406 179.195312 595.480469 182.328125 589.394531 C 185.574219 583.101562 188.542969 573.761719 190.941406 562.375 L 191.570312 559.367188 L 193.621094 561.65625 C 201.386719 570.324219 208.644531 576.929688 214.589844 580.75 C 220.347656 584.449219 224.839844 585.566406 227.582031 583.980469 C 230.328125 582.398438 231.609375 577.9375 231.28125 571.105469 C 230.945312 564.042969 228.851562 554.457031 225.230469 543.402344 L 224.277344 540.484375 L 227.195312 541.4375 C 238.257812 545.0625 247.835938 547.15625 254.898438 547.492188 C 261.730469 547.816406 266.179688 546.535156 267.773438 543.792969 C 269.355469 541.046875 268.238281 536.546875 264.539062 530.796875 C 260.710938 524.84375 254.117188 517.597656 245.449219 509.828125 L 243.160156 507.78125 L 246.164062 507.152344 C 257.554688 504.753906 266.90625 501.78125 273.1875 498.539062 C 279.269531 495.402344 282.480469 492.074219 282.480469 488.894531 C 282.480469 485.726562 279.269531 482.386719 273.1875 479.25 C 266.894531 476.007812 257.554688 473.035156 246.164062 470.640625 L 243.160156 470.007812 L 245.449219 467.960938 C 254.117188 460.191406 260.722656 452.9375 264.539062 446.992188 C 268.238281 441.230469 269.355469 436.742188 267.773438 433.996094 C 266.1875 431.253906 261.730469 429.972656 254.898438 430.296875 C 247.835938 430.632812 238.246094 432.726562 227.195312 436.351562 L 224.277344 437.304688 L 225.230469 434.386719 C 228.851562 423.324219 230.945312 413.746094 231.28125 406.683594 C 231.609375 399.851562 230.328125 395.402344 227.582031 393.808594 C 224.839844 392.222656 220.339844 393.339844 214.589844 397.039062 C 208.632812 400.871094 201.386719 407.464844 193.621094 416.132812 L 191.570312 418.421875 L 190.941406 415.414062 C 188.542969 404.027344 185.574219 394.675781 182.328125 388.394531 C 179.195312 382.308594 175.863281 379.097656 172.6875 379.097656 C 169.519531 379.097656 166.179688 382.308594 163.042969 388.394531 C 159.800781 394.6875 156.828125 404.027344 154.429688 415.414062 L 153.800781 418.421875 L 151.75 416.132812 C 143.984375 407.464844 136.726562 400.859375 130.785156 397.039062 C 125.023438 393.339844 120.53125 392.222656 117.789062 393.808594 C 115.035156 395.390625 113.753906 399.839844 114.078125 406.671875 C 114.414062 413.734375 116.507812 423.324219 120.132812 434.375 L 121.085938 437.292969 L 118.167969 436.339844 C 107.105469 432.71875 97.527344 430.625 90.464844 430.289062 C 83.628906 429.960938 79.183594 431.242188 77.589844 433.984375 C 75.996094 436.730469 77.121094 441.230469 80.820312 446.980469 C 84.648438 452.9375 91.246094 460.183594 99.914062 467.949219 L 102.199219 470 L 99.195312 470.628906 C 87.808594 473.023438 78.457031 475.996094 72.175781 479.242188 C 66.089844 482.386719 62.878906 485.726562 62.878906 488.894531 C 62.878906 492.0625 66.089844 495.402344 72.175781 498.539062 C 78.46875 501.78125 87.808594 504.753906 99.195312 507.152344 L 102.199219 507.78125 L 99.914062 509.828125 C 91.246094 517.597656 84.640625 524.851562 80.820312 530.796875 C 77.121094 536.558594 76.003906 541.046875 77.589844 543.792969 C 79.171875 546.535156 83.628906 547.816406 90.464844 547.492188 C 97.527344 547.15625 107.113281 545.0625 118.167969 541.4375 L 121.085938 540.484375 L 120.132812 543.402344 C 116.507812 554.464844 114.414062 564.042969 114.078125 571.105469 C 113.753906 577.9375 115.035156 582.386719 117.777344 583.980469 C 120.523438 585.566406 125.023438 584.449219 130.773438 580.75 C 136.726562 576.917969 143.972656 570.324219 151.742188 561.65625 Z M 153.800781 559.367188 " fill-opacity="1" fill-rule="nonzero"/></g><g clip-path="url(#d7468ecb57)"><g clip-path="url(#fc4599dadc)"><g clip-path="url(#5debc6131d)"><g transform="matrix(1, 0, 0, 1, 117, 168)"><g clip-path="url(#3bf641ef6f)"><g clip-path="url(#718a1d6cc3)"><g clip-path="url(#850e8310f3)"><g clip-path="url(#414b054560)"><path fill="#ff5757" d="M 5.65625 -3.425781 L 190.847656 31.109375 L 181.851562 79.339844 L -3.335938 44.800781 Z M 5.65625 -3.425781 " fill-opacity="1" fill-rule="nonzero"/></g></g></g></g></g></g></g></g><g clip-path="url(#7d13a7b75f)"><g clip-path="url(#ce8bd5d070)"><g clip-path="url(#11c38ca1d0)"><g clip-path="url(#6ce96529f5)"><path stroke-linecap="butt" transform="matrix(0.736452, 0.137353, -0.137353, 0.736452, 122.657909, 164.572981)" fill="none" stroke-linejoin="miter" d="M 32.74032 0.0004941 L 218.80397 -0.00172649 C 236.88599 -0.000690599 251.548735 14.656912 251.5477 32.738931 C 251.54762 50.826077 236.889061 65.483697 218.807042 65.482661 L 32.743392 65.484882 C 14.661372 65.483846 -0.00137367 50.826244 -0.000337779 32.744224 C -0.000257888 14.657078 14.6583 -0.00054179 32.74032 0.0004941 Z M 32.74032 0.0004941 " stroke="#f2f1f4" stroke-width="10" stroke-opacity="1" stroke-miterlimit="4"/></g></g></g></g><g transform="matrix(1, 0, 0, 1, 151, 170)"><g clip-path="url(#e5a7b397ba)"><g fill="#f2f1f4" fill-opacity="1"><g transform="translate(3.30718, 36.420958)"><g><path d="M 10.96875 2.265625 C 9.1875 1.941406 7.640625 1.359375 6.328125 0.515625 C 5.023438 -0.328125 4.050781 -1.394531 3.40625 -2.6875 C 2.757812 -3.988281 2.554688 -5.445312 2.796875 -7.0625 L 9.15625 -5.890625 C 9.09375 -4.972656 9.28125 -4.222656 9.71875 -3.640625 C 10.164062 -3.066406 10.816406 -2.703125 11.671875 -2.546875 C 12.554688 -2.378906 13.289062 -2.453125 13.875 -2.765625 C 14.46875 -3.085938 14.828125 -3.609375 14.953125 -4.328125 C 15.066406 -4.929688 14.957031 -5.460938 14.625 -5.921875 C 14.300781 -6.390625 13.863281 -6.804688 13.3125 -7.171875 C 12.769531 -7.546875 11.976562 -8 10.9375 -8.53125 C 9.445312 -9.300781 8.242188 -10.023438 7.328125 -10.703125 C 6.421875 -11.378906 5.691406 -12.257812 5.140625 -13.34375 C 4.597656 -14.425781 4.46875 -15.734375 4.75 -17.265625 C 5.164062 -19.546875 6.316406 -21.175781 8.203125 -22.15625 C 10.085938 -23.144531 12.359375 -23.394531 15.015625 -22.90625 C 17.710938 -22.414062 19.769531 -21.375 21.1875 -19.78125 C 22.601562 -18.1875 23.160156 -16.234375 22.859375 -13.921875 L 16.40625 -15.09375 C 16.5 -15.894531 16.316406 -16.570312 15.859375 -17.125 C 15.410156 -17.675781 14.765625 -18.03125 13.921875 -18.1875 C 13.203125 -18.3125 12.585938 -18.222656 12.078125 -17.921875 C 11.578125 -17.617188 11.257812 -17.109375 11.125 -16.390625 C 10.976562 -15.597656 11.234375 -14.914062 11.890625 -14.34375 C 12.554688 -13.769531 13.632812 -13.078125 15.125 -12.265625 C 16.601562 -11.429688 17.789062 -10.679688 18.6875 -10.015625 C 19.59375 -9.347656 20.316406 -8.484375 20.859375 -7.421875 C 21.410156 -6.359375 21.550781 -5.09375 21.28125 -3.625 C 21.03125 -2.226562 20.445312 -1.023438 19.53125 -0.015625 C 18.613281 0.984375 17.414062 1.695312 15.9375 2.125 C 14.46875 2.5625 12.8125 2.609375 10.96875 2.265625 Z M 10.96875 2.265625 "/></g></g></g><g fill="#f2f1f4" fill-opacity="1"><g transform="translate(24.767136, 40.356002)"><g><path d="M 23.875 -12.796875 C 23.613281 -11.378906 23.050781 -10.140625 22.1875 -9.078125 C 21.320312 -8.023438 20.144531 -7.257812 18.65625 -6.78125 C 17.175781 -6.3125 15.4375 -6.257812 13.4375 -6.625 L 9.734375 -7.3125 L 8.125 1.484375 L 2.171875 0.390625 L 6.65625 -24.109375 L 16.3125 -22.328125 C 18.257812 -21.972656 19.847656 -21.332031 21.078125 -20.40625 C 22.316406 -19.476562 23.160156 -18.359375 23.609375 -17.046875 C 24.066406 -15.742188 24.15625 -14.328125 23.875 -12.796875 Z M 13.859375 -11.46875 C 14.992188 -11.257812 15.890625 -11.367188 16.546875 -11.796875 C 17.203125 -12.222656 17.617188 -12.925781 17.796875 -13.90625 C 17.972656 -14.882812 17.832031 -15.691406 17.375 -16.328125 C 16.914062 -16.960938 16.117188 -17.382812 14.984375 -17.59375 L 11.734375 -18.1875 L 10.609375 -12.0625 Z M 13.859375 -11.46875 "/></g></g></g><g fill="#f2f1f4" fill-opacity="1"><g transform="translate(46.541142, 44.348633)"><g><path d="M 11.734375 -18.234375 L 10.828125 -13.265625 L 18.828125 -11.796875 L 17.984375 -7.203125 L 9.984375 -8.671875 L 9 -3.296875 L 18.046875 -1.640625 L 17.171875 3.140625 L 2.171875 0.390625 L 6.65625 -24.109375 L 21.65625 -21.359375 L 20.78125 -16.578125 Z M 11.734375 -18.234375 "/></g></g></g><g fill="#f2f1f4" fill-opacity="1"><g transform="translate(65.418921, 47.810191)"><g><path d="M 11.734375 -18.234375 L 10.828125 -13.265625 L 18.828125 -11.796875 L 17.984375 -7.203125 L 9.984375 -8.671875 L 9 -3.296875 L 18.046875 -1.640625 L 17.171875 3.140625 L 2.171875 0.390625 L 6.65625 -24.109375 L 21.65625 -21.359375 L 20.78125 -16.578125 Z M 11.734375 -18.234375 "/></g></g></g><g fill="#f2f1f4" fill-opacity="1"><g transform="translate(84.2967, 51.271749)"><g><path d="M 15.828125 -22.421875 C 18.410156 -21.941406 20.570312 -21.007812 22.3125 -19.625 C 24.0625 -18.25 25.289062 -16.539062 26 -14.5 C 26.71875 -12.457031 26.859375 -10.226562 26.421875 -7.8125 C 25.984375 -5.414062 25.066406 -3.382812 23.671875 -1.71875 C 22.273438 -0.0507812 20.507812 1.113281 18.375 1.78125 C 16.238281 2.445312 13.894531 2.546875 11.34375 2.078125 L 2.171875 0.390625 L 6.65625 -24.109375 Z M 11.90625 -3.140625 C 14.164062 -2.734375 16.035156 -3.035156 17.515625 -4.046875 C 18.992188 -5.054688 19.941406 -6.6875 20.359375 -8.9375 C 20.765625 -11.1875 20.457031 -13.050781 19.4375 -14.53125 C 18.414062 -16.019531 16.773438 -16.96875 14.515625 -17.375 L 11.6875 -17.90625 L 9.078125 -3.671875 Z M 11.90625 -3.140625 "/></g></g></g></g></g><g transform="matrix(1, 0, 0, 1, 313, 443)"><g clip-path="url(#059fab9c8a)"><path fill="#404040" d="M 13.542969 22.859375 C 13.542969 23.21875 13.507812 23.570312 13.4375 23.921875 C 13.367188 24.273438 13.265625 24.613281 13.128906 24.945312 C 12.992188 25.273438 12.824219 25.589844 12.625 25.886719 C 12.425781 26.183594 12.199219 26.457031 11.949219 26.710938 C 11.695312 26.964844 11.417969 27.191406 11.121094 27.390625 C 10.824219 27.589844 10.511719 27.753906 10.179688 27.894531 C 9.851562 28.03125 9.507812 28.132812 9.160156 28.203125 C 8.808594 28.273438 8.453125 28.308594 8.09375 28.308594 C 7.738281 28.308594 7.382812 28.273438 7.03125 28.203125 C 6.683594 28.132812 6.339844 28.03125 6.011719 27.894531 C 5.679688 27.753906 5.367188 27.589844 5.070312 27.390625 C 4.773438 27.191406 4.496094 26.964844 4.242188 26.710938 C 3.992188 26.457031 3.765625 26.183594 3.566406 25.886719 C 3.367188 25.589844 3.199219 25.273438 3.0625 24.945312 C 2.925781 24.613281 2.820312 24.273438 2.753906 23.921875 C 2.683594 23.570312 2.648438 23.21875 2.648438 22.859375 C 2.648438 22.5 2.683594 22.148438 2.753906 21.796875 C 2.820312 21.445312 2.925781 21.105469 3.0625 20.773438 C 3.199219 20.445312 3.367188 20.128906 3.566406 19.832031 C 3.765625 19.535156 3.992188 19.261719 4.242188 19.007812 C 4.496094 18.753906 4.773438 18.527344 5.070312 18.328125 C 5.367188 18.132812 5.679688 17.964844 6.011719 17.828125 C 6.339844 17.691406 6.683594 17.585938 7.03125 17.515625 C 7.382812 17.445312 7.738281 17.410156 8.09375 17.410156 C 8.453125 17.410156 8.808594 17.445312 9.160156 17.515625 C 9.507812 17.585938 9.851562 17.691406 10.179688 17.828125 C 10.511719 17.964844 10.824219 18.132812 11.121094 18.328125 C 11.417969 18.527344 11.695312 18.753906 11.949219 19.007812 C 12.199219 19.261719 12.425781 19.535156 12.625 19.832031 C 12.824219 20.128906 12.992188 20.445312 13.128906 20.773438 C 13.265625 21.105469 13.367188 21.445312 13.4375 21.796875 C 13.507812 22.148438 13.542969 22.5 13.542969 22.859375 Z M 13.542969 22.859375 " fill-opacity="1" fill-rule="nonzero"/><g fill="#404040" fill-opacity="1"><g transform="translate(29.522132, 33.755246)"><g><path d="M 12.546875 -16.484375 C 12.390625 -17.242188 12.101562 -17.8125 11.6875 -18.1875 C 11.269531 -18.570312 10.679688 -18.765625 9.921875 -18.765625 C 8.742188 -18.765625 7.898438 -18.253906 7.390625 -17.234375 C 6.878906 -16.210938 6.613281 -14.601562 6.59375 -12.40625 C 7.039062 -13.125 7.691406 -13.6875 8.546875 -14.09375 C 9.398438 -14.507812 10.34375 -14.71875 11.375 -14.71875 C 13.394531 -14.71875 15.019531 -14.078125 16.25 -12.796875 C 17.476562 -11.523438 18.09375 -9.742188 18.09375 -7.453125 C 18.09375 -5.941406 17.785156 -4.617188 17.171875 -3.484375 C 16.566406 -2.359375 15.679688 -1.472656 14.515625 -0.828125 C 13.347656 -0.191406 11.972656 0.125 10.390625 0.125 C 7.210938 0.125 5.003906 -0.867188 3.765625 -2.859375 C 2.535156 -4.847656 1.921875 -7.707031 1.921875 -11.4375 C 1.921875 -15.351562 2.570312 -18.265625 3.875 -20.171875 C 5.1875 -22.078125 7.285156 -23.03125 10.171875 -23.03125 C 11.722656 -23.03125 13.023438 -22.726562 14.078125 -22.125 C 15.140625 -21.519531 15.941406 -20.722656 16.484375 -19.734375 C 17.035156 -18.742188 17.363281 -17.660156 17.46875 -16.484375 Z M 10.109375 -10.546875 C 9.222656 -10.546875 8.484375 -10.28125 7.890625 -9.75 C 7.304688 -9.226562 7.015625 -8.484375 7.015625 -7.515625 C 7.015625 -6.523438 7.285156 -5.75 7.828125 -5.1875 C 8.378906 -4.632812 9.160156 -4.359375 10.171875 -4.359375 C 11.078125 -4.359375 11.789062 -4.628906 12.3125 -5.171875 C 12.84375 -5.722656 13.109375 -6.472656 13.109375 -7.421875 C 13.109375 -8.390625 12.847656 -9.148438 12.328125 -9.703125 C 11.816406 -10.265625 11.078125 -10.546875 10.109375 -10.546875 Z M 10.109375 -10.546875 "/></g></g></g><g fill="#404040" fill-opacity="1"><g transform="translate(49.212901, 33.755246)"><g><path d="M 1.390625 -11.59375 C 1.390625 -15.144531 2.070312 -17.9375 3.4375 -19.96875 C 4.8125 -22.007812 7.023438 -23.03125 10.078125 -23.03125 C 13.128906 -23.03125 15.335938 -22.007812 16.703125 -19.96875 C 18.078125 -17.9375 18.765625 -15.144531 18.765625 -11.59375 C 18.765625 -8.007812 18.078125 -5.195312 16.703125 -3.15625 C 15.335938 -1.113281 13.128906 -0.09375 10.078125 -0.09375 C 7.023438 -0.09375 4.8125 -1.113281 3.4375 -3.15625 C 2.070312 -5.195312 1.390625 -8.007812 1.390625 -11.59375 Z M 13.578125 -11.59375 C 13.578125 -13.675781 13.347656 -15.28125 12.890625 -16.40625 C 12.441406 -17.53125 11.503906 -18.09375 10.078125 -18.09375 C 8.660156 -18.09375 7.722656 -17.53125 7.265625 -16.40625 C 6.816406 -15.28125 6.59375 -13.675781 6.59375 -11.59375 C 6.59375 -10.195312 6.671875 -9.035156 6.828125 -8.109375 C 6.992188 -7.191406 7.328125 -6.453125 7.828125 -5.890625 C 8.335938 -5.328125 9.085938 -5.046875 10.078125 -5.046875 C 11.066406 -5.046875 11.8125 -5.328125 12.3125 -5.890625 C 12.820312 -6.453125 13.160156 -7.191406 13.328125 -8.109375 C 13.492188 -9.035156 13.578125 -10.195312 13.578125 -11.59375 Z M 13.578125 -11.59375 "/></g></g></g><g fill="#404040" fill-opacity="1"><g transform="translate(69.367344, 33.755246)"><g/></g></g><g fill="#404040" fill-opacity="1"><g transform="translate(75.920626, 33.755246)"><g><path d="M 9.765625 0.21875 C 8.179688 0.21875 6.757812 -0.0351562 5.5 -0.546875 C 4.25 -1.066406 3.242188 -1.832031 2.484375 -2.84375 C 1.734375 -3.851562 1.335938 -5.070312 1.296875 -6.5 L 6.921875 -6.5 C 7.003906 -5.6875 7.28125 -5.066406 7.75 -4.640625 C 8.226562 -4.222656 8.847656 -4.015625 9.609375 -4.015625 C 10.398438 -4.015625 11.019531 -4.195312 11.46875 -4.5625 C 11.925781 -4.925781 12.15625 -5.425781 12.15625 -6.0625 C 12.15625 -6.59375 11.972656 -7.035156 11.609375 -7.390625 C 11.242188 -7.742188 10.800781 -8.03125 10.28125 -8.25 C 9.757812 -8.476562 9.015625 -8.738281 8.046875 -9.03125 C 6.640625 -9.457031 5.492188 -9.890625 4.609375 -10.328125 C 3.722656 -10.765625 2.957031 -11.40625 2.3125 -12.25 C 1.675781 -13.09375 1.359375 -14.191406 1.359375 -15.546875 C 1.359375 -17.566406 2.085938 -19.148438 3.546875 -20.296875 C 5.015625 -21.441406 6.925781 -22.015625 9.28125 -22.015625 C 11.664062 -22.015625 13.585938 -21.441406 15.046875 -20.296875 C 16.515625 -19.148438 17.300781 -17.554688 17.40625 -15.515625 L 11.6875 -15.515625 C 11.644531 -16.222656 11.382812 -16.773438 10.90625 -17.171875 C 10.4375 -17.578125 9.832031 -17.78125 9.09375 -17.78125 C 8.445312 -17.78125 7.925781 -17.609375 7.53125 -17.265625 C 7.144531 -16.929688 6.953125 -16.441406 6.953125 -15.796875 C 6.953125 -15.097656 7.28125 -14.550781 7.9375 -14.15625 C 8.601562 -13.769531 9.640625 -13.347656 11.046875 -12.890625 C 12.441406 -12.421875 13.578125 -11.96875 14.453125 -11.53125 C 15.328125 -11.101562 16.082031 -10.472656 16.71875 -9.640625 C 17.363281 -8.816406 17.6875 -7.757812 17.6875 -6.46875 C 17.6875 -5.226562 17.367188 -4.101562 16.734375 -3.09375 C 16.109375 -2.082031 15.195312 -1.273438 14 -0.671875 C 12.8125 -0.078125 11.398438 0.21875 9.765625 0.21875 Z M 9.765625 0.21875 "/></g></g></g><g fill="#404040" fill-opacity="1"><g transform="translate(94.931341, 33.755246)"><g><path d="M 7.203125 -17.46875 L 7.203125 -13.078125 L 14.28125 -13.078125 L 14.28125 -9 L 7.203125 -9 L 7.203125 -4.234375 L 15.21875 -4.234375 L 15.21875 0 L 1.921875 0 L 1.921875 -21.703125 L 15.21875 -21.703125 L 15.21875 -17.46875 Z M 7.203125 -17.46875 "/></g></g></g><g fill="#404040" fill-opacity="1"><g transform="translate(111.654579, 33.755246)"><g><path d="M 1.015625 -10.890625 C 1.015625 -13.023438 1.476562 -14.929688 2.40625 -16.609375 C 3.332031 -18.296875 4.625 -19.609375 6.28125 -20.546875 C 7.945312 -21.484375 9.832031 -21.953125 11.9375 -21.953125 C 14.507812 -21.953125 16.710938 -21.269531 18.546875 -19.90625 C 20.390625 -18.550781 21.617188 -16.695312 22.234375 -14.34375 L 16.421875 -14.34375 C 15.984375 -15.25 15.367188 -15.9375 14.578125 -16.40625 C 13.785156 -16.882812 12.882812 -17.125 11.875 -17.125 C 10.25 -17.125 8.929688 -16.554688 7.921875 -15.421875 C 6.910156 -14.296875 6.40625 -12.785156 6.40625 -10.890625 C 6.40625 -8.992188 6.910156 -7.476562 7.921875 -6.34375 C 8.929688 -5.207031 10.25 -4.640625 11.875 -4.640625 C 12.882812 -4.640625 13.785156 -4.875 14.578125 -5.34375 C 15.367188 -5.820312 15.984375 -6.515625 16.421875 -7.421875 L 22.234375 -7.421875 C 21.617188 -5.066406 20.390625 -3.210938 18.546875 -1.859375 C 16.710938 -0.515625 14.507812 0.15625 11.9375 0.15625 C 9.832031 0.15625 7.945312 -0.3125 6.28125 -1.25 C 4.625 -2.1875 3.332031 -3.488281 2.40625 -5.15625 C 1.476562 -6.832031 1.015625 -8.742188 1.015625 -10.890625 Z M 1.015625 -10.890625 "/></g></g></g><g fill="#404040" fill-opacity="1"><g transform="translate(135.209314, 33.755246)"><g><path d="M 12.1875 0.21875 C 10.144531 0.21875 8.269531 -0.253906 6.5625 -1.203125 C 4.863281 -2.148438 3.515625 -3.472656 2.515625 -5.171875 C 1.515625 -6.878906 1.015625 -8.796875 1.015625 -10.921875 C 1.015625 -13.035156 1.515625 -14.9375 2.515625 -16.625 C 3.515625 -18.320312 4.863281 -19.644531 6.5625 -20.59375 C 8.269531 -21.539062 10.144531 -22.015625 12.1875 -22.015625 C 14.226562 -22.015625 16.097656 -21.539062 17.796875 -20.59375 C 19.492188 -19.644531 20.832031 -18.320312 21.8125 -16.625 C 22.789062 -14.9375 23.28125 -13.035156 23.28125 -10.921875 C 23.28125 -8.796875 22.785156 -6.878906 21.796875 -5.171875 C 20.804688 -3.472656 19.46875 -2.148438 17.78125 -1.203125 C 16.09375 -0.253906 14.226562 0.21875 12.1875 0.21875 Z M 12.1875 -4.609375 C 13.914062 -4.609375 15.300781 -5.1875 16.34375 -6.34375 C 17.382812 -7.5 17.90625 -9.023438 17.90625 -10.921875 C 17.90625 -12.835938 17.382812 -14.363281 16.34375 -15.5 C 15.300781 -16.644531 13.914062 -17.21875 12.1875 -17.21875 C 10.4375 -17.21875 9.039062 -16.648438 8 -15.515625 C 6.957031 -14.390625 6.4375 -12.859375 6.4375 -10.921875 C 6.4375 -9.003906 6.957031 -7.472656 8 -6.328125 C 9.039062 -5.179688 10.4375 -4.609375 12.1875 -4.609375 Z M 12.1875 -4.609375 "/></g></g></g><g fill="#404040" fill-opacity="1"><g transform="translate(159.505927, 33.755246)"><g><path d="M 21.34375 0 L 16.046875 0 L 7.203125 -13.390625 L 7.203125 0 L 1.921875 0 L 1.921875 -21.703125 L 7.203125 -21.703125 L 16.046875 -8.25 L 16.046875 -21.703125 L 21.34375 -21.703125 Z M 21.34375 0 "/></g></g></g><g fill="#404040" fill-opacity="1"><g transform="translate(182.751546, 33.755246)"><g><path d="M 10.046875 -21.703125 C 12.335938 -21.703125 14.335938 -21.25 16.046875 -20.34375 C 17.753906 -19.4375 19.078125 -18.160156 20.015625 -16.515625 C 20.953125 -14.878906 21.421875 -12.992188 21.421875 -10.859375 C 21.421875 -8.734375 20.953125 -6.84375 20.015625 -5.1875 C 19.078125 -3.539062 17.75 -2.265625 16.03125 -1.359375 C 14.3125 -0.453125 12.316406 0 10.046875 0 L 1.921875 0 L 1.921875 -21.703125 Z M 9.703125 -4.578125 C 11.703125 -4.578125 13.257812 -5.125 14.375 -6.21875 C 15.488281 -7.3125 16.046875 -8.859375 16.046875 -10.859375 C 16.046875 -12.859375 15.488281 -14.410156 14.375 -15.515625 C 13.257812 -16.628906 11.703125 -17.1875 9.703125 -17.1875 L 7.203125 -17.1875 L 7.203125 -4.578125 Z M 9.703125 -4.578125 "/></g></g></g><g fill="#404040" fill-opacity="1"><g transform="translate(205.224366, 33.755246)"><g><path d="M 9.765625 0.21875 C 8.179688 0.21875 6.757812 -0.0351562 5.5 -0.546875 C 4.25 -1.066406 3.242188 -1.832031 2.484375 -2.84375 C 1.734375 -3.851562 1.335938 -5.070312 1.296875 -6.5 L 6.921875 -6.5 C 7.003906 -5.6875 7.28125 -5.066406 7.75 -4.640625 C 8.226562 -4.222656 8.847656 -4.015625 9.609375 -4.015625 C 10.398438 -4.015625 11.019531 -4.195312 11.46875 -4.5625 C 11.925781 -4.925781 12.15625 -5.425781 12.15625 -6.0625 C 12.15625 -6.59375 11.972656 -7.035156 11.609375 -7.390625 C 11.242188 -7.742188 10.800781 -8.03125 10.28125 -8.25 C 9.757812 -8.476562 9.015625 -8.738281 8.046875 -9.03125 C 6.640625 -9.457031 5.492188 -9.890625 4.609375 -10.328125 C 3.722656 -10.765625 2.957031 -11.40625 2.3125 -12.25 C 1.675781 -13.09375 1.359375 -14.191406 1.359375 -15.546875 C 1.359375 -17.566406 2.085938 -19.148438 3.546875 -20.296875 C 5.015625 -21.441406 6.925781 -22.015625 9.28125 -22.015625 C 11.664062 -22.015625 13.585938 -21.441406 15.046875 -20.296875 C 16.515625 -19.148438 17.300781 -17.554688 17.40625 -15.515625 L 11.6875 -15.515625 C 11.644531 -16.222656 11.382812 -16.773438 10.90625 -17.171875 C 10.4375 -17.578125 9.832031 -17.78125 9.09375 -17.78125 C 8.445312 -17.78125 7.925781 -17.609375 7.53125 -17.265625 C 7.144531 -16.929688 6.953125 -16.441406 6.953125 -15.796875 C 6.953125 -15.097656 7.28125 -14.550781 7.9375 -14.15625 C 8.601562 -13.769531 9.640625 -13.347656 11.046875 -12.890625 C 12.441406 -12.421875 13.578125 -11.96875 14.453125 -11.53125 C 15.328125 -11.101562 16.082031 -10.472656 16.71875 -9.640625 C 17.363281 -8.816406 17.6875 -7.757812 17.6875 -6.46875 C 17.6875 -5.226562 17.367188 -4.101562 16.734375 -3.09375 C 16.109375 -2.082031 15.195312 -1.273438 14 -0.671875 C 12.8125 -0.078125 11.398438 0.21875 9.765625 0.21875 Z M 9.765625 0.21875 "/></g></g></g><path fill="#404040" d="M 13.542969 60.214844 C 13.542969 60.574219 13.507812 60.929688 13.4375 61.277344 C 13.367188 61.628906 13.265625 61.96875 13.128906 62.300781 C 12.992188 62.632812 12.824219 62.945312 12.625 63.242188 C 12.425781 63.539062 12.199219 63.816406 11.949219 64.070312 C 11.695312 64.320312 11.417969 64.546875 11.121094 64.746094 C 10.824219 64.945312 10.511719 65.113281 10.179688 65.25 C 9.851562 65.386719 9.507812 65.488281 9.160156 65.558594 C 8.808594 65.628906 8.453125 65.664062 8.09375 65.664062 C 7.738281 65.664062 7.382812 65.628906 7.03125 65.558594 C 6.683594 65.488281 6.339844 65.386719 6.011719 65.25 C 5.679688 65.113281 5.367188 64.945312 5.070312 64.746094 C 4.773438 64.546875 4.496094 64.320312 4.242188 64.070312 C 3.992188 63.816406 3.765625 63.539062 3.566406 63.242188 C 3.367188 62.945312 3.199219 62.632812 3.0625 62.300781 C 2.925781 61.96875 2.820312 61.628906 2.753906 61.277344 C 2.683594 60.929688 2.648438 60.574219 2.648438 60.214844 C 2.648438 59.859375 2.683594 59.503906 2.753906 59.152344 C 2.820312 58.800781 2.925781 58.460938 3.0625 58.132812 C 3.199219 57.800781 3.367188 57.488281 3.566406 57.191406 C 3.765625 56.890625 3.992188 56.617188 4.242188 56.363281 C 4.496094 56.109375 4.773438 55.886719 5.070312 55.6875 C 5.367188 55.488281 5.679688 55.320312 6.011719 55.183594 C 6.339844 55.046875 6.683594 54.941406 7.03125 54.871094 C 7.382812 54.804688 7.738281 54.769531 8.09375 54.769531 C 8.453125 54.769531 8.808594 54.804688 9.160156 54.871094 C 9.507812 54.941406 9.851562 55.046875 10.179688 55.183594 C 10.511719 55.320312 10.824219 55.488281 11.121094 55.6875 C 11.417969 55.886719 11.695312 56.109375 11.949219 56.363281 C 12.199219 56.617188 12.425781 56.890625 12.625 57.191406 C 12.824219 57.488281 12.992188 57.800781 13.128906 58.132812 C 13.265625 58.460938 13.367188 58.800781 13.4375 59.152344 C 13.507812 59.503906 13.542969 59.859375 13.542969 60.214844 Z M 13.542969 60.214844 " fill-opacity="1" fill-rule="nonzero"/><g fill="#404040" fill-opacity="1"><g transform="translate(29.522132, 71.111871)"><g><path d="M 12.1875 0.21875 C 10.144531 0.21875 8.269531 -0.253906 6.5625 -1.203125 C 4.863281 -2.148438 3.515625 -3.472656 2.515625 -5.171875 C 1.515625 -6.878906 1.015625 -8.796875 1.015625 -10.921875 C 1.015625 -13.035156 1.515625 -14.9375 2.515625 -16.625 C 3.515625 -18.320312 4.863281 -19.644531 6.5625 -20.59375 C 8.269531 -21.539062 10.144531 -22.015625 12.1875 -22.015625 C 14.226562 -22.015625 16.097656 -21.539062 17.796875 -20.59375 C 19.492188 -19.644531 20.832031 -18.320312 21.8125 -16.625 C 22.789062 -14.9375 23.28125 -13.035156 23.28125 -10.921875 C 23.28125 -8.796875 22.785156 -6.878906 21.796875 -5.171875 C 20.804688 -3.472656 19.46875 -2.148438 17.78125 -1.203125 C 16.09375 -0.253906 14.226562 0.21875 12.1875 0.21875 Z M 12.1875 -4.609375 C 13.914062 -4.609375 15.300781 -5.1875 16.34375 -6.34375 C 17.382812 -7.5 17.90625 -9.023438 17.90625 -10.921875 C 17.90625 -12.835938 17.382812 -14.363281 16.34375 -15.5 C 15.300781 -16.644531 13.914062 -17.21875 12.1875 -17.21875 C 10.4375 -17.21875 9.039062 -16.648438 8 -15.515625 C 6.957031 -14.390625 6.4375 -12.859375 6.4375 -10.921875 C 6.4375 -9.003906 6.957031 -7.472656 8 -6.328125 C 9.039062 -5.179688 10.4375 -4.609375 12.1875 -4.609375 Z M 12.1875 -4.609375 "/></g></g></g><g fill="#404040" fill-opacity="1"><g transform="translate(53.818744, 71.111871)"><g><path d="M 21.34375 0 L 16.046875 0 L 7.203125 -13.390625 L 7.203125 0 L 1.921875 0 L 1.921875 -21.703125 L 7.203125 -21.703125 L 16.046875 -8.25 L 16.046875 -21.703125 L 21.34375 -21.703125 Z M 21.34375 0 "/></g></g></g><g fill="#404040" fill-opacity="1"><g transform="translate(77.064364, 71.111871)"><g><path d="M 7.203125 -4.078125 L 14.125 -4.078125 L 14.125 0 L 1.921875 0 L 1.921875 -21.703125 L 7.203125 -21.703125 Z M 7.203125 -4.078125 "/></g></g></g><g fill="#404040" fill-opacity="1"><g transform="translate(91.809251, 71.111871)"><g><path d="M 20.53125 -21.703125 L 13.015625 -7.171875 L 13.015625 0 L 7.734375 0 L 7.734375 -7.171875 L 0.21875 -21.703125 L 6.21875 -21.703125 L 10.421875 -12.609375 L 14.59375 -21.703125 Z M 20.53125 -21.703125 "/></g></g></g><g fill="#404040" fill-opacity="1"><g transform="translate(112.551013, 71.111871)"><g/></g></g><g fill="#404040" fill-opacity="1"><g transform="translate(119.104294, 71.111871)"><g><path d="M 12.1875 0.21875 C 10.144531 0.21875 8.269531 -0.253906 6.5625 -1.203125 C 4.863281 -2.148438 3.515625 -3.472656 2.515625 -5.171875 C 1.515625 -6.878906 1.015625 -8.796875 1.015625 -10.921875 C 1.015625 -13.035156 1.515625 -14.9375 2.515625 -16.625 C 3.515625 -18.320312 4.863281 -19.644531 6.5625 -20.59375 C 8.269531 -21.539062 10.144531 -22.015625 12.1875 -22.015625 C 14.226562 -22.015625 16.097656 -21.539062 17.796875 -20.59375 C 19.492188 -19.644531 20.832031 -18.320312 21.8125 -16.625 C 22.789062 -14.9375 23.28125 -13.035156 23.28125 -10.921875 C 23.28125 -8.796875 22.785156 -6.878906 21.796875 -5.171875 C 20.804688 -3.472656 19.46875 -2.148438 17.78125 -1.203125 C 16.09375 -0.253906 14.226562 0.21875 12.1875 0.21875 Z M 12.1875 -4.609375 C 13.914062 -4.609375 15.300781 -5.1875 16.34375 -6.34375 C 17.382812 -7.5 17.90625 -9.023438 17.90625 -10.921875 C 17.90625 -12.835938 17.382812 -14.363281 16.34375 -15.5 C 15.300781 -16.644531 13.914062 -17.21875 12.1875 -17.21875 C 10.4375 -17.21875 9.039062 -16.648438 8 -15.515625 C 6.957031 -14.390625 6.4375 -12.859375 6.4375 -10.921875 C 6.4375 -9.003906 6.957031 -7.472656 8 -6.328125 C 9.039062 -5.179688 10.4375 -4.609375 12.1875 -4.609375 Z M 12.1875 -4.609375 "/></g></g></g><g fill="#404040" fill-opacity="1"><g transform="translate(143.400907, 71.111871)"><g><path d="M 21.34375 0 L 16.046875 0 L 7.203125 -13.390625 L 7.203125 0 L 1.921875 0 L 1.921875 -21.703125 L 7.203125 -21.703125 L 16.046875 -8.25 L 16.046875 -21.703125 L 21.34375 -21.703125 Z M 21.34375 0 "/></g></g></g><g fill="#404040" fill-opacity="1"><g transform="translate(166.646526, 71.111871)"><g><path d="M 7.203125 -17.46875 L 7.203125 -13.078125 L 14.28125 -13.078125 L 14.28125 -9 L 7.203125 -9 L 7.203125 -4.234375 L 15.21875 -4.234375 L 15.21875 0 L 1.921875 0 L 1.921875 -21.703125 L 15.21875 -21.703125 L 15.21875 -17.46875 Z M 7.203125 -17.46875 "/></g></g></g><g fill="#404040" fill-opacity="1"><g transform="translate(183.369764, 71.111871)"><g/></g></g><g fill="#404040" fill-opacity="1"><g transform="translate(189.923046, 71.111871)"><g><path d="M 17.53125 -21.703125 L 17.53125 -17.46875 L 11.78125 -17.46875 L 11.78125 0 L 6.5 0 L 6.5 -17.46875 L 0.734375 -17.46875 L 0.734375 -21.703125 Z M 17.53125 -21.703125 "/></g></g></g><g fill="#404040" fill-opacity="1"><g transform="translate(208.191872, 71.111871)"><g><path d="M 12.984375 0 L 8.46875 -8.1875 L 7.203125 -8.1875 L 7.203125 0 L 1.921875 0 L 1.921875 -21.703125 L 10.796875 -21.703125 C 12.503906 -21.703125 13.957031 -21.398438 15.15625 -20.796875 C 16.363281 -20.203125 17.265625 -19.382812 17.859375 -18.34375 C 18.460938 -17.3125 18.765625 -16.15625 18.765625 -14.875 C 18.765625 -13.425781 18.359375 -12.132812 17.546875 -11 C 16.734375 -9.875 15.535156 -9.070312 13.953125 -8.59375 L 18.953125 0 Z M 7.203125 -11.9375 L 10.484375 -11.9375 C 11.453125 -11.9375 12.175781 -12.171875 12.65625 -12.640625 C 13.144531 -13.117188 13.390625 -13.789062 13.390625 -14.65625 C 13.390625 -15.476562 13.144531 -16.125 12.65625 -16.59375 C 12.175781 -17.070312 11.453125 -17.3125 10.484375 -17.3125 L 7.203125 -17.3125 Z M 7.203125 -11.9375 "/></g></g></g><g fill="#404040" fill-opacity="1"><g transform="translate(228.346314, 71.111871)"><g><path d="M 20.53125 -21.703125 L 13.015625 -7.171875 L 13.015625 0 L 7.734375 0 L 7.734375 -7.171875 L 0.21875 -21.703125 L 6.21875 -21.703125 L 10.421875 -12.609375 L 14.59375 -21.703125 Z M 20.53125 -21.703125 "/></g></g></g></g></g><g transform="matrix(1, 0, 0, 1, 116, 468)"><g clip-path="url(#59810cfec1)"><g fill="#f2f1f4" fill-opacity="1"><g transform="translate(0.790404, 30.175529)"><g><path d="M 0.78125 -16.6875 L 0.78125 -21.328125 L 8.875 -21.328125 L 8.875 0 L 3.6875 0 L 3.6875 -16.6875 Z M 0.78125 -16.6875 "/></g></g></g><g fill="#f2f1f4" fill-opacity="1"><g transform="translate(11.776525, 30.175529)"><g><path d="M 1.3125 -10.953125 C 1.3125 -14.304688 1.957031 -16.945312 3.25 -18.875 C 4.550781 -20.800781 6.644531 -21.765625 9.53125 -21.765625 C 12.40625 -21.765625 14.488281 -20.800781 15.78125 -18.875 C 17.082031 -16.945312 17.734375 -14.304688 17.734375 -10.953125 C 17.734375 -7.566406 17.082031 -4.910156 15.78125 -2.984375 C 14.488281 -1.054688 12.40625 -0.09375 9.53125 -0.09375 C 6.644531 -0.09375 4.550781 -1.054688 3.25 -2.984375 C 1.957031 -4.910156 1.3125 -7.566406 1.3125 -10.953125 Z M 12.828125 -10.953125 C 12.828125 -12.921875 12.613281 -14.4375 12.1875 -15.5 C 11.757812 -16.5625 10.875 -17.09375 9.53125 -17.09375 C 8.1875 -17.09375 7.296875 -16.5625 6.859375 -15.5 C 6.429688 -14.4375 6.21875 -12.921875 6.21875 -10.953125 C 6.21875 -9.628906 6.296875 -8.535156 6.453125 -7.671875 C 6.609375 -6.804688 6.925781 -6.101562 7.40625 -5.5625 C 7.882812 -5.03125 8.59375 -4.765625 9.53125 -4.765625 C 10.457031 -4.765625 11.160156 -5.03125 11.640625 -5.5625 C 12.117188 -6.101562 12.4375 -6.804688 12.59375 -7.671875 C 12.75 -8.535156 12.828125 -9.628906 12.828125 -10.953125 Z M 12.828125 -10.953125 "/></g></g></g><g fill="#f2f1f4" fill-opacity="1"><g transform="translate(30.826928, 30.175529)"><g><path d="M 1.3125 -10.953125 C 1.3125 -14.304688 1.957031 -16.945312 3.25 -18.875 C 4.550781 -20.800781 6.644531 -21.765625 9.53125 -21.765625 C 12.40625 -21.765625 14.488281 -20.800781 15.78125 -18.875 C 17.082031 -16.945312 17.734375 -14.304688 17.734375 -10.953125 C 17.734375 -7.566406 17.082031 -4.910156 15.78125 -2.984375 C 14.488281 -1.054688 12.40625 -0.09375 9.53125 -0.09375 C 6.644531 -0.09375 4.550781 -1.054688 3.25 -2.984375 C 1.957031 -4.910156 1.3125 -7.566406 1.3125 -10.953125 Z M 12.828125 -10.953125 C 12.828125 -12.921875 12.613281 -14.4375 12.1875 -15.5 C 11.757812 -16.5625 10.875 -17.09375 9.53125 -17.09375 C 8.1875 -17.09375 7.296875 -16.5625 6.859375 -15.5 C 6.429688 -14.4375 6.21875 -12.921875 6.21875 -10.953125 C 6.21875 -9.628906 6.296875 -8.535156 6.453125 -7.671875 C 6.609375 -6.804688 6.925781 -6.101562 7.40625 -5.5625 C 7.882812 -5.03125 8.59375 -4.765625 9.53125 -4.765625 C 10.457031 -4.765625 11.160156 -5.03125 11.640625 -5.5625 C 12.117188 -6.101562 12.4375 -6.804688 12.59375 -7.671875 C 12.75 -8.535156 12.828125 -9.628906 12.828125 -10.953125 Z M 12.828125 -10.953125 "/></g></g></g><g fill="#f2f1f4" fill-opacity="1"><g transform="translate(49.87733, 30.175529)"><g><path d="M 1.3125 -10.953125 C 1.3125 -14.304688 1.957031 -16.945312 3.25 -18.875 C 4.550781 -20.800781 6.644531 -21.765625 9.53125 -21.765625 C 12.40625 -21.765625 14.488281 -20.800781 15.78125 -18.875 C 17.082031 -16.945312 17.734375 -14.304688 17.734375 -10.953125 C 17.734375 -7.566406 17.082031 -4.910156 15.78125 -2.984375 C 14.488281 -1.054688 12.40625 -0.09375 9.53125 -0.09375 C 6.644531 -0.09375 4.550781 -1.054688 3.25 -2.984375 C 1.957031 -4.910156 1.3125 -7.566406 1.3125 -10.953125 Z M 12.828125 -10.953125 C 12.828125 -12.921875 12.613281 -14.4375 12.1875 -15.5 C 11.757812 -16.5625 10.875 -17.09375 9.53125 -17.09375 C 8.1875 -17.09375 7.296875 -16.5625 6.859375 -15.5 C 6.429688 -14.4375 6.21875 -12.921875 6.21875 -10.953125 C 6.21875 -9.628906 6.296875 -8.535156 6.453125 -7.671875 C 6.609375 -6.804688 6.925781 -6.101562 7.40625 -5.5625 C 7.882812 -5.03125 8.59375 -4.765625 9.53125 -4.765625 C 10.457031 -4.765625 11.160156 -5.03125 11.640625 -5.5625 C 12.117188 -6.101562 12.4375 -6.804688 12.59375 -7.671875 C 12.75 -8.535156 12.828125 -9.628906 12.828125 -10.953125 Z M 12.828125 -10.953125 "/></g></g></g><g fill="#f2f1f4" fill-opacity="1"><g transform="translate(68.927733, 30.175529)"><g><path d="M 6.8125 -14 C 7.289062 -14.757812 7.957031 -15.367188 8.8125 -15.828125 C 9.675781 -16.296875 10.679688 -16.53125 11.828125 -16.53125 C 13.171875 -16.53125 14.390625 -16.191406 15.484375 -15.515625 C 16.578125 -14.835938 17.4375 -13.863281 18.0625 -12.59375 C 18.695312 -11.320312 19.015625 -9.851562 19.015625 -8.1875 C 19.015625 -6.507812 18.695312 -5.03125 18.0625 -3.75 C 17.4375 -2.476562 16.578125 -1.492188 15.484375 -0.796875 C 14.390625 -0.109375 13.171875 0.234375 11.828125 0.234375 C 10.703125 0.234375 9.703125 0 8.828125 -0.46875 C 7.960938 -0.9375 7.289062 -1.539062 6.8125 -2.28125 L 6.8125 7.765625 L 1.8125 7.765625 L 1.8125 -16.296875 L 6.8125 -16.296875 Z M 13.9375 -8.1875 C 13.9375 -9.425781 13.585938 -10.398438 12.890625 -11.109375 C 12.203125 -11.828125 11.351562 -12.1875 10.34375 -12.1875 C 9.351562 -12.1875 8.507812 -11.820312 7.8125 -11.09375 C 7.125 -10.375 6.78125 -9.394531 6.78125 -8.15625 C 6.78125 -6.90625 7.125 -5.921875 7.8125 -5.203125 C 8.507812 -4.484375 9.351562 -4.125 10.34375 -4.125 C 11.332031 -4.125 12.175781 -4.488281 12.875 -5.21875 C 13.582031 -5.945312 13.9375 -6.9375 13.9375 -8.1875 Z M 13.9375 -8.1875 "/></g></g></g><g fill="#f2f1f4" fill-opacity="1"><g transform="translate(88.767032, 30.175529)"><g><path d="M 10.90625 -4.234375 L 10.90625 0 L 8.359375 0 C 6.546875 0 5.128906 -0.441406 4.109375 -1.328125 C 3.097656 -2.210938 2.59375 -3.660156 2.59375 -5.671875 L 2.59375 -12.15625 L 0.609375 -12.15625 L 0.609375 -16.296875 L 2.59375 -16.296875 L 2.59375 -20.28125 L 7.59375 -20.28125 L 7.59375 -16.296875 L 10.875 -16.296875 L 10.875 -12.15625 L 7.59375 -12.15625 L 7.59375 -5.609375 C 7.59375 -5.117188 7.707031 -4.765625 7.9375 -4.546875 C 8.175781 -4.335938 8.566406 -4.234375 9.109375 -4.234375 Z M 10.90625 -4.234375 "/></g></g></g><g fill="#f2f1f4" fill-opacity="1"><g transform="translate(100.629704, 30.175529)"><g><path d="M 8.4375 0.234375 C 7.019531 0.234375 5.753906 -0.0078125 4.640625 -0.5 C 3.535156 -0.988281 2.660156 -1.65625 2.015625 -2.5 C 1.367188 -3.34375 1.007812 -4.289062 0.9375 -5.34375 L 5.875 -5.34375 C 5.925781 -4.78125 6.1875 -4.320312 6.65625 -3.96875 C 7.125 -3.625 7.703125 -3.453125 8.390625 -3.453125 C 9.015625 -3.453125 9.492188 -3.570312 9.828125 -3.8125 C 10.171875 -4.050781 10.34375 -4.367188 10.34375 -4.765625 C 10.34375 -5.234375 10.097656 -5.578125 9.609375 -5.796875 C 9.117188 -6.023438 8.332031 -6.273438 7.25 -6.546875 C 6.082031 -6.816406 5.109375 -7.101562 4.328125 -7.40625 C 3.546875 -7.707031 2.867188 -8.179688 2.296875 -8.828125 C 1.734375 -9.484375 1.453125 -10.367188 1.453125 -11.484375 C 1.453125 -12.421875 1.710938 -13.269531 2.234375 -14.03125 C 2.753906 -14.800781 3.515625 -15.410156 4.515625 -15.859375 C 5.515625 -16.304688 6.707031 -16.53125 8.09375 -16.53125 C 10.132812 -16.53125 11.742188 -16.023438 12.921875 -15.015625 C 14.109375 -14.003906 14.785156 -12.660156 14.953125 -10.984375 L 10.34375 -10.984375 C 10.257812 -11.546875 10.007812 -11.992188 9.59375 -12.328125 C 9.175781 -12.660156 8.628906 -12.828125 7.953125 -12.828125 C 7.367188 -12.828125 6.921875 -12.710938 6.609375 -12.484375 C 6.296875 -12.265625 6.140625 -11.960938 6.140625 -11.578125 C 6.140625 -11.109375 6.382812 -10.753906 6.875 -10.515625 C 7.375 -10.285156 8.148438 -10.050781 9.203125 -9.8125 C 10.410156 -9.5 11.394531 -9.191406 12.15625 -8.890625 C 12.914062 -8.585938 13.582031 -8.097656 14.15625 -7.421875 C 14.726562 -6.753906 15.023438 -5.859375 15.046875 -4.734375 C 15.046875 -3.773438 14.773438 -2.921875 14.234375 -2.171875 C 13.703125 -1.421875 12.9375 -0.832031 11.9375 -0.40625 C 10.9375 0.0195312 9.769531 0.234375 8.4375 0.234375 Z M 8.4375 0.234375 "/></g></g></g></g></g></svg>