<svg xmlns="http://www.w3.org/2000/svg" xmlns:xlink="http://www.w3.org/1999/xlink" width="512" zoomAndPan="magnify" viewBox="0 0 384 277.91998" height="360" preserveAspectRatio="xMidYMid meet" version="1.0"><defs><g/><clipPath id="fffa98156f"><path d="M 0.0546875 0 L 383.945312 0 L 383.945312 269.921875 L 0.0546875 269.921875 Z M 0.0546875 0 " clip-rule="nonzero"/></clipPath><clipPath id="c87dda45d0"><path d="M 0.0546875 2 L 71 2 L 71 125 L 0.0546875 125 Z M 0.0546875 2 " clip-rule="nonzero"/></clipPath><clipPath id="413099db1a"><path d="M 0.0546875 141 L 73 141 L 73 264 L 0.0546875 264 Z M 0.0546875 141 " clip-rule="nonzero"/></clipPath><clipPath id="c0368c2b73"><rect x="0" width="384" y="0" height="270"/></clipPath><clipPath id="c9b92e4767"><path d="M 80 87 L 266 87 L 266 162 L 80 162 Z M 80 87 " clip-rule="nonzero"/></clipPath><clipPath id="65ef547817"><path d="M 82.4375 82.242188 L 271.234375 116.859375 L 262.171875 166.273438 L 73.375 131.652344 Z M 82.4375 82.242188 " clip-rule="nonzero"/></clipPath><clipPath id="2db17248d8"><path d="M 82.4375 82.242188 L 271.234375 116.859375 L 262.171875 166.273438 L 73.375 131.652344 Z M 82.4375 82.242188 " clip-rule="nonzero"/></clipPath><clipPath id="7a87246f6e"><path d="M 82 89 L 264 89 L 264 160 L 82 160 Z M 82 89 " clip-rule="nonzero"/></clipPath><clipPath id="ba86542203"><path d="M 82.4375 82.242188 L 271.234375 116.859375 L 262.171875 166.273438 L 73.375 131.652344 Z M 82.4375 82.242188 " clip-rule="nonzero"/></clipPath><clipPath id="41bbba977f"><path d="M 82.4375 82.242188 L 271.234375 116.859375 L 262.171875 166.273438 L 73.375 131.652344 Z M 82.4375 82.242188 " clip-rule="nonzero"/></clipPath></defs><g clip-path="url(#fffa98156f)"><g transform="matrix(1, 0, 0, 1, 0, 0)"><g clip-path="url(#c0368c2b73)"><g clip-path="url(#c87dda45d0)"><g fill="#f6e6d9" fill-opacity="1"><g transform="translate(-2.88336, 124.699569)"><g><path d="M 41.859375 -33.59375 L 41.859375 -44.484375 C 41.859375 -45.898438 41.398438 -47.117188 40.484375 -48.140625 C 39.578125 -49.171875 38.242188 -49.6875 36.484375 -49.6875 L 32.53125 -49.6875 L 32.53125 -28.484375 L 36.671875 -28.484375 C 38.078125 -28.484375 39.289062 -28.984375 40.3125 -29.984375 C 41.34375 -30.984375 41.859375 -32.1875 41.859375 -33.59375 Z M 41.671875 -80.453125 L 41.671875 -87.40625 C 41.671875 -89.507812 41.128906 -90.984375 40.046875 -91.828125 C 38.960938 -92.679688 37.75 -93.109375 36.40625 -93.109375 L 32.53125 -93.109375 L 32.53125 -74.828125 L 36.40625 -74.828125 C 37.8125 -74.828125 39.039062 -75.207031 40.09375 -75.96875 C 41.144531 -76.726562 41.671875 -78.222656 41.671875 -80.453125 Z M 71.65625 -89.25 L 71.65625 -82.125 C 71.65625 -78.957031 70.992188 -76.023438 69.671875 -73.328125 C 68.359375 -70.628906 66.789062 -68.382812 64.96875 -66.59375 C 63.15625 -64.8125 61.488281 -63.6875 59.96875 -63.21875 C 61.019531 -62.8125 62.289062 -62.035156 63.78125 -60.890625 C 65.28125 -59.742188 66.773438 -58.25 68.265625 -56.40625 C 69.765625 -54.5625 71.015625 -52.378906 72.015625 -49.859375 C 73.015625 -47.335938 73.515625 -44.492188 73.515625 -41.328125 L 73.515625 -30.078125 C 73.515625 -25.796875 72.570312 -21.820312 70.6875 -18.15625 C 68.8125 -14.488281 66.304688 -11.289062 63.171875 -8.5625 C 60.035156 -5.84375 56.519531 -3.734375 52.625 -2.234375 C 48.726562 -0.742188 44.757812 0 40.71875 0 L 6.6875 0 C 4.457031 0 3.34375 -1.203125 3.34375 -3.609375 L 3.34375 -118.09375 C 3.34375 -120.550781 4.457031 -121.78125 6.6875 -121.78125 L 38.078125 -121.78125 C 43.171875 -121.78125 47.769531 -120.914062 51.875 -119.1875 C 55.976562 -117.457031 59.507812 -115.097656 62.46875 -112.109375 C 65.425781 -109.117188 67.695312 -105.660156 69.28125 -101.734375 C 70.863281 -97.804688 71.65625 -93.644531 71.65625 -89.25 Z M 71.65625 -89.25 "/></g></g></g></g><g fill="#f6e6d9" fill-opacity="1"><g transform="translate(70.709674, 124.699569)"><g><path d="M 74.03125 -91.1875 L 74.03125 -30.59375 C 74.03125 -25.257812 73.0625 -20.570312 71.125 -16.53125 C 69.195312 -12.488281 66.546875 -9.085938 63.171875 -6.328125 C 59.804688 -3.578125 55.96875 -1.5 51.65625 -0.09375 C 47.351562 1.3125 42.796875 2.015625 37.984375 2.015625 C 33.234375 2.015625 28.703125 1.285156 24.390625 -0.171875 C 20.085938 -1.640625 16.265625 -3.78125 12.921875 -6.59375 C 9.578125 -9.40625 6.9375 -12.816406 5 -16.828125 C 3.070312 -20.847656 2.109375 -25.4375 2.109375 -30.59375 L 2.109375 -91.1875 C 2.109375 -96.457031 3.070312 -101.113281 5 -105.15625 C 6.9375 -109.207031 9.5625 -112.609375 12.875 -115.359375 C 16.1875 -118.117188 20 -120.203125 24.3125 -121.609375 C 28.625 -123.015625 33.148438 -123.71875 37.890625 -123.71875 C 42.703125 -123.71875 47.273438 -123.023438 51.609375 -121.640625 C 55.953125 -120.265625 59.804688 -118.195312 63.171875 -115.4375 C 66.546875 -112.6875 69.195312 -109.289062 71.125 -105.25 C 73.0625 -101.207031 74.03125 -96.519531 74.03125 -91.1875 Z M 38.15625 -95.234375 C 36.457031 -95.234375 35.300781 -94.585938 34.6875 -93.296875 C 34.070312 -92.003906 33.765625 -90.65625 33.765625 -89.25 L 33.765625 -32.453125 C 33.765625 -30.984375 34.023438 -29.628906 34.546875 -28.390625 C 35.078125 -27.160156 36.222656 -26.546875 37.984375 -26.546875 C 39.804688 -26.546875 40.992188 -27.046875 41.546875 -28.046875 C 42.097656 -29.046875 42.375 -30.28125 42.375 -31.75 L 42.375 -89.25 C 42.375 -90.65625 42.097656 -92.003906 41.546875 -93.296875 C 40.992188 -94.585938 39.863281 -95.234375 38.15625 -95.234375 Z M 38.15625 -95.234375 "/></g></g></g><g fill="#f6e6d9" fill-opacity="1"><g transform="translate(146.85252, 124.699569)"><g><path d="M 71.75 0 L 46.25 0 C 45.375 0 44.640625 -0.378906 44.046875 -1.140625 C 43.460938 -1.898438 43.171875 -2.75 43.171875 -3.6875 L 43.171875 -89.328125 C 43.171875 -90.796875 42.890625 -92.144531 42.328125 -93.375 C 41.773438 -94.613281 40.648438 -95.234375 38.953125 -95.234375 C 37.253906 -95.234375 36.109375 -94.613281 35.515625 -93.375 C 34.929688 -92.144531 34.640625 -90.796875 34.640625 -89.328125 L 34.640625 -3.6875 C 34.640625 -2.695312 34.460938 -1.832031 34.109375 -1.09375 C 33.765625 -0.363281 33.003906 0 31.828125 0 L 5.359375 0 C 4.710938 0 4.15625 -0.378906 3.6875 -1.140625 C 3.21875 -1.898438 2.984375 -2.75 2.984375 -3.6875 L 2.984375 -91.1875 C 2.984375 -95.695312 3.953125 -99.929688 5.890625 -103.890625 C 7.828125 -107.847656 10.460938 -111.320312 13.796875 -114.3125 C 17.140625 -117.300781 20.96875 -119.628906 25.28125 -121.296875 C 29.59375 -122.960938 34.117188 -123.796875 38.859375 -123.796875 C 43.609375 -123.796875 48.148438 -122.960938 52.484375 -121.296875 C 56.828125 -119.628906 60.671875 -117.300781 64.015625 -114.3125 C 67.359375 -111.320312 69.992188 -107.847656 71.921875 -103.890625 C 73.859375 -99.929688 74.828125 -95.695312 74.828125 -91.1875 L 74.828125 -3.6875 C 74.828125 -2.75 74.5625 -1.898438 74.03125 -1.140625 C 73.507812 -0.378906 72.75 0 71.75 0 Z M 71.75 0 "/></g></g></g><g fill="#f6e6d9" fill-opacity="1"><g transform="translate(224.665954, 124.699569)"><g><path d="M 43.171875 -32.453125 L 43.171875 -118.09375 C 43.171875 -119.082031 43.460938 -119.941406 44.046875 -120.671875 C 44.640625 -121.410156 45.375 -121.78125 46.25 -121.78125 L 71.75 -121.78125 C 72.75 -121.78125 73.507812 -121.398438 74.03125 -120.640625 C 74.5625 -119.878906 74.828125 -119.03125 74.828125 -118.09375 L 74.828125 -30.59375 C 74.828125 -26.082031 73.859375 -21.847656 71.921875 -17.890625 C 69.992188 -13.929688 67.359375 -10.457031 64.015625 -7.46875 C 60.671875 -4.476562 56.828125 -2.148438 52.484375 -0.484375 C 48.148438 1.179688 43.609375 2.015625 38.859375 2.015625 C 34.117188 2.015625 29.59375 1.179688 25.28125 -0.484375 C 20.96875 -2.148438 17.140625 -4.476562 13.796875 -7.46875 C 10.460938 -10.457031 7.828125 -13.929688 5.890625 -17.890625 C 3.953125 -21.847656 2.984375 -26.082031 2.984375 -30.59375 L 2.984375 -118.09375 C 2.984375 -119.03125 3.21875 -119.878906 3.6875 -120.640625 C 4.15625 -121.398438 4.710938 -121.78125 5.359375 -121.78125 L 31.828125 -121.78125 C 33.003906 -121.78125 33.765625 -121.410156 34.109375 -120.671875 C 34.460938 -119.941406 34.640625 -119.082031 34.640625 -118.09375 L 34.640625 -32.453125 C 34.640625 -30.984375 34.929688 -29.628906 35.515625 -28.390625 C 36.109375 -27.160156 37.253906 -26.546875 38.953125 -26.546875 C 40.648438 -26.546875 41.773438 -27.160156 42.328125 -28.390625 C 42.890625 -29.628906 43.171875 -30.984375 43.171875 -32.453125 Z M 43.171875 -32.453125 "/></g></g></g><g fill="#f6e6d9" fill-opacity="1"><g transform="translate(302.479376, 124.699569)"><g><path d="M 40.1875 -76.59375 C 44.164062 -73.71875 47.988281 -70.753906 51.65625 -67.703125 C 55.320312 -64.660156 58.578125 -61.347656 61.421875 -57.765625 C 64.265625 -54.191406 66.503906 -50.175781 68.140625 -45.71875 C 69.785156 -41.269531 70.609375 -36.226562 70.609375 -30.59375 C 70.609375 -26.144531 69.785156 -21.941406 68.140625 -17.984375 C 66.503906 -14.023438 64.160156 -10.550781 61.109375 -7.5625 C 58.054688 -4.570312 54.375 -2.226562 50.0625 -0.53125 C 45.757812 1.164062 40.910156 2.015625 35.515625 2.015625 C 29.191406 2.015625 23.832031 1.019531 19.4375 -0.96875 C 15.039062 -2.957031 11.492188 -5.609375 8.796875 -8.921875 C 6.097656 -12.234375 4.132812 -15.851562 2.90625 -19.78125 C 1.675781 -23.707031 1.0625 -27.609375 1.0625 -31.484375 L 1.0625 -36.234375 C 1.0625 -38.109375 1.265625 -39.394531 1.671875 -40.09375 C 2.078125 -40.800781 2.984375 -41.15625 4.390625 -41.15625 L 27.265625 -41.15625 C 28.785156 -41.15625 29.734375 -40.875 30.109375 -40.3125 C 30.492188 -39.757812 30.6875 -38.691406 30.6875 -37.109375 L 30.6875 -33.328125 C 30.6875 -30.691406 31.179688 -28.898438 32.171875 -27.953125 C 33.171875 -27.015625 34.40625 -26.546875 35.875 -26.546875 C 37.21875 -26.546875 38.34375 -27.015625 39.25 -27.953125 C 40.164062 -28.898438 40.625 -30.367188 40.625 -32.359375 C 40.625 -34.941406 39.6875 -37.253906 37.8125 -39.296875 C 35.9375 -41.347656 33.148438 -43.84375 29.453125 -46.78125 C 25.117188 -50.289062 21.351562 -53.378906 18.15625 -56.046875 C 14.957031 -58.722656 12.257812 -61.234375 10.0625 -63.578125 C 7.863281 -65.921875 6.101562 -68.363281 4.78125 -70.90625 C 3.46875 -73.457031 2.519531 -76.316406 1.9375 -79.484375 C 1.351562 -82.648438 1.0625 -86.429688 1.0625 -90.828125 C 1.0625 -96.222656 2.054688 -100.972656 4.046875 -105.078125 C 6.035156 -109.179688 8.671875 -112.609375 11.953125 -115.359375 C 15.234375 -118.117188 18.851562 -120.203125 22.8125 -121.609375 C 26.769531 -123.015625 30.710938 -123.71875 34.640625 -123.71875 C 41.148438 -123.71875 46.96875 -122.351562 52.09375 -119.625 C 57.226562 -116.894531 61.273438 -112.9375 64.234375 -107.75 C 67.191406 -102.5625 68.671875 -96.273438 68.671875 -88.890625 L 68.671875 -84.0625 C 68.671875 -82.65625 68.4375 -81.703125 67.96875 -81.203125 C 67.5 -80.703125 66.414062 -80.453125 64.71875 -80.453125 L 42.296875 -80.453125 C 41.066406 -80.453125 40.289062 -80.703125 39.96875 -81.203125 C 39.644531 -81.703125 39.484375 -82.679688 39.484375 -84.140625 L 39.484375 -88.71875 C 39.484375 -93.0625 37.898438 -95.234375 34.734375 -95.234375 C 33.210938 -95.234375 32.082031 -94.734375 31.34375 -93.734375 C 30.613281 -92.734375 30.25 -91.472656 30.25 -89.953125 C 30.25 -88.191406 30.5 -86.679688 31 -85.421875 C 31.5 -84.160156 32.460938 -82.867188 33.890625 -81.546875 C 35.328125 -80.234375 37.425781 -78.582031 40.1875 -76.59375 Z M 40.1875 -76.59375 "/></g></g></g><g clip-path="url(#413099db1a)"><g fill="#f6e6d9" fill-opacity="1"><g transform="translate(-2.88336, 263.230748)"><g><path d="M 38.421875 -93.109375 L 35 -93.109375 L 35 -67.359375 L 38.515625 -67.359375 C 40.035156 -67.359375 41.289062 -67.8125 42.28125 -68.71875 C 43.28125 -69.625 43.78125 -70.78125 43.78125 -72.1875 L 43.78125 -88.1875 C 43.78125 -89.832031 43.253906 -91.0625 42.203125 -91.875 C 41.148438 -92.695312 39.890625 -93.109375 38.421875 -93.109375 Z M 71.84375 -0.09375 L 48.796875 -0.09375 C 47.503906 -0.09375 46.359375 -0.488281 45.359375 -1.28125 C 44.367188 -2.070312 43.875 -3.195312 43.875 -4.65625 L 43.875 -23.390625 C 43.875 -28.609375 43.171875 -32.753906 41.765625 -35.828125 C 40.359375 -38.910156 38.101562 -41.035156 35 -42.203125 L 35 -3.609375 C 35 -1.203125 33.914062 0 31.75 0 L 6.6875 0 C 4.457031 0 3.34375 -1.203125 3.34375 -3.609375 L 3.34375 -118.09375 C 3.34375 -120.550781 4.457031 -121.78125 6.6875 -121.78125 L 41.0625 -121.78125 C 45.863281 -121.78125 50.347656 -120.898438 54.515625 -119.140625 C 58.679688 -117.378906 62.332031 -114.945312 65.46875 -111.84375 C 68.601562 -108.738281 71.046875 -105.160156 72.796875 -101.109375 C 74.554688 -97.066406 75.4375 -92.757812 75.4375 -88.1875 L 75.4375 -74.921875 C 75.4375 -70.285156 74.46875 -66.253906 72.53125 -62.828125 C 70.601562 -59.398438 68.144531 -56.484375 65.15625 -54.078125 C 68.613281 -50.617188 71.191406 -46.117188 72.890625 -40.578125 C 74.585938 -35.035156 75.4375 -28.160156 75.4375 -19.953125 L 75.4375 -4.3125 C 75.4375 -3.425781 75.171875 -2.5 74.640625 -1.53125 C 74.117188 -0.570312 73.1875 -0.09375 71.84375 -0.09375 Z M 71.84375 -0.09375 "/></g></g></g></g><g fill="#f6e6d9" fill-opacity="1"><g transform="translate(75.105912, 263.230748)"><g><path d="M 74.03125 -91.1875 L 74.03125 -30.59375 C 74.03125 -25.257812 73.0625 -20.570312 71.125 -16.53125 C 69.195312 -12.488281 66.546875 -9.085938 63.171875 -6.328125 C 59.804688 -3.578125 55.96875 -1.5 51.65625 -0.09375 C 47.351562 1.3125 42.796875 2.015625 37.984375 2.015625 C 33.234375 2.015625 28.703125 1.285156 24.390625 -0.171875 C 20.085938 -1.640625 16.265625 -3.78125 12.921875 -6.59375 C 9.578125 -9.40625 6.9375 -12.816406 5 -16.828125 C 3.070312 -20.847656 2.109375 -25.4375 2.109375 -30.59375 L 2.109375 -91.1875 C 2.109375 -96.457031 3.070312 -101.113281 5 -105.15625 C 6.9375 -109.207031 9.5625 -112.609375 12.875 -115.359375 C 16.1875 -118.117188 20 -120.203125 24.3125 -121.609375 C 28.625 -123.015625 33.148438 -123.71875 37.890625 -123.71875 C 42.703125 -123.71875 47.273438 -123.023438 51.609375 -121.640625 C 55.953125 -120.265625 59.804688 -118.195312 63.171875 -115.4375 C 66.546875 -112.6875 69.195312 -109.289062 71.125 -105.25 C 73.0625 -101.207031 74.03125 -96.519531 74.03125 -91.1875 Z M 38.15625 -95.234375 C 36.457031 -95.234375 35.300781 -94.585938 34.6875 -93.296875 C 34.070312 -92.003906 33.765625 -90.65625 33.765625 -89.25 L 33.765625 -32.453125 C 33.765625 -30.984375 34.023438 -29.628906 34.546875 -28.390625 C 35.078125 -27.160156 36.222656 -26.546875 37.984375 -26.546875 C 39.804688 -26.546875 40.992188 -27.046875 41.546875 -28.046875 C 42.097656 -29.046875 42.375 -30.28125 42.375 -31.75 L 42.375 -89.25 C 42.375 -90.65625 42.097656 -92.003906 41.546875 -93.296875 C 40.992188 -94.585938 39.863281 -95.234375 38.15625 -95.234375 Z M 38.15625 -95.234375 "/></g></g></g><g fill="#f6e6d9" fill-opacity="1"><g transform="translate(151.248758, 263.230748)"><g><path d="M 43.171875 -32.453125 L 43.171875 -118.09375 C 43.171875 -119.082031 43.460938 -119.941406 44.046875 -120.671875 C 44.640625 -121.410156 45.375 -121.78125 46.25 -121.78125 L 71.75 -121.78125 C 72.75 -121.78125 73.507812 -121.398438 74.03125 -120.640625 C 74.5625 -119.878906 74.828125 -119.03125 74.828125 -118.09375 L 74.828125 -30.59375 C 74.828125 -26.082031 73.859375 -21.847656 71.921875 -17.890625 C 69.992188 -13.929688 67.359375 -10.457031 64.015625 -7.46875 C 60.671875 -4.476562 56.828125 -2.148438 52.484375 -0.484375 C 48.148438 1.179688 43.609375 2.015625 38.859375 2.015625 C 34.117188 2.015625 29.59375 1.179688 25.28125 -0.484375 C 20.96875 -2.148438 17.140625 -4.476562 13.796875 -7.46875 C 10.460938 -10.457031 7.828125 -13.929688 5.890625 -17.890625 C 3.953125 -21.847656 2.984375 -26.082031 2.984375 -30.59375 L 2.984375 -118.09375 C 2.984375 -119.03125 3.21875 -119.878906 3.6875 -120.640625 C 4.15625 -121.398438 4.710938 -121.78125 5.359375 -121.78125 L 31.828125 -121.78125 C 33.003906 -121.78125 33.765625 -121.410156 34.109375 -120.671875 C 34.460938 -119.941406 34.640625 -119.082031 34.640625 -118.09375 L 34.640625 -32.453125 C 34.640625 -30.984375 34.929688 -29.628906 35.515625 -28.390625 C 36.109375 -27.160156 37.253906 -26.546875 38.953125 -26.546875 C 40.648438 -26.546875 41.773438 -27.160156 42.328125 -28.390625 C 42.890625 -29.628906 43.171875 -30.984375 43.171875 -32.453125 Z M 43.171875 -32.453125 "/></g></g></g><g fill="#f6e6d9" fill-opacity="1"><g transform="translate(229.06218, 263.230748)"><g><path d="M 71.75 0 L 46.25 0 C 45.375 0 44.640625 -0.378906 44.046875 -1.140625 C 43.460938 -1.898438 43.171875 -2.75 43.171875 -3.6875 L 43.171875 -89.328125 C 43.171875 -90.796875 42.890625 -92.144531 42.328125 -93.375 C 41.773438 -94.613281 40.648438 -95.234375 38.953125 -95.234375 C 37.253906 -95.234375 36.109375 -94.613281 35.515625 -93.375 C 34.929688 -92.144531 34.640625 -90.796875 34.640625 -89.328125 L 34.640625 -3.6875 C 34.640625 -2.695312 34.460938 -1.832031 34.109375 -1.09375 C 33.765625 -0.363281 33.003906 0 31.828125 0 L 5.359375 0 C 4.710938 0 4.15625 -0.378906 3.6875 -1.140625 C 3.21875 -1.898438 2.984375 -2.75 2.984375 -3.6875 L 2.984375 -91.1875 C 2.984375 -95.695312 3.953125 -99.929688 5.890625 -103.890625 C 7.828125 -107.847656 10.460938 -111.320312 13.796875 -114.3125 C 17.140625 -117.300781 20.96875 -119.628906 25.28125 -121.296875 C 29.59375 -122.960938 34.117188 -123.796875 38.859375 -123.796875 C 43.609375 -123.796875 48.148438 -122.960938 52.484375 -121.296875 C 56.828125 -119.628906 60.671875 -117.300781 64.015625 -114.3125 C 67.359375 -111.320312 69.992188 -107.847656 71.921875 -103.890625 C 73.859375 -99.929688 74.828125 -95.695312 74.828125 -91.1875 L 74.828125 -3.6875 C 74.828125 -2.75 74.5625 -1.898438 74.03125 -1.140625 C 73.507812 -0.378906 72.75 0 71.75 0 Z M 71.75 0 "/></g></g></g><g fill="#f6e6d9" fill-opacity="1"><g transform="translate(306.875602, 263.230748)"><g><path d="M 35 -93.109375 L 35 -28.484375 L 38.78125 -28.484375 C 40.1875 -28.609375 41.34375 -29.164062 42.25 -30.15625 C 43.15625 -31.15625 43.609375 -32.359375 43.609375 -33.765625 L 43.609375 -87.578125 C 43.609375 -89.984375 43.082031 -91.503906 42.03125 -92.140625 C 40.976562 -92.785156 39.75 -93.109375 38.34375 -93.109375 Z M 3.34375 -3.609375 L 3.34375 -118.09375 C 3.34375 -120.550781 4.457031 -121.78125 6.6875 -121.78125 L 40.1875 -121.78125 C 44.988281 -121.78125 49.5 -121.101562 53.71875 -119.75 C 57.945312 -118.40625 61.671875 -116.367188 64.890625 -113.640625 C 68.117188 -110.921875 70.65625 -107.523438 72.5 -103.453125 C 74.34375 -99.378906 75.265625 -94.554688 75.265625 -88.984375 L 75.265625 -32.703125 C 75.265625 -27.140625 74.34375 -22.304688 72.5 -18.203125 C 70.65625 -14.097656 68.117188 -10.695312 64.890625 -8 C 61.671875 -5.300781 57.9375 -3.289062 53.6875 -1.96875 C 49.4375 -0.65625 44.9375 0 40.1875 0 L 6.6875 0 C 4.457031 0 3.34375 -1.203125 3.34375 -3.609375 Z M 3.34375 -3.609375 "/></g></g></g></g></g></g><g clip-path="url(#c9b92e4767)"><g clip-path="url(#65ef547817)"><g clip-path="url(#2db17248d8)"><path fill="#3b422e" d="M 168.578125 149.023438 C 147.097656 145.085938 125.609375 141.183594 104.132812 137.207031 C 95.796875 135.679688 89.082031 131.507812 84.496094 124.285156 C 77.472656 113.246094 80.492188 99.351562 91.449219 92.117188 C 97.238281 88.324219 103.605469 86.90625 110.429688 87.492188 C 111.625 87.59375 112.800781 87.808594 113.972656 88.023438 C 156.597656 95.839844 199.257812 103.664062 241.878906 111.476562 C 249.039062 112.789062 255.089844 116.09375 259.765625 121.769531 C 263.734375 126.605469 265.78125 132.113281 265.40625 138.425781 C 265.011719 145.480469 261.816406 151.160156 256.328125 155.480469 C 250.699219 159.890625 244.222656 161.679688 237.117188 161.355469 C 235.445312 161.285156 233.847656 161.03125 232.21875 160.730469 C 211.011719 156.804688 189.792969 152.914062 168.578125 149.023438 Z M 177.367188 101.527344 C 155.921875 97.597656 134.441406 93.65625 112.996094 89.726562 C 111.859375 89.515625 110.714844 89.347656 109.558594 89.25 C 103.515625 88.886719 97.835938 90.195312 92.71875 93.527344 C 88.09375 96.554688 84.796875 100.648438 83.371094 106.066406 C 81.429688 113.460938 83.226562 120.097656 88.035156 125.914062 C 92.394531 131.175781 98.109375 134.183594 104.777344 135.40625 C 147.550781 143.25 190.285156 151.085938 233.058594 158.929688 C 239.160156 160.046875 245.097656 159.492188 250.6875 156.757812 C 256.625 153.851562 260.84375 149.417969 262.730469 142.988281 C 264.503906 136.929688 263.605469 131.164062 260.351562 125.832031 C 256.101562 118.902344 249.789062 114.886719 241.878906 113.398438 C 220.371094 109.375 198.847656 105.46875 177.367188 101.527344 Z M 177.367188 101.527344 " fill-opacity="1" fill-rule="evenodd"/></g></g></g><g clip-path="url(#7a87246f6e)"><g clip-path="url(#ba86542203)"><g clip-path="url(#41bbba977f)"><path fill="#ff5757" d="M 177.367188 101.527344 C 198.882812 105.472656 220.371094 109.375 241.886719 113.359375 C 249.804688 114.8125 256.109375 118.863281 260.359375 125.792969 C 263.648438 131.132812 264.542969 136.9375 262.734375 142.949219 C 260.859375 149.339844 256.59375 153.804688 250.695312 156.71875 C 245.101562 159.453125 239.167969 160.007812 233.066406 158.890625 C 190.292969 151.046875 147.558594 143.210938 104.785156 135.367188 C 98.117188 134.144531 92.402344 131.140625 88.042969 125.875 C 83.226562 120.097656 81.429688 113.460938 83.371094 106.066406 C 84.789062 100.6875 88.085938 96.589844 92.714844 93.5625 C 97.835938 90.195312 103.515625 88.886719 109.589844 89.296875 C 110.753906 89.351562 111.890625 89.5625 113.027344 89.769531 C 134.441406 93.65625 155.921875 97.597656 177.367188 101.527344 Z M 177.367188 101.527344 " fill-opacity="1" fill-rule="evenodd"/></g></g></g><g fill="#f6e6d9" fill-opacity="1"><g transform="translate(116.603266, 126.272229)"><g><path d="M 11.015625 2.28125 C 9.222656 1.945312 7.671875 1.359375 6.359375 0.515625 C 5.046875 -0.328125 4.0625 -1.398438 3.40625 -2.703125 C 2.757812 -4.003906 2.5625 -5.46875 2.8125 -7.09375 L 9.203125 -5.921875 C 9.117188 -4.992188 9.300781 -4.238281 9.75 -3.65625 C 10.207031 -3.070312 10.863281 -2.703125 11.71875 -2.546875 C 12.613281 -2.378906 13.351562 -2.453125 13.9375 -2.765625 C 14.53125 -3.085938 14.894531 -3.613281 15.03125 -4.34375 C 15.132812 -4.945312 15.019531 -5.484375 14.6875 -5.953125 C 14.351562 -6.429688 13.910156 -6.851562 13.359375 -7.21875 C 12.816406 -7.59375 12.023438 -8.039062 10.984375 -8.5625 C 9.492188 -9.34375 8.289062 -10.066406 7.375 -10.734375 C 6.457031 -11.410156 5.722656 -12.296875 5.171875 -13.390625 C 4.617188 -14.484375 4.484375 -15.800781 4.765625 -17.34375 C 5.179688 -19.632812 6.335938 -21.273438 8.234375 -22.265625 C 10.140625 -23.253906 12.425781 -23.503906 15.09375 -23.015625 C 17.789062 -22.515625 19.847656 -21.46875 21.265625 -19.875 C 22.691406 -18.28125 23.257812 -16.3125 22.96875 -13.96875 L 16.484375 -15.171875 C 16.566406 -15.960938 16.378906 -16.632812 15.921875 -17.1875 C 15.472656 -17.738281 14.828125 -18.09375 13.984375 -18.25 C 13.265625 -18.382812 12.648438 -18.300781 12.140625 -18 C 11.628906 -17.695312 11.304688 -17.179688 11.171875 -16.453125 C 11.023438 -15.660156 11.285156 -14.972656 11.953125 -14.390625 C 12.617188 -13.816406 13.703125 -13.125 15.203125 -12.3125 C 16.679688 -11.476562 17.875 -10.726562 18.78125 -10.0625 C 19.6875 -9.394531 20.414062 -8.523438 20.96875 -7.453125 C 21.519531 -6.390625 21.660156 -5.125 21.390625 -3.65625 C 21.128906 -2.25 20.535156 -1.035156 19.609375 -0.015625 C 18.691406 0.992188 17.492188 1.710938 16.015625 2.140625 C 14.535156 2.578125 12.867188 2.625 11.015625 2.28125 Z M 11.015625 2.28125 "/></g></g></g><g fill="#f6e6d9" fill-opacity="1"><g transform="translate(138.154225, 130.22396)"><g><path d="M 23.984375 -12.84375 C 23.722656 -11.414062 23.15625 -10.171875 22.28125 -9.109375 C 21.40625 -8.054688 20.222656 -7.289062 18.734375 -6.8125 C 17.253906 -6.34375 15.507812 -6.296875 13.5 -6.671875 L 9.78125 -7.34375 L 8.15625 1.5 L 2.171875 0.390625 L 6.6875 -24.21875 L 16.390625 -22.4375 C 18.347656 -22.070312 19.941406 -21.421875 21.171875 -20.484375 C 22.410156 -19.554688 23.257812 -18.4375 23.71875 -17.125 C 24.175781 -15.820312 24.265625 -14.394531 23.984375 -12.84375 Z M 13.921875 -11.5 C 15.066406 -11.289062 15.96875 -11.40625 16.625 -11.84375 C 17.28125 -12.28125 17.695312 -12.984375 17.875 -13.953125 C 18.050781 -14.941406 17.910156 -15.753906 17.453125 -16.390625 C 16.992188 -17.035156 16.191406 -17.460938 15.046875 -17.671875 L 11.78125 -18.265625 L 10.65625 -12.09375 Z M 13.921875 -11.5 "/></g></g></g><g fill="#f6e6d9" fill-opacity="1"><g transform="translate(160.020566, 134.233521)"><g><path d="M 11.78125 -18.296875 L 10.875 -13.3125 L 18.90625 -11.84375 L 18.0625 -7.21875 L 10.03125 -8.6875 L 9.03125 -3.296875 L 18.125 -1.640625 L 17.25 3.15625 L 2.171875 0.390625 L 6.6875 -24.21875 L 21.765625 -21.453125 L 20.875 -16.640625 Z M 11.78125 -18.296875 "/></g></g></g><g fill="#f6e6d9" fill-opacity="1"><g transform="translate(178.978411, 137.70976)"><g><path d="M 11.78125 -18.296875 L 10.875 -13.3125 L 18.90625 -11.84375 L 18.0625 -7.21875 L 10.03125 -8.6875 L 9.03125 -3.296875 L 18.125 -1.640625 L 17.25 3.15625 L 2.171875 0.390625 L 6.6875 -24.21875 L 21.765625 -21.453125 L 20.875 -16.640625 Z M 11.78125 -18.296875 "/></g></g></g><g fill="#f6e6d9" fill-opacity="1"><g transform="translate(197.936255, 141.185999)"><g><path d="M 15.90625 -22.515625 C 18.5 -22.046875 20.671875 -21.113281 22.421875 -19.71875 C 24.171875 -18.332031 25.40625 -16.613281 26.125 -14.5625 C 26.84375 -12.507812 26.976562 -10.269531 26.53125 -7.84375 C 26.09375 -5.4375 25.171875 -3.394531 23.765625 -1.71875 C 22.359375 -0.0507812 20.585938 1.113281 18.453125 1.78125 C 16.316406 2.457031 13.960938 2.5625 11.390625 2.09375 L 2.171875 0.390625 L 6.6875 -24.21875 Z M 11.953125 -3.15625 C 14.222656 -2.738281 16.097656 -3.035156 17.578125 -4.046875 C 19.066406 -5.066406 20.019531 -6.707031 20.4375 -8.96875 C 20.851562 -11.226562 20.546875 -13.101562 19.515625 -14.59375 C 18.492188 -16.09375 16.847656 -17.050781 14.578125 -17.46875 L 11.734375 -17.984375 L 9.109375 -3.671875 Z M 11.953125 -3.15625 "/></g></g></g></svg>