<svg xmlns="http://www.w3.org/2000/svg" xmlns:xlink="http://www.w3.org/1999/xlink" width="492" zoomAndPan="magnify" viewBox="0 0 369 363.749991" height="485" preserveAspectRatio="xMidYMid meet" version="1.0"><defs><clipPath id="28e7ac8c1a"><path d="M 0.125 0 L 368.871094 0 L 368.871094 363.5 L 0.125 363.5 Z M 0.125 0 " clip-rule="nonzero"/></clipPath><clipPath id="5325cdcd43"><path d="M 0.125 0 L 368.871094 0 L 368.871094 363.5 L 0.125 363.5 Z M 0.125 0 " clip-rule="nonzero"/></clipPath><clipPath id="29feb4efda"><path d="M 12.867188 0 L 355.976562 0 C 363.011719 0 368.714844 5.703125 368.714844 12.742188 L 368.714844 350.757812 C 368.714844 357.792969 363.011719 363.5 355.976562 363.5 L 12.867188 363.5 C 5.832031 363.5 0.125 357.792969 0.125 350.757812 L 0.125 12.742188 C 0.125 5.703125 5.832031 0 12.867188 0 Z M 12.867188 0 " clip-rule="nonzero"/></clipPath><clipPath id="2de4c914bd"><path d="M 0.125 0 L 368.753906 0 L 368.753906 363.5 L 0.125 363.5 Z M 0.125 0 " clip-rule="nonzero"/></clipPath><clipPath id="0d0501e30b"><path d="M 12.867188 0 L 355.976562 0 C 363.011719 0 368.714844 5.703125 368.714844 12.742188 L 368.714844 350.757812 C 368.714844 357.792969 363.011719 363.5 355.976562 363.5 L 12.867188 363.5 C 5.832031 363.5 0.125 357.792969 0.125 350.757812 L 0.125 12.742188 C 0.125 5.703125 5.832031 0 12.867188 0 Z M 12.867188 0 " clip-rule="nonzero"/></clipPath><clipPath id="5f832d2b9a"><rect x="0" width="369" y="0" height="364"/></clipPath><clipPath id="f787521141"><path d="M 17.621094 16.066406 L 118.390625 16.066406 L 118.390625 116.835938 L 17.621094 116.835938 Z M 17.621094 16.066406 " clip-rule="nonzero"/></clipPath><clipPath id="a41c95df99"><path d="M 22.117188 16.066406 L 113.894531 16.066406 C 115.085938 16.066406 116.230469 16.539062 117.074219 17.382812 C 117.917969 18.226562 118.390625 19.371094 118.390625 20.5625 L 118.390625 112.339844 C 118.390625 113.53125 117.917969 114.675781 117.074219 115.519531 C 116.230469 116.363281 115.085938 116.835938 113.894531 116.835938 L 22.117188 116.835938 C 20.925781 116.835938 19.78125 116.363281 18.9375 115.519531 C 18.09375 114.675781 17.621094 113.53125 17.621094 112.339844 L 17.621094 20.5625 C 17.621094 19.371094 18.09375 18.226562 18.9375 17.382812 C 19.78125 16.539062 20.925781 16.066406 22.117188 16.066406 Z M 22.117188 16.066406 " clip-rule="nonzero"/></clipPath><clipPath id="48a6834220"><path d="M 0.621094 0.0664062 L 101.390625 0.0664062 L 101.390625 100.835938 L 0.621094 100.835938 Z M 0.621094 0.0664062 " clip-rule="nonzero"/></clipPath><clipPath id="c4c29b3293"><path d="M 5.117188 0.0664062 L 96.894531 0.0664062 C 98.085938 0.0664062 99.230469 0.539062 100.074219 1.382812 C 100.917969 2.226562 101.390625 3.371094 101.390625 4.5625 L 101.390625 96.339844 C 101.390625 97.53125 100.917969 98.675781 100.074219 99.519531 C 99.230469 100.363281 98.085938 100.835938 96.894531 100.835938 L 5.117188 100.835938 C 3.925781 100.835938 2.78125 100.363281 1.9375 99.519531 C 1.09375 98.675781 0.621094 97.53125 0.621094 96.339844 L 0.621094 4.5625 C 0.621094 3.371094 1.09375 2.226562 1.9375 1.382812 C 2.78125 0.539062 3.925781 0.0664062 5.117188 0.0664062 Z M 5.117188 0.0664062 " clip-rule="nonzero"/></clipPath><clipPath id="167093460a"><rect x="0" width="102" y="0" height="101"/></clipPath><clipPath id="d9e9a613a1"><path d="M 134.035156 16.066406 L 234.808594 16.066406 L 234.808594 116.835938 L 134.035156 116.835938 Z M 134.035156 16.066406 " clip-rule="nonzero"/></clipPath><clipPath id="9f074fd9cd"><path d="M 138.53125 16.066406 L 230.308594 16.066406 C 231.503906 16.066406 232.644531 16.539062 233.488281 17.382812 C 234.332031 18.226562 234.808594 19.371094 234.808594 20.5625 L 234.808594 112.339844 C 234.808594 113.53125 234.332031 114.675781 233.488281 115.519531 C 232.644531 116.363281 231.503906 116.835938 230.308594 116.835938 L 138.53125 116.835938 C 137.339844 116.835938 136.195312 116.363281 135.351562 115.519531 C 134.511719 114.675781 134.035156 113.53125 134.035156 112.339844 L 134.035156 20.5625 C 134.035156 19.371094 134.511719 18.226562 135.351562 17.382812 C 136.195312 16.539062 137.339844 16.066406 138.53125 16.066406 Z M 138.53125 16.066406 " clip-rule="nonzero"/></clipPath><clipPath id="1e94005c34"><path d="M 0.0351562 0.0664062 L 100.808594 0.0664062 L 100.808594 100.835938 L 0.0351562 100.835938 Z M 0.0351562 0.0664062 " clip-rule="nonzero"/></clipPath><clipPath id="2391a6c7b1"><path d="M 4.53125 0.0664062 L 96.308594 0.0664062 C 97.503906 0.0664062 98.644531 0.539062 99.488281 1.382812 C 100.332031 2.226562 100.808594 3.371094 100.808594 4.5625 L 100.808594 96.339844 C 100.808594 97.53125 100.332031 98.675781 99.488281 99.519531 C 98.644531 100.363281 97.503906 100.835938 96.308594 100.835938 L 4.53125 100.835938 C 3.339844 100.835938 2.195312 100.363281 1.351562 99.519531 C 0.511719 98.675781 0.0351562 97.53125 0.0351562 96.339844 L 0.0351562 4.5625 C 0.0351562 3.371094 0.511719 2.226562 1.351562 1.382812 C 2.195312 0.539062 3.339844 0.0664062 4.53125 0.0664062 Z M 4.53125 0.0664062 " clip-rule="nonzero"/></clipPath><clipPath id="dc394f2ef9"><rect x="0" width="101" y="0" height="101"/></clipPath><clipPath id="9faf877884"><path d="M 250.644531 16.066406 L 351.414062 16.066406 L 351.414062 116.835938 L 250.644531 116.835938 Z M 250.644531 16.066406 " clip-rule="nonzero"/></clipPath><clipPath id="9a8ca33448"><path d="M 255.140625 16.066406 L 346.917969 16.066406 C 348.113281 16.066406 349.253906 16.539062 350.097656 17.382812 C 350.941406 18.226562 351.414062 19.371094 351.414062 20.5625 L 351.414062 112.339844 C 351.414062 113.53125 350.941406 114.675781 350.097656 115.519531 C 349.253906 116.363281 348.113281 116.835938 346.917969 116.835938 L 255.140625 116.835938 C 253.949219 116.835938 252.804688 116.363281 251.960938 115.519531 C 251.117188 114.675781 250.644531 113.53125 250.644531 112.339844 L 250.644531 20.5625 C 250.644531 19.371094 251.117188 18.226562 251.960938 17.382812 C 252.804688 16.539062 253.949219 16.066406 255.140625 16.066406 Z M 255.140625 16.066406 " clip-rule="nonzero"/></clipPath><clipPath id="b3b8f2c23b"><path d="M 0.644531 0.0664062 L 101.414062 0.0664062 L 101.414062 100.835938 L 0.644531 100.835938 Z M 0.644531 0.0664062 " clip-rule="nonzero"/></clipPath><clipPath id="c158141d7b"><path d="M 5.140625 0.0664062 L 96.917969 0.0664062 C 98.113281 0.0664062 99.253906 0.539062 100.097656 1.382812 C 100.941406 2.226562 101.414062 3.371094 101.414062 4.5625 L 101.414062 96.339844 C 101.414062 97.53125 100.941406 98.675781 100.097656 99.519531 C 99.253906 100.363281 98.113281 100.835938 96.917969 100.835938 L 5.140625 100.835938 C 3.949219 100.835938 2.804688 100.363281 1.960938 99.519531 C 1.117188 98.675781 0.644531 97.53125 0.644531 96.339844 L 0.644531 4.5625 C 0.644531 3.371094 1.117188 2.226562 1.960938 1.382812 C 2.804688 0.539062 3.949219 0.0664062 5.140625 0.0664062 Z M 5.140625 0.0664062 " clip-rule="nonzero"/></clipPath><clipPath id="660020fa15"><rect x="0" width="102" y="0" height="101"/></clipPath><clipPath id="daabf54daf"><path d="M 17.621094 131.363281 L 118.390625 131.363281 L 118.390625 232.132812 L 17.621094 232.132812 Z M 17.621094 131.363281 " clip-rule="nonzero"/></clipPath><clipPath id="1c5230f2c2"><path d="M 22.117188 131.363281 L 113.894531 131.363281 C 115.085938 131.363281 116.230469 131.835938 117.074219 132.679688 C 117.917969 133.523438 118.390625 134.667969 118.390625 135.859375 L 118.390625 227.636719 C 118.390625 228.832031 117.917969 229.972656 117.074219 230.816406 C 116.230469 231.660156 115.085938 232.132812 113.894531 232.132812 L 22.117188 232.132812 C 20.925781 232.132812 19.78125 231.660156 18.9375 230.816406 C 18.09375 229.972656 17.621094 228.832031 17.621094 227.636719 L 17.621094 135.859375 C 17.621094 134.667969 18.09375 133.523438 18.9375 132.679688 C 19.78125 131.835938 20.925781 131.363281 22.117188 131.363281 Z M 22.117188 131.363281 " clip-rule="nonzero"/></clipPath><clipPath id="d53763aba7"><path d="M 0.621094 0.363281 L 101.390625 0.363281 L 101.390625 101.132812 L 0.621094 101.132812 Z M 0.621094 0.363281 " clip-rule="nonzero"/></clipPath><clipPath id="059afc2aa0"><path d="M 5.117188 0.363281 L 96.894531 0.363281 C 98.085938 0.363281 99.230469 0.835938 100.074219 1.679688 C 100.917969 2.523438 101.390625 3.667969 101.390625 4.859375 L 101.390625 96.636719 C 101.390625 97.832031 100.917969 98.972656 100.074219 99.816406 C 99.230469 100.660156 98.085938 101.132812 96.894531 101.132812 L 5.117188 101.132812 C 3.925781 101.132812 2.78125 100.660156 1.9375 99.816406 C 1.09375 98.972656 0.621094 97.832031 0.621094 96.636719 L 0.621094 4.859375 C 0.621094 3.667969 1.09375 2.523438 1.9375 1.679688 C 2.78125 0.835938 3.925781 0.363281 5.117188 0.363281 Z M 5.117188 0.363281 " clip-rule="nonzero"/></clipPath><clipPath id="aff2a31971"><rect x="0" width="102" y="0" height="102"/></clipPath><clipPath id="09296c5d30"><path d="M 17.621094 246.664062 L 118.390625 246.664062 L 118.390625 347.433594 L 17.621094 347.433594 Z M 17.621094 246.664062 " clip-rule="nonzero"/></clipPath><clipPath id="95f462abfc"><path d="M 22.117188 246.664062 L 113.894531 246.664062 C 115.085938 246.664062 116.230469 247.136719 117.074219 247.980469 C 117.917969 248.824219 118.390625 249.964844 118.390625 251.160156 L 118.390625 342.9375 C 118.390625 344.128906 117.917969 345.273438 117.074219 346.117188 C 116.230469 346.960938 115.085938 347.433594 113.894531 347.433594 L 22.117188 347.433594 C 20.925781 347.433594 19.78125 346.960938 18.9375 346.117188 C 18.09375 345.273438 17.621094 344.128906 17.621094 342.9375 L 17.621094 251.160156 C 17.621094 249.964844 18.09375 248.824219 18.9375 247.980469 C 19.78125 247.136719 20.925781 246.664062 22.117188 246.664062 Z M 22.117188 246.664062 " clip-rule="nonzero"/></clipPath><clipPath id="c1e6b872d7"><path d="M 0.621094 0.664062 L 101.390625 0.664062 L 101.390625 101.433594 L 0.621094 101.433594 Z M 0.621094 0.664062 " clip-rule="nonzero"/></clipPath><clipPath id="4b6f871127"><path d="M 5.117188 0.664062 L 96.894531 0.664062 C 98.085938 0.664062 99.230469 1.136719 100.074219 1.980469 C 100.917969 2.824219 101.390625 3.964844 101.390625 5.160156 L 101.390625 96.9375 C 101.390625 98.128906 100.917969 99.273438 100.074219 100.117188 C 99.230469 100.960938 98.085938 101.433594 96.894531 101.433594 L 5.117188 101.433594 C 3.925781 101.433594 2.78125 100.960938 1.9375 100.117188 C 1.09375 99.273438 0.621094 98.128906 0.621094 96.9375 L 0.621094 5.160156 C 0.621094 3.964844 1.09375 2.824219 1.9375 1.980469 C 2.78125 1.136719 3.925781 0.664062 5.117188 0.664062 Z M 5.117188 0.664062 " clip-rule="nonzero"/></clipPath><clipPath id="0dda8235a9"><rect x="0" width="102" y="0" height="102"/></clipPath><clipPath id="799f107230"><path d="M 134.035156 246.664062 L 234.808594 246.664062 L 234.808594 347.433594 L 134.035156 347.433594 Z M 134.035156 246.664062 " clip-rule="nonzero"/></clipPath><clipPath id="7b486135e7"><path d="M 138.53125 246.664062 L 230.308594 246.664062 C 231.503906 246.664062 232.644531 247.136719 233.488281 247.980469 C 234.332031 248.824219 234.808594 249.964844 234.808594 251.160156 L 234.808594 342.9375 C 234.808594 344.128906 234.332031 345.273438 233.488281 346.117188 C 232.644531 346.960938 231.503906 347.433594 230.308594 347.433594 L 138.53125 347.433594 C 137.339844 347.433594 136.195312 346.960938 135.351562 346.117188 C 134.511719 345.273438 134.035156 344.128906 134.035156 342.9375 L 134.035156 251.160156 C 134.035156 249.964844 134.511719 248.824219 135.351562 247.980469 C 136.195312 247.136719 137.339844 246.664062 138.53125 246.664062 Z M 138.53125 246.664062 " clip-rule="nonzero"/></clipPath><clipPath id="785a4c5c1f"><path d="M 0.0351562 0.664062 L 100.808594 0.664062 L 100.808594 101.433594 L 0.0351562 101.433594 Z M 0.0351562 0.664062 " clip-rule="nonzero"/></clipPath><clipPath id="2c343365ec"><path d="M 4.53125 0.664062 L 96.308594 0.664062 C 97.503906 0.664062 98.644531 1.136719 99.488281 1.980469 C 100.332031 2.824219 100.808594 3.964844 100.808594 5.160156 L 100.808594 96.9375 C 100.808594 98.128906 100.332031 99.273438 99.488281 100.117188 C 98.644531 100.960938 97.503906 101.433594 96.308594 101.433594 L 4.53125 101.433594 C 3.339844 101.433594 2.195312 100.960938 1.351562 100.117188 C 0.511719 99.273438 0.0351562 98.128906 0.0351562 96.9375 L 0.0351562 5.160156 C 0.0351562 3.964844 0.511719 2.824219 1.351562 1.980469 C 2.195312 1.136719 3.339844 0.664062 4.53125 0.664062 Z M 4.53125 0.664062 " clip-rule="nonzero"/></clipPath><clipPath id="3b8f58bfbd"><rect x="0" width="101" y="0" height="102"/></clipPath><clipPath id="d61cacdf96"><path d="M 250.644531 246.664062 L 351.414062 246.664062 L 351.414062 347.433594 L 250.644531 347.433594 Z M 250.644531 246.664062 " clip-rule="nonzero"/></clipPath><clipPath id="a089636183"><path d="M 255.140625 246.664062 L 346.917969 246.664062 C 348.113281 246.664062 349.253906 247.136719 350.097656 247.980469 C 350.941406 248.824219 351.414062 249.964844 351.414062 251.160156 L 351.414062 342.9375 C 351.414062 344.128906 350.941406 345.273438 350.097656 346.117188 C 349.253906 346.960938 348.113281 347.433594 346.917969 347.433594 L 255.140625 347.433594 C 253.949219 347.433594 252.804688 346.960938 251.960938 346.117188 C 251.117188 345.273438 250.644531 344.128906 250.644531 342.9375 L 250.644531 251.160156 C 250.644531 249.964844 251.117188 248.824219 251.960938 247.980469 C 252.804688 247.136719 253.949219 246.664062 255.140625 246.664062 Z M 255.140625 246.664062 " clip-rule="nonzero"/></clipPath><clipPath id="966ecf48ba"><path d="M 0.644531 0.664062 L 101.414062 0.664062 L 101.414062 101.433594 L 0.644531 101.433594 Z M 0.644531 0.664062 " clip-rule="nonzero"/></clipPath><clipPath id="7511c9f503"><path d="M 5.140625 0.664062 L 96.917969 0.664062 C 98.113281 0.664062 99.253906 1.136719 100.097656 1.980469 C 100.941406 2.824219 101.414062 3.964844 101.414062 5.160156 L 101.414062 96.9375 C 101.414062 98.128906 100.941406 99.273438 100.097656 100.117188 C 99.253906 100.960938 98.113281 101.433594 96.917969 101.433594 L 5.140625 101.433594 C 3.949219 101.433594 2.804688 100.960938 1.960938 100.117188 C 1.117188 99.273438 0.644531 98.128906 0.644531 96.9375 L 0.644531 5.160156 C 0.644531 3.964844 1.117188 2.824219 1.960938 1.980469 C 2.804688 1.136719 3.949219 0.664062 5.140625 0.664062 Z M 5.140625 0.664062 " clip-rule="nonzero"/></clipPath><clipPath id="7163d0837b"><rect x="0" width="102" y="0" height="102"/></clipPath><clipPath id="43545b9032"><path d="M 133.589844 131.363281 L 234.363281 131.363281 L 234.363281 232.132812 L 133.589844 232.132812 Z M 133.589844 131.363281 " clip-rule="nonzero"/></clipPath><clipPath id="d437bc2dae"><path d="M 138.089844 131.363281 L 229.867188 131.363281 C 231.058594 131.363281 232.203125 131.835938 233.046875 132.679688 C 233.886719 133.523438 234.363281 134.667969 234.363281 135.859375 L 234.363281 227.636719 C 234.363281 228.832031 233.886719 229.972656 233.046875 230.816406 C 232.203125 231.660156 231.058594 232.132812 229.867188 232.132812 L 138.089844 232.132812 C 136.894531 232.132812 135.753906 231.660156 134.910156 230.816406 C 134.066406 229.972656 133.589844 228.832031 133.589844 227.636719 L 133.589844 135.859375 C 133.589844 134.667969 134.066406 133.523438 134.910156 132.679688 C 135.753906 131.835938 136.894531 131.363281 138.089844 131.363281 Z M 138.089844 131.363281 " clip-rule="nonzero"/></clipPath><clipPath id="26ead81db0"><path d="M 0.589844 0.363281 L 101.363281 0.363281 L 101.363281 101.132812 L 0.589844 101.132812 Z M 0.589844 0.363281 " clip-rule="nonzero"/></clipPath><clipPath id="9afaa2160e"><path d="M 5.089844 0.363281 L 96.867188 0.363281 C 98.058594 0.363281 99.203125 0.835938 100.046875 1.679688 C 100.886719 2.523438 101.363281 3.667969 101.363281 4.859375 L 101.363281 96.636719 C 101.363281 97.832031 100.886719 98.972656 100.046875 99.816406 C 99.203125 100.660156 98.058594 101.132812 96.867188 101.132812 L 5.089844 101.132812 C 3.894531 101.132812 2.753906 100.660156 1.910156 99.816406 C 1.066406 98.972656 0.589844 97.832031 0.589844 96.636719 L 0.589844 4.859375 C 0.589844 3.667969 1.066406 2.523438 1.910156 1.679688 C 2.753906 0.835938 3.894531 0.363281 5.089844 0.363281 Z M 5.089844 0.363281 " clip-rule="nonzero"/></clipPath><clipPath id="8cf59c8cb6"><rect x="0" width="102" y="0" height="102"/></clipPath><clipPath id="5bf3b6b32b"><path d="M 250.644531 131.363281 L 351.414062 131.363281 L 351.414062 232.132812 L 250.644531 232.132812 Z M 250.644531 131.363281 " clip-rule="nonzero"/></clipPath><clipPath id="8f007eaf22"><path d="M 255.140625 131.363281 L 346.917969 131.363281 C 348.113281 131.363281 349.253906 131.835938 350.097656 132.679688 C 350.941406 133.523438 351.414062 134.667969 351.414062 135.859375 L 351.414062 227.636719 C 351.414062 228.832031 350.941406 229.972656 350.097656 230.816406 C 349.253906 231.660156 348.113281 232.132812 346.917969 232.132812 L 255.140625 232.132812 C 253.949219 232.132812 252.804688 231.660156 251.960938 230.816406 C 251.117188 229.972656 250.644531 228.832031 250.644531 227.636719 L 250.644531 135.859375 C 250.644531 134.667969 251.117188 133.523438 251.960938 132.679688 C 252.804688 131.835938 253.949219 131.363281 255.140625 131.363281 Z M 255.140625 131.363281 " clip-rule="nonzero"/></clipPath><clipPath id="0cf1cc253a"><path d="M 0.644531 0.363281 L 101.414062 0.363281 L 101.414062 101.132812 L 0.644531 101.132812 Z M 0.644531 0.363281 " clip-rule="nonzero"/></clipPath><clipPath id="2515015372"><path d="M 5.140625 0.363281 L 96.917969 0.363281 C 98.113281 0.363281 99.253906 0.835938 100.097656 1.679688 C 100.941406 2.523438 101.414062 3.667969 101.414062 4.859375 L 101.414062 96.636719 C 101.414062 97.832031 100.941406 98.972656 100.097656 99.816406 C 99.253906 100.660156 98.113281 101.132812 96.917969 101.132812 L 5.140625 101.132812 C 3.949219 101.132812 2.804688 100.660156 1.960938 99.816406 C 1.117188 98.972656 0.644531 97.832031 0.644531 96.636719 L 0.644531 4.859375 C 0.644531 3.667969 1.117188 2.523438 1.960938 1.679688 C 2.804688 0.835938 3.949219 0.363281 5.140625 0.363281 Z M 5.140625 0.363281 " clip-rule="nonzero"/></clipPath><clipPath id="af32e8baa1"><rect x="0" width="102" y="0" height="102"/></clipPath></defs><g clip-path="url(#28e7ac8c1a)"><path fill="#ffffff" d="M 0.125 0 L 368.875 0 L 368.875 363.5 L 0.125 363.5 Z M 0.125 0 " fill-opacity="0" fill-rule="nonzero"/></g><g clip-path="url(#5325cdcd43)"><g clip-path="url(#29feb4efda)"><g transform="matrix(1, 0, 0, 1, 0.000000000000000028, 0)"><g clip-path="url(#5f832d2b9a)"><g clip-path="url(#2de4c914bd)"><g clip-path="url(#0d0501e30b)"><path fill="#343434" d="M 0.125 0 L 369.304688 0 L 369.304688 363.5 L 0.125 363.5 Z M 0.125 0 " fill-opacity="1" fill-rule="nonzero"/></g></g></g></g></g></g><g clip-path="url(#f787521141)"><g clip-path="url(#a41c95df99)"><g transform="matrix(1, 0, 0, 1, 17, 16)"><g clip-path="url(#167093460a)"><g clip-path="url(#48a6834220)"><g clip-path="url(#c4c29b3293)"><path fill="#ff5757" d="M 0.621094 0.0664062 L 101.390625 0.0664062 L 101.390625 100.835938 L 0.621094 100.835938 Z M 0.621094 0.0664062 " fill-opacity="1" fill-rule="nonzero"/></g></g></g></g></g></g><g clip-path="url(#d9e9a613a1)"><g clip-path="url(#9f074fd9cd)"><g transform="matrix(1, 0, 0, 1, 134, 16)"><g clip-path="url(#dc394f2ef9)"><g clip-path="url(#1e94005c34)"><g clip-path="url(#2391a6c7b1)"><path fill="#ff5757" d="M 0.0351562 0.0664062 L 100.808594 0.0664062 L 100.808594 100.835938 L 0.0351562 100.835938 Z M 0.0351562 0.0664062 " fill-opacity="1" fill-rule="nonzero"/></g></g></g></g></g></g><g clip-path="url(#9faf877884)"><g clip-path="url(#9a8ca33448)"><g transform="matrix(1, 0, 0, 1, 250, 16)"><g clip-path="url(#660020fa15)"><g clip-path="url(#b3b8f2c23b)"><g clip-path="url(#c158141d7b)"><path fill="#ff5757" d="M 0.644531 0.0664062 L 101.414062 0.0664062 L 101.414062 100.835938 L 0.644531 100.835938 Z M 0.644531 0.0664062 " fill-opacity="1" fill-rule="nonzero"/></g></g></g></g></g></g><g clip-path="url(#daabf54daf)"><g clip-path="url(#1c5230f2c2)"><g transform="matrix(1, 0, 0, 1, 17, 131)"><g clip-path="url(#aff2a31971)"><g clip-path="url(#d53763aba7)"><g clip-path="url(#059afc2aa0)"><path fill="#ff5757" d="M 0.621094 0.363281 L 101.390625 0.363281 L 101.390625 101.132812 L 0.621094 101.132812 Z M 0.621094 0.363281 " fill-opacity="1" fill-rule="nonzero"/></g></g></g></g></g></g><g clip-path="url(#09296c5d30)"><g clip-path="url(#95f462abfc)"><g transform="matrix(1, 0, 0, 1, 17, 246)"><g clip-path="url(#0dda8235a9)"><g clip-path="url(#c1e6b872d7)"><g clip-path="url(#4b6f871127)"><path fill="#ff5757" d="M 0.621094 0.664062 L 101.390625 0.664062 L 101.390625 101.433594 L 0.621094 101.433594 Z M 0.621094 0.664062 " fill-opacity="1" fill-rule="nonzero"/></g></g></g></g></g></g><g clip-path="url(#799f107230)"><g clip-path="url(#7b486135e7)"><g transform="matrix(1, 0, 0, 1, 134, 246)"><g clip-path="url(#3b8f58bfbd)"><g clip-path="url(#785a4c5c1f)"><g clip-path="url(#2c343365ec)"><path fill="#ff5757" d="M 0.0351562 0.664062 L 100.808594 0.664062 L 100.808594 101.433594 L 0.0351562 101.433594 Z M 0.0351562 0.664062 " fill-opacity="1" fill-rule="nonzero"/></g></g></g></g></g></g><g clip-path="url(#d61cacdf96)"><g clip-path="url(#a089636183)"><g transform="matrix(1, 0, 0, 1, 250, 246)"><g clip-path="url(#7163d0837b)"><g clip-path="url(#966ecf48ba)"><g clip-path="url(#7511c9f503)"><path fill="#ff5757" d="M 0.644531 0.664062 L 101.414062 0.664062 L 101.414062 101.433594 L 0.644531 101.433594 Z M 0.644531 0.664062 " fill-opacity="1" fill-rule="nonzero"/></g></g></g></g></g></g><g clip-path="url(#43545b9032)"><g clip-path="url(#d437bc2dae)"><g transform="matrix(1, 0, 0, 1, 133, 131)"><g clip-path="url(#8cf59c8cb6)"><g clip-path="url(#26ead81db0)"><g clip-path="url(#9afaa2160e)"><path fill="#ff5757" d="M 0.589844 0.363281 L 101.363281 0.363281 L 101.363281 101.132812 L 0.589844 101.132812 Z M 0.589844 0.363281 " fill-opacity="1" fill-rule="nonzero"/></g></g></g></g></g></g><g clip-path="url(#5bf3b6b32b)"><g clip-path="url(#8f007eaf22)"><g transform="matrix(1, 0, 0, 1, 250, 131)"><g clip-path="url(#af32e8baa1)"><g clip-path="url(#0cf1cc253a)"><g clip-path="url(#2515015372)"><path fill="#ff5757" d="M 0.644531 0.363281 L 101.414062 0.363281 L 101.414062 101.132812 L 0.644531 101.132812 Z M 0.644531 0.363281 " fill-opacity="1" fill-rule="nonzero"/></g></g></g></g></g></g></svg>