<svg xmlns="http://www.w3.org/2000/svg" xmlns:xlink="http://www.w3.org/1999/xlink" width="512" zoomAndPan="magnify" viewBox="0 0 384 269.999989" height="360" preserveAspectRatio="xMidYMid meet" version="1.0"><defs><g/><clipPath id="a96fc664c5"><rect x="0" width="384" y="0" height="270"/></clipPath><clipPath id="edbcc4144d"><path d="M 80 87 L 266 87 L 266 162 L 80 162 Z M 80 87 " clip-rule="nonzero"/></clipPath><clipPath id="4ba60c9fbf"><path d="M 82.40625 82.265625 L 271.199219 116.882812 L 262.171875 166.097656 L 73.378906 131.480469 Z M 82.40625 82.265625 " clip-rule="nonzero"/></clipPath><clipPath id="54f0cac082"><path d="M 82.40625 82.265625 L 271.199219 116.882812 L 262.171875 166.097656 L 73.378906 131.480469 Z M 82.40625 82.265625 " clip-rule="nonzero"/></clipPath><clipPath id="88e5928d6d"><path d="M 82 89 L 264 89 L 264 160 L 82 160 Z M 82 89 " clip-rule="nonzero"/></clipPath><clipPath id="b37b25bb7e"><path d="M 82.40625 82.265625 L 271.199219 116.882812 L 262.171875 166.097656 L 73.378906 131.480469 Z M 82.40625 82.265625 " clip-rule="nonzero"/></clipPath><clipPath id="db94ecd504"><path d="M 82.40625 82.265625 L 271.199219 116.882812 L 262.171875 166.097656 L 73.378906 131.480469 Z M 82.40625 82.265625 " clip-rule="nonzero"/></clipPath><clipPath id="80bb86ad21"><rect x="0" width="117" y="0" height="70"/></clipPath><clipPath id="a536ce6550"><rect x="0" width="384" y="0" height="270"/></clipPath></defs><g transform="matrix(1, 0, 0, 1, 0, 0)"><g clip-path="url(#a536ce6550)"><g transform="matrix(1, 0, 0, 1, 0, 0)"><g clip-path="url(#a96fc664c5)"><g fill="#343434" fill-opacity="1"><g transform="translate(-2.939464, 124.735484)"><g><path d="M 41.859375 -33.59375 L 41.859375 -44.5 C 41.859375 -45.90625 41.40625 -47.117188 40.5 -48.140625 C 39.59375 -49.171875 38.257812 -49.6875 36.5 -49.6875 L 32.546875 -49.6875 L 32.546875 -28.5 L 36.671875 -28.5 C 38.078125 -28.5 39.289062 -28.992188 40.3125 -29.984375 C 41.34375 -30.984375 41.859375 -32.1875 41.859375 -33.59375 Z M 41.6875 -80.46875 L 41.6875 -87.421875 C 41.6875 -89.535156 41.144531 -91.015625 40.0625 -91.859375 C 38.976562 -92.710938 37.757812 -93.140625 36.40625 -93.140625 L 32.546875 -93.140625 L 32.546875 -74.84375 L 36.40625 -74.84375 C 37.8125 -74.84375 39.039062 -75.222656 40.09375 -75.984375 C 41.15625 -76.753906 41.6875 -78.25 41.6875 -80.46875 Z M 71.6875 -89.265625 L 71.6875 -82.140625 C 71.6875 -78.972656 71.023438 -76.039062 69.703125 -73.34375 C 68.378906 -70.65625 66.804688 -68.414062 64.984375 -66.625 C 63.171875 -64.832031 61.503906 -63.703125 59.984375 -63.234375 C 61.035156 -62.828125 62.304688 -62.050781 63.796875 -60.90625 C 65.296875 -59.757812 66.789062 -58.265625 68.28125 -56.421875 C 69.78125 -54.578125 71.03125 -52.394531 72.03125 -49.875 C 73.03125 -47.351562 73.53125 -44.507812 73.53125 -41.34375 L 73.53125 -30.078125 C 73.53125 -25.796875 72.59375 -21.820312 70.71875 -18.15625 C 68.84375 -14.5 66.332031 -11.304688 63.1875 -8.578125 C 60.050781 -5.847656 56.535156 -3.734375 52.640625 -2.234375 C 48.742188 -0.742188 44.769531 0 40.71875 0 L 6.6875 0 C 4.457031 0 3.34375 -1.203125 3.34375 -3.609375 L 3.34375 -118.125 C 3.34375 -120.582031 4.457031 -121.8125 6.6875 -121.8125 L 38.078125 -121.8125 C 43.179688 -121.8125 47.785156 -120.945312 51.890625 -119.21875 C 55.992188 -117.488281 59.523438 -115.128906 62.484375 -112.140625 C 65.453125 -109.148438 67.726562 -105.691406 69.3125 -101.765625 C 70.894531 -97.835938 71.6875 -93.671875 71.6875 -89.265625 Z M 71.6875 -89.265625 "/></g></g></g><g fill="#343434" fill-opacity="1"><g transform="translate(70.674764, 124.735484)"><g><path d="M 74.0625 -91.203125 L 74.0625 -30.609375 C 74.0625 -25.273438 73.09375 -20.582031 71.15625 -16.53125 C 69.21875 -12.488281 66.5625 -9.085938 63.1875 -6.328125 C 59.820312 -3.578125 55.984375 -1.5 51.671875 -0.09375 C 47.359375 1.3125 42.800781 2.015625 38 2.015625 C 33.25 2.015625 28.71875 1.285156 24.40625 -0.171875 C 20.09375 -1.640625 16.265625 -3.78125 12.921875 -6.59375 C 9.585938 -9.40625 6.953125 -12.820312 5.015625 -16.84375 C 3.078125 -20.863281 2.109375 -25.453125 2.109375 -30.609375 L 2.109375 -91.203125 C 2.109375 -96.484375 3.078125 -101.144531 5.015625 -105.1875 C 6.953125 -109.238281 9.578125 -112.640625 12.890625 -115.390625 C 16.203125 -118.148438 20.007812 -120.234375 24.3125 -121.640625 C 28.625 -123.046875 33.15625 -123.75 37.90625 -123.75 C 42.71875 -123.75 47.289062 -123.054688 51.625 -121.671875 C 55.96875 -120.296875 59.820312 -118.226562 63.1875 -115.46875 C 66.5625 -112.71875 69.21875 -109.316406 71.15625 -105.265625 C 73.09375 -101.222656 74.0625 -96.535156 74.0625 -91.203125 Z M 38.171875 -95.25 C 36.472656 -95.25 35.316406 -94.601562 34.703125 -93.3125 C 34.085938 -92.019531 33.78125 -90.671875 33.78125 -89.265625 L 33.78125 -32.453125 C 33.78125 -30.984375 34.039062 -29.632812 34.5625 -28.40625 C 35.09375 -27.175781 36.238281 -26.5625 38 -26.5625 C 39.8125 -26.5625 40.992188 -27.054688 41.546875 -28.046875 C 42.109375 -29.046875 42.390625 -30.28125 42.390625 -31.75 L 42.390625 -89.265625 C 42.390625 -90.671875 42.109375 -92.019531 41.546875 -93.3125 C 40.992188 -94.601562 39.867188 -95.25 38.171875 -95.25 Z M 38.171875 -95.25 "/></g></g></g><g fill="#343434" fill-opacity="1"><g transform="translate(146.839537, 124.735484)"><g><path d="M 71.765625 0 L 46.265625 0 C 45.378906 0 44.644531 -0.378906 44.0625 -1.140625 C 43.476562 -1.898438 43.1875 -2.75 43.1875 -3.6875 L 43.1875 -89.359375 C 43.1875 -90.828125 42.90625 -92.175781 42.34375 -93.40625 C 41.789062 -94.632812 40.664062 -95.25 38.96875 -95.25 C 37.257812 -95.25 36.113281 -94.632812 35.53125 -93.40625 C 34.945312 -92.175781 34.65625 -90.828125 34.65625 -89.359375 L 34.65625 -3.6875 C 34.65625 -2.695312 34.476562 -1.832031 34.125 -1.09375 C 33.769531 -0.363281 33.007812 0 31.84375 0 L 5.359375 0 C 4.710938 0 4.15625 -0.378906 3.6875 -1.140625 C 3.21875 -1.898438 2.984375 -2.75 2.984375 -3.6875 L 2.984375 -91.203125 C 2.984375 -95.722656 3.953125 -99.960938 5.890625 -103.921875 C 7.828125 -107.878906 10.46875 -111.351562 13.8125 -114.34375 C 17.15625 -117.332031 20.976562 -119.660156 25.28125 -121.328125 C 29.59375 -123.003906 34.125 -123.84375 38.875 -123.84375 C 43.625 -123.84375 48.164062 -123.003906 52.5 -121.328125 C 56.84375 -119.660156 60.6875 -117.332031 64.03125 -114.34375 C 67.375 -111.351562 70.007812 -107.878906 71.9375 -103.921875 C 73.875 -99.960938 74.84375 -95.722656 74.84375 -91.203125 L 74.84375 -3.6875 C 74.84375 -2.75 74.578125 -1.898438 74.046875 -1.140625 C 73.523438 -0.378906 72.765625 0 71.765625 0 Z M 71.765625 0 "/></g></g></g><g fill="#343434" fill-opacity="1"><g transform="translate(224.67538, 124.735484)"><g><path d="M 43.1875 -32.453125 L 43.1875 -118.125 C 43.1875 -119.113281 43.476562 -119.972656 44.0625 -120.703125 C 44.644531 -121.441406 45.378906 -121.8125 46.265625 -121.8125 L 71.765625 -121.8125 C 72.765625 -121.8125 73.523438 -121.429688 74.046875 -120.671875 C 74.578125 -119.910156 74.84375 -119.0625 74.84375 -118.125 L 74.84375 -30.609375 C 74.84375 -26.085938 73.875 -21.847656 71.9375 -17.890625 C 70.007812 -13.941406 67.375 -10.46875 64.03125 -7.46875 C 60.6875 -4.476562 56.84375 -2.148438 52.5 -0.484375 C 48.164062 1.179688 43.625 2.015625 38.875 2.015625 C 34.125 2.015625 29.59375 1.179688 25.28125 -0.484375 C 20.976562 -2.148438 17.15625 -4.476562 13.8125 -7.46875 C 10.46875 -10.46875 7.828125 -13.941406 5.890625 -17.890625 C 3.953125 -21.847656 2.984375 -26.085938 2.984375 -30.609375 L 2.984375 -118.125 C 2.984375 -119.0625 3.21875 -119.910156 3.6875 -120.671875 C 4.15625 -121.429688 4.710938 -121.8125 5.359375 -121.8125 L 31.84375 -121.8125 C 33.007812 -121.8125 33.769531 -121.441406 34.125 -120.703125 C 34.476562 -119.972656 34.65625 -119.113281 34.65625 -118.125 L 34.65625 -32.453125 C 34.65625 -30.984375 34.945312 -29.632812 35.53125 -28.40625 C 36.113281 -27.175781 37.257812 -26.5625 38.96875 -26.5625 C 40.664062 -26.5625 41.789062 -27.175781 42.34375 -28.40625 C 42.90625 -29.632812 43.1875 -30.984375 43.1875 -32.453125 Z M 43.1875 -32.453125 "/></g></g></g><g fill="#343434" fill-opacity="1"><g transform="translate(302.511211, 124.735484)"><g><path d="M 40.1875 -76.609375 C 44.175781 -73.734375 48.003906 -70.769531 51.671875 -67.71875 C 55.335938 -64.675781 58.59375 -61.363281 61.4375 -57.78125 C 64.28125 -54.207031 66.519531 -50.191406 68.15625 -45.734375 C 69.800781 -41.273438 70.625 -36.234375 70.625 -30.609375 C 70.625 -26.148438 69.800781 -21.941406 68.15625 -17.984375 C 66.519531 -14.023438 64.175781 -10.550781 61.125 -7.5625 C 58.070312 -4.570312 54.390625 -2.226562 50.078125 -0.53125 C 45.773438 1.164062 40.925781 2.015625 35.53125 2.015625 C 29.195312 2.015625 23.832031 1.019531 19.4375 -0.96875 C 15.039062 -2.957031 11.492188 -5.609375 8.796875 -8.921875 C 6.097656 -12.234375 4.132812 -15.851562 2.90625 -19.78125 C 1.675781 -23.71875 1.0625 -27.617188 1.0625 -31.484375 L 1.0625 -36.234375 C 1.0625 -38.109375 1.265625 -39.394531 1.671875 -40.09375 C 2.078125 -40.800781 2.984375 -41.15625 4.390625 -41.15625 L 27.265625 -41.15625 C 28.785156 -41.15625 29.734375 -40.875 30.109375 -40.3125 C 30.492188 -39.757812 30.6875 -38.691406 30.6875 -37.109375 L 30.6875 -33.328125 C 30.6875 -30.691406 31.1875 -28.90625 32.1875 -27.96875 C 33.1875 -27.03125 34.421875 -26.5625 35.890625 -26.5625 C 37.234375 -26.5625 38.359375 -27.03125 39.265625 -27.96875 C 40.179688 -28.90625 40.640625 -30.367188 40.640625 -32.359375 C 40.640625 -34.941406 39.695312 -37.257812 37.8125 -39.3125 C 35.9375 -41.363281 33.15625 -43.859375 29.46875 -46.796875 C 25.125 -50.304688 21.351562 -53.394531 18.15625 -56.0625 C 14.96875 -58.738281 12.269531 -61.25 10.0625 -63.59375 C 7.863281 -65.9375 6.101562 -68.382812 4.78125 -70.9375 C 3.46875 -73.488281 2.519531 -76.34375 1.9375 -79.5 C 1.351562 -82.664062 1.0625 -86.453125 1.0625 -90.859375 C 1.0625 -96.253906 2.054688 -101.003906 4.046875 -105.109375 C 6.035156 -109.210938 8.671875 -112.640625 11.953125 -115.390625 C 15.242188 -118.148438 18.867188 -120.234375 22.828125 -121.640625 C 26.785156 -123.046875 30.726562 -123.75 34.65625 -123.75 C 41.164062 -123.75 46.984375 -122.382812 52.109375 -119.65625 C 57.242188 -116.925781 61.289062 -112.96875 64.25 -107.78125 C 67.207031 -102.59375 68.6875 -96.304688 68.6875 -88.921875 L 68.6875 -84.078125 C 68.6875 -82.671875 68.453125 -81.71875 67.984375 -81.21875 C 67.515625 -80.71875 66.429688 -80.46875 64.734375 -80.46875 L 42.3125 -80.46875 C 41.070312 -80.46875 40.289062 -80.71875 39.96875 -81.21875 C 39.644531 -81.71875 39.484375 -82.703125 39.484375 -84.171875 L 39.484375 -88.75 C 39.484375 -93.082031 37.898438 -95.25 34.734375 -95.25 C 33.210938 -95.25 32.082031 -94.75 31.34375 -93.75 C 30.613281 -92.757812 30.25 -91.5 30.25 -89.96875 C 30.25 -88.21875 30.5 -86.707031 31 -85.4375 C 31.5 -84.175781 32.46875 -82.882812 33.90625 -81.5625 C 35.34375 -80.25 37.4375 -78.597656 40.1875 -76.609375 Z M 40.1875 -76.609375 "/></g></g></g><g fill="#343434" fill-opacity="1"><g transform="translate(-2.939464, 263.306558)"><g><path d="M 38.4375 -93.140625 L 35 -93.140625 L 35 -67.375 L 38.515625 -67.375 C 40.046875 -67.375 41.304688 -67.828125 42.296875 -68.734375 C 43.296875 -69.640625 43.796875 -70.796875 43.796875 -72.203125 L 43.796875 -88.21875 C 43.796875 -89.851562 43.269531 -91.082031 42.21875 -91.90625 C 41.164062 -92.726562 39.90625 -93.140625 38.4375 -93.140625 Z M 71.859375 -0.09375 L 48.8125 -0.09375 C 47.519531 -0.09375 46.375 -0.488281 45.375 -1.28125 C 44.382812 -2.070312 43.890625 -3.195312 43.890625 -4.65625 L 43.890625 -23.390625 C 43.890625 -28.609375 43.1875 -32.753906 41.78125 -35.828125 C 40.375 -38.910156 38.113281 -41.039062 35 -42.21875 L 35 -3.609375 C 35 -1.203125 33.914062 0 31.75 0 L 6.6875 0 C 4.457031 0 3.34375 -1.203125 3.34375 -3.609375 L 3.34375 -118.125 C 3.34375 -120.582031 4.457031 -121.8125 6.6875 -121.8125 L 41.078125 -121.8125 C 45.878906 -121.8125 50.363281 -120.929688 54.53125 -119.171875 C 58.695312 -117.410156 62.347656 -114.976562 65.484375 -111.875 C 68.617188 -108.769531 71.066406 -105.191406 72.828125 -101.140625 C 74.585938 -97.097656 75.46875 -92.789062 75.46875 -88.21875 L 75.46875 -74.9375 C 75.46875 -70.300781 74.5 -66.269531 72.5625 -62.84375 C 70.625 -59.414062 68.160156 -56.5 65.171875 -54.09375 C 68.628906 -50.632812 71.207031 -46.132812 72.90625 -40.59375 C 74.613281 -35.050781 75.46875 -28.175781 75.46875 -19.96875 L 75.46875 -4.3125 C 75.46875 -3.425781 75.203125 -2.5 74.671875 -1.53125 C 74.140625 -0.570312 73.203125 -0.09375 71.859375 -0.09375 Z M 71.859375 -0.09375 "/></g></g></g><g fill="#343434" fill-opacity="1"><g transform="translate(75.072268, 263.306558)"><g><path d="M 74.0625 -91.203125 L 74.0625 -30.609375 C 74.0625 -25.273438 73.09375 -20.582031 71.15625 -16.53125 C 69.21875 -12.488281 66.5625 -9.085938 63.1875 -6.328125 C 59.820312 -3.578125 55.984375 -1.5 51.671875 -0.09375 C 47.359375 1.3125 42.800781 2.015625 38 2.015625 C 33.25 2.015625 28.71875 1.285156 24.40625 -0.171875 C 20.09375 -1.640625 16.265625 -3.78125 12.921875 -6.59375 C 9.585938 -9.40625 6.953125 -12.820312 5.015625 -16.84375 C 3.078125 -20.863281 2.109375 -25.453125 2.109375 -30.609375 L 2.109375 -91.203125 C 2.109375 -96.484375 3.078125 -101.144531 5.015625 -105.1875 C 6.953125 -109.238281 9.578125 -112.640625 12.890625 -115.390625 C 16.203125 -118.148438 20.007812 -120.234375 24.3125 -121.640625 C 28.625 -123.046875 33.15625 -123.75 37.90625 -123.75 C 42.71875 -123.75 47.289062 -123.054688 51.625 -121.671875 C 55.96875 -120.296875 59.820312 -118.226562 63.1875 -115.46875 C 66.5625 -112.71875 69.21875 -109.316406 71.15625 -105.265625 C 73.09375 -101.222656 74.0625 -96.535156 74.0625 -91.203125 Z M 38.171875 -95.25 C 36.472656 -95.25 35.316406 -94.601562 34.703125 -93.3125 C 34.085938 -92.019531 33.78125 -90.671875 33.78125 -89.265625 L 33.78125 -32.453125 C 33.78125 -30.984375 34.039062 -29.632812 34.5625 -28.40625 C 35.09375 -27.175781 36.238281 -26.5625 38 -26.5625 C 39.8125 -26.5625 40.992188 -27.054688 41.546875 -28.046875 C 42.109375 -29.046875 42.390625 -30.28125 42.390625 -31.75 L 42.390625 -89.265625 C 42.390625 -90.671875 42.109375 -92.019531 41.546875 -93.3125 C 40.992188 -94.601562 39.867188 -95.25 38.171875 -95.25 Z M 38.171875 -95.25 "/></g></g></g><g fill="#343434" fill-opacity="1"><g transform="translate(151.237041, 263.306558)"><g><path d="M 43.1875 -32.453125 L 43.1875 -118.125 C 43.1875 -119.113281 43.476562 -119.972656 44.0625 -120.703125 C 44.644531 -121.441406 45.378906 -121.8125 46.265625 -121.8125 L 71.765625 -121.8125 C 72.765625 -121.8125 73.523438 -121.429688 74.046875 -120.671875 C 74.578125 -119.910156 74.84375 -119.0625 74.84375 -118.125 L 74.84375 -30.609375 C 74.84375 -26.085938 73.875 -21.847656 71.9375 -17.890625 C 70.007812 -13.941406 67.375 -10.46875 64.03125 -7.46875 C 60.6875 -4.476562 56.84375 -2.148438 52.5 -0.484375 C 48.164062 1.179688 43.625 2.015625 38.875 2.015625 C 34.125 2.015625 29.59375 1.179688 25.28125 -0.484375 C 20.976562 -2.148438 17.15625 -4.476562 13.8125 -7.46875 C 10.46875 -10.46875 7.828125 -13.941406 5.890625 -17.890625 C 3.953125 -21.847656 2.984375 -26.085938 2.984375 -30.609375 L 2.984375 -118.125 C 2.984375 -119.0625 3.21875 -119.910156 3.6875 -120.671875 C 4.15625 -121.429688 4.710938 -121.8125 5.359375 -121.8125 L 31.84375 -121.8125 C 33.007812 -121.8125 33.769531 -121.441406 34.125 -120.703125 C 34.476562 -119.972656 34.65625 -119.113281 34.65625 -118.125 L 34.65625 -32.453125 C 34.65625 -30.984375 34.945312 -29.632812 35.53125 -28.40625 C 36.113281 -27.175781 37.257812 -26.5625 38.96875 -26.5625 C 40.664062 -26.5625 41.789062 -27.175781 42.34375 -28.40625 C 42.90625 -29.632812 43.1875 -30.984375 43.1875 -32.453125 Z M 43.1875 -32.453125 "/></g></g></g><g fill="#343434" fill-opacity="1"><g transform="translate(229.072872, 263.306558)"><g><path d="M 71.765625 0 L 46.265625 0 C 45.378906 0 44.644531 -0.378906 44.0625 -1.140625 C 43.476562 -1.898438 43.1875 -2.75 43.1875 -3.6875 L 43.1875 -89.359375 C 43.1875 -90.828125 42.90625 -92.175781 42.34375 -93.40625 C 41.789062 -94.632812 40.664062 -95.25 38.96875 -95.25 C 37.257812 -95.25 36.113281 -94.632812 35.53125 -93.40625 C 34.945312 -92.175781 34.65625 -90.828125 34.65625 -89.359375 L 34.65625 -3.6875 C 34.65625 -2.695312 34.476562 -1.832031 34.125 -1.09375 C 33.769531 -0.363281 33.007812 0 31.84375 0 L 5.359375 0 C 4.710938 0 4.15625 -0.378906 3.6875 -1.140625 C 3.21875 -1.898438 2.984375 -2.75 2.984375 -3.6875 L 2.984375 -91.203125 C 2.984375 -95.722656 3.953125 -99.960938 5.890625 -103.921875 C 7.828125 -107.878906 10.46875 -111.351562 13.8125 -114.34375 C 17.15625 -117.332031 20.976562 -119.660156 25.28125 -121.328125 C 29.59375 -123.003906 34.125 -123.84375 38.875 -123.84375 C 43.625 -123.84375 48.164062 -123.003906 52.5 -121.328125 C 56.84375 -119.660156 60.6875 -117.332031 64.03125 -114.34375 C 67.375 -111.351562 70.007812 -107.878906 71.9375 -103.921875 C 73.875 -99.960938 74.84375 -95.722656 74.84375 -91.203125 L 74.84375 -3.6875 C 74.84375 -2.75 74.578125 -1.898438 74.046875 -1.140625 C 73.523438 -0.378906 72.765625 0 71.765625 0 Z M 71.765625 0 "/></g></g></g><g fill="#343434" fill-opacity="1"><g transform="translate(306.908703, 263.306558)"><g><path d="M 35 -93.140625 L 35 -28.5 L 38.78125 -28.5 C 40.1875 -28.613281 41.34375 -29.164062 42.25 -30.15625 C 43.164062 -31.15625 43.625 -32.363281 43.625 -33.78125 L 43.625 -87.59375 C 43.625 -90 43.09375 -91.523438 42.03125 -92.171875 C 40.976562 -92.816406 39.75 -93.140625 38.34375 -93.140625 Z M 3.34375 -3.609375 L 3.34375 -118.125 C 3.34375 -120.582031 4.457031 -121.8125 6.6875 -121.8125 L 40.1875 -121.8125 C 45 -121.8125 49.515625 -121.132812 53.734375 -119.78125 C 57.960938 -118.4375 61.6875 -116.398438 64.90625 -113.671875 C 68.132812 -110.953125 70.671875 -107.550781 72.515625 -103.46875 C 74.359375 -99.394531 75.28125 -94.570312 75.28125 -89 L 75.28125 -32.71875 C 75.28125 -27.144531 74.359375 -22.304688 72.515625 -18.203125 C 70.671875 -14.097656 68.132812 -10.695312 64.90625 -8 C 61.6875 -5.300781 57.945312 -3.289062 53.6875 -1.96875 C 49.4375 -0.65625 44.9375 0 40.1875 0 L 6.6875 0 C 4.457031 0 3.34375 -1.203125 3.34375 -3.609375 Z M 3.34375 -3.609375 "/></g></g></g></g></g><g clip-path="url(#edbcc4144d)"><g clip-path="url(#4ba60c9fbf)"><g clip-path="url(#54f0cac082)"><path fill="#f2f1f4" d="M 168.570312 149.066406 C 147.082031 145.125 125.585938 141.222656 104.105469 137.246094 C 95.769531 135.714844 89.050781 131.546875 84.460938 124.320312 C 77.4375 113.277344 80.457031 99.378906 91.421875 92.144531 C 97.207031 88.347656 103.578125 86.933594 110.40625 87.515625 C 111.601562 87.617188 112.773438 87.835938 113.949219 88.050781 C 156.582031 95.867188 199.253906 103.691406 241.890625 111.507812 C 249.050781 112.824219 255.105469 116.125 259.78125 121.800781 C 263.753906 126.644531 265.796875 132.148438 265.421875 138.464844 C 265.03125 145.523438 261.835938 151.203125 256.339844 155.523438 C 250.714844 159.9375 244.238281 161.726562 237.128906 161.402344 C 235.457031 161.332031 233.859375 161.078125 232.226562 160.777344 C 211.011719 156.847656 189.789062 152.957031 168.570312 149.066406 Z M 177.359375 101.558594 C 155.910156 97.625 134.421875 93.683594 112.972656 89.75 C 111.835938 89.542969 110.691406 89.371094 109.535156 89.277344 C 103.488281 88.914062 97.804688 90.222656 92.691406 93.550781 C 88.058594 96.582031 84.761719 100.675781 83.339844 106.097656 C 81.394531 113.496094 83.195312 120.132812 88.003906 125.949219 C 92.363281 131.214844 98.082031 134.222656 104.75 135.445312 C 147.535156 143.289062 190.28125 151.128906 233.066406 158.972656 C 239.167969 160.09375 245.109375 159.535156 250.703125 156.800781 C 256.640625 153.894531 260.863281 149.457031 262.746094 143.027344 C 264.523438 136.96875 263.621094 131.203125 260.371094 125.867188 C 256.117188 118.9375 249.804688 114.917969 241.890625 113.429688 C 220.378906 109.40625 198.847656 105.496094 177.359375 101.558594 Z M 177.359375 101.558594 " fill-opacity="1" fill-rule="evenodd"/></g></g></g><g clip-path="url(#88e5928d6d)"><g clip-path="url(#b37b25bb7e)"><g clip-path="url(#db94ecd504)"><path fill="#ff5757" d="M 177.359375 101.558594 C 198.882812 105.503906 220.378906 109.40625 241.898438 113.390625 C 249.816406 114.84375 256.125 118.898438 260.375 125.828125 C 263.667969 131.171875 264.5625 136.976562 262.753906 142.988281 C 260.875 149.382812 256.609375 153.851562 250.707031 156.761719 C 245.113281 159.496094 239.175781 160.054688 233.074219 158.933594 C 190.289062 151.089844 147.542969 143.25 104.757812 135.40625 C 98.085938 134.183594 92.371094 131.175781 88.007812 125.910156 C 83.195312 120.132812 81.394531 113.496094 83.339844 106.097656 C 84.757812 100.714844 88.054688 96.621094 92.683594 93.589844 C 97.804688 90.222656 103.488281 88.914062 109.566406 89.320312 C 110.730469 89.378906 111.867188 89.585938 113.003906 89.796875 C 134.421875 93.683594 155.910156 97.625 177.359375 101.558594 Z M 177.359375 101.558594 " fill-opacity="1" fill-rule="evenodd"/></g></g></g><g transform="matrix(1, 0, 0, 1, 114, 88)"><g clip-path="url(#80bb86ad21)"><g fill="#f2f1f4" fill-opacity="1"><g transform="translate(2.698446, 37.114103)"><g><path d="M 11.03125 2.28125 C 9.226562 1.945312 7.671875 1.359375 6.359375 0.515625 C 5.046875 -0.328125 4.0625 -1.398438 3.40625 -2.703125 C 2.757812 -4.015625 2.5625 -5.476562 2.8125 -7.09375 L 9.203125 -5.921875 C 9.117188 -4.992188 9.304688 -4.238281 9.765625 -3.65625 C 10.222656 -3.082031 10.878906 -2.71875 11.734375 -2.5625 C 12.628906 -2.394531 13.367188 -2.46875 13.953125 -2.78125 C 14.535156 -3.09375 14.894531 -3.613281 15.03125 -4.34375 C 15.132812 -4.945312 15.019531 -5.484375 14.6875 -5.953125 C 14.363281 -6.429688 13.925781 -6.851562 13.375 -7.21875 C 12.820312 -7.59375 12.023438 -8.039062 10.984375 -8.5625 C 9.492188 -9.34375 8.289062 -10.070312 7.375 -10.75 C 6.457031 -11.425781 5.722656 -12.3125 5.171875 -13.40625 C 4.617188 -14.5 4.484375 -15.8125 4.765625 -17.34375 C 5.179688 -19.644531 6.335938 -21.289062 8.234375 -22.28125 C 10.140625 -23.269531 12.425781 -23.519531 15.09375 -23.03125 C 17.800781 -22.53125 19.863281 -21.476562 21.28125 -19.875 C 22.707031 -18.28125 23.269531 -16.3125 22.96875 -13.96875 L 16.484375 -15.171875 C 16.585938 -15.972656 16.410156 -16.648438 15.953125 -17.203125 C 15.503906 -17.753906 14.859375 -18.109375 14.015625 -18.265625 C 13.285156 -18.398438 12.660156 -18.3125 12.140625 -18 C 11.628906 -17.695312 11.304688 -17.1875 11.171875 -16.46875 C 11.023438 -15.664062 11.285156 -14.972656 11.953125 -14.390625 C 12.617188 -13.816406 13.703125 -13.125 15.203125 -12.3125 C 16.679688 -11.488281 17.875 -10.738281 18.78125 -10.0625 C 19.6875 -9.394531 20.414062 -8.523438 20.96875 -7.453125 C 21.53125 -6.390625 21.675781 -5.125 21.40625 -3.65625 C 21.144531 -2.25 20.550781 -1.035156 19.625 -0.015625 C 18.707031 0.992188 17.503906 1.710938 16.015625 2.140625 C 14.535156 2.578125 12.875 2.625 11.03125 2.28125 Z M 11.03125 2.28125 "/></g></g></g><g fill="#f2f1f4" fill-opacity="1"><g transform="translate(24.257207, 41.067264)"><g><path d="M 24 -12.84375 C 23.738281 -11.414062 23.171875 -10.171875 22.296875 -9.109375 C 21.421875 -8.046875 20.238281 -7.28125 18.75 -6.8125 C 17.257812 -6.34375 15.507812 -6.296875 13.5 -6.671875 L 9.78125 -7.34375 L 8.15625 1.5 L 2.171875 0.390625 L 6.6875 -24.21875 L 16.390625 -22.4375 C 18.359375 -22.070312 19.957031 -21.425781 21.1875 -20.5 C 22.414062 -19.570312 23.257812 -18.445312 23.71875 -17.125 C 24.1875 -15.8125 24.28125 -14.382812 24 -12.84375 Z M 13.9375 -11.5 C 15.070312 -11.289062 15.96875 -11.40625 16.625 -11.84375 C 17.289062 -12.28125 17.710938 -12.988281 17.890625 -13.96875 C 18.066406 -14.957031 17.921875 -15.769531 17.453125 -16.40625 C 16.992188 -17.039062 16.195312 -17.460938 15.0625 -17.671875 L 11.78125 -18.265625 L 10.65625 -12.09375 Z M 13.9375 -11.5 "/></g></g></g><g fill="#f2f1f4" fill-opacity="1"><g transform="translate(46.131463, 45.078276)"><g><path d="M 11.78125 -18.3125 L 10.875 -13.328125 L 18.921875 -11.859375 L 18.078125 -7.234375 L 10.03125 -8.703125 L 9.03125 -3.296875 L 18.125 -1.640625 L 17.25 3.15625 L 2.171875 0.390625 L 6.6875 -24.21875 L 21.765625 -21.453125 L 20.875 -16.65625 Z M 11.78125 -18.3125 "/></g></g></g><g fill="#f2f1f4" fill-opacity="1"><g transform="translate(65.096157, 48.555771)"><g><path d="M 11.78125 -18.3125 L 10.875 -13.328125 L 18.921875 -11.859375 L 18.078125 -7.234375 L 10.03125 -8.703125 L 9.03125 -3.296875 L 18.125 -1.640625 L 17.25 3.15625 L 2.171875 0.390625 L 6.6875 -24.21875 L 21.765625 -21.453125 L 20.875 -16.65625 Z M 11.78125 -18.3125 "/></g></g></g><g fill="#f2f1f4" fill-opacity="1"><g transform="translate(84.060851, 52.033266)"><g><path d="M 15.90625 -22.515625 C 18.507812 -22.046875 20.679688 -21.117188 22.421875 -19.734375 C 24.171875 -18.347656 25.40625 -16.628906 26.125 -14.578125 C 26.851562 -12.523438 26.992188 -10.285156 26.546875 -7.859375 C 26.109375 -5.453125 25.179688 -3.410156 23.765625 -1.734375 C 22.359375 -0.0546875 20.585938 1.113281 18.453125 1.78125 C 16.316406 2.457031 13.960938 2.5625 11.390625 2.09375 L 2.171875 0.390625 L 6.6875 -24.21875 Z M 11.953125 -3.171875 C 14.222656 -2.753906 16.101562 -3.046875 17.59375 -4.046875 C 19.082031 -5.054688 20.035156 -6.695312 20.453125 -8.96875 C 20.867188 -11.226562 20.5625 -13.101562 19.53125 -14.59375 C 18.5 -16.09375 16.847656 -17.050781 14.578125 -17.46875 L 11.734375 -17.984375 L 9.109375 -3.6875 Z M 11.953125 -3.171875 "/></g></g></g></g></g></g></g></svg>