<svg xmlns="http://www.w3.org/2000/svg" xmlns:xlink="http://www.w3.org/1999/xlink" width="443" zoomAndPan="magnify" viewBox="0 0 332.25 332.999992" height="444" preserveAspectRatio="xMidYMid meet" version="1.0"><defs><clipPath id="17c81b9ede"><path d="M 0 0.375 L 331.234375 0.375 L 331.234375 332 L 0 332 Z M 0 0.375 " clip-rule="nonzero"/></clipPath><clipPath id="b2fa23b026"><path d="M 12.722656 0.375 L 318.515625 0.375 C 321.886719 0.375 325.125 1.714844 327.511719 4.101562 C 329.894531 6.488281 331.234375 9.722656 331.234375 13.097656 L 331.234375 319.246094 C 331.234375 322.621094 329.894531 325.855469 327.511719 328.242188 C 325.125 330.628906 321.886719 331.96875 318.515625 331.96875 L 12.722656 331.96875 C 9.347656 331.96875 6.113281 330.628906 3.726562 328.242188 C 1.339844 325.855469 0 322.621094 0 319.246094 L 0 13.097656 C 0 9.722656 1.339844 6.488281 3.726562 4.101562 C 6.113281 1.714844 9.347656 0.375 12.722656 0.375 Z M 12.722656 0.375 " clip-rule="nonzero"/></clipPath><clipPath id="0fbf970a6c"><path d="M 0 0.375 L 331.234375 0.375 L 331.234375 332 L 0 332 Z M 0 0.375 " clip-rule="nonzero"/></clipPath><clipPath id="1da2f8263a"><path d="M 12.722656 0.375 L 318.515625 0.375 C 321.886719 0.375 325.125 1.714844 327.511719 4.101562 C 329.894531 6.488281 331.234375 9.722656 331.234375 13.097656 L 331.234375 319.246094 C 331.234375 322.621094 329.894531 325.855469 327.511719 328.242188 C 325.125 330.628906 321.886719 331.96875 318.515625 331.96875 L 12.722656 331.96875 C 9.347656 331.96875 6.113281 330.628906 3.726562 328.242188 C 1.339844 325.855469 0 322.621094 0 319.246094 L 0 13.097656 C 0 9.722656 1.339844 6.488281 3.726562 4.101562 C 6.113281 1.714844 9.347656 0.375 12.722656 0.375 Z M 12.722656 0.375 " clip-rule="nonzero"/></clipPath><clipPath id="c33caf1329"><rect x="0" width="332" y="0" height="332"/></clipPath><clipPath id="682cc2c157"><path d="M 7.417969 7 L 107.6875 7 L 107.6875 107.222656 L 7.417969 107.222656 Z M 7.417969 7 " clip-rule="nonzero"/></clipPath><clipPath id="4f649ee595"><path d="M 16.789062 7.347656 L 98.707031 7.347656 C 101.085938 7.347656 103.371094 8.292969 105.054688 9.976562 C 106.738281 11.664062 107.6875 13.945312 107.6875 16.328125 L 107.6875 98.246094 C 107.6875 100.625 106.738281 102.910156 105.054688 104.59375 C 103.371094 106.277344 101.085938 107.222656 98.707031 107.222656 L 16.789062 107.222656 C 14.40625 107.222656 12.125 106.277344 10.441406 104.59375 C 8.753906 102.910156 7.808594 100.625 7.808594 98.246094 L 7.808594 16.328125 C 7.808594 13.945312 8.753906 11.664062 10.441406 9.976562 C 12.125 8.292969 14.40625 7.347656 16.789062 7.347656 Z M 16.789062 7.347656 " clip-rule="nonzero"/></clipPath><clipPath id="6f353ffd0d"><path d="M 0.664062 0.320312 L 100.6875 0.320312 L 100.6875 100.222656 L 0.664062 100.222656 Z M 0.664062 0.320312 " clip-rule="nonzero"/></clipPath><clipPath id="275c5127bf"><path d="M 9.789062 0.347656 L 91.707031 0.347656 C 94.085938 0.347656 96.371094 1.292969 98.054688 2.976562 C 99.738281 4.664062 100.6875 6.945312 100.6875 9.328125 L 100.6875 91.246094 C 100.6875 93.625 99.738281 95.910156 98.054688 97.59375 C 96.371094 99.277344 94.085938 100.222656 91.707031 100.222656 L 9.789062 100.222656 C 7.40625 100.222656 5.125 99.277344 3.441406 97.59375 C 1.753906 95.910156 0.808594 93.625 0.808594 91.246094 L 0.808594 9.328125 C 0.808594 6.945312 1.753906 4.664062 3.441406 2.976562 C 5.125 1.292969 7.40625 0.347656 9.789062 0.347656 Z M 9.789062 0.347656 " clip-rule="nonzero"/></clipPath><clipPath id="15ac6f2bbb"><rect x="0" width="101" y="0" height="101"/></clipPath><clipPath id="4a75187048"><path d="M 116 7 L 215.972656 7 L 215.972656 107.222656 L 116 107.222656 Z M 116 7 " clip-rule="nonzero"/></clipPath><clipPath id="b34dbd9ecb"><path d="M 125.078125 7.347656 L 206.992188 7.347656 C 209.375 7.347656 211.660156 8.292969 213.34375 9.976562 C 215.027344 11.664062 215.972656 13.945312 215.972656 16.328125 L 215.972656 98.246094 C 215.972656 100.625 215.027344 102.910156 213.34375 104.59375 C 211.660156 106.277344 209.375 107.222656 206.992188 107.222656 L 125.078125 107.222656 C 122.695312 107.222656 120.410156 106.277344 118.726562 104.59375 C 117.042969 102.910156 116.097656 100.625 116.097656 98.246094 L 116.097656 16.328125 C 116.097656 13.945312 117.042969 11.664062 118.726562 9.976562 C 120.410156 8.292969 122.695312 7.347656 125.078125 7.347656 Z M 125.078125 7.347656 " clip-rule="nonzero"/></clipPath><clipPath id="5e5ca09bfa"><path d="M 0 0.320312 L 99.972656 0.320312 L 99.972656 100.222656 L 0 100.222656 Z M 0 0.320312 " clip-rule="nonzero"/></clipPath><clipPath id="801322ef3b"><path d="M 9.078125 0.347656 L 90.992188 0.347656 C 93.375 0.347656 95.660156 1.292969 97.34375 2.976562 C 99.027344 4.664062 99.972656 6.945312 99.972656 9.328125 L 99.972656 91.246094 C 99.972656 93.625 99.027344 95.910156 97.34375 97.59375 C 95.660156 99.277344 93.375 100.222656 90.992188 100.222656 L 9.078125 100.222656 C 6.695312 100.222656 4.410156 99.277344 2.726562 97.59375 C 1.042969 95.910156 0.0976562 93.625 0.0976562 91.246094 L 0.0976562 9.328125 C 0.0976562 6.945312 1.042969 4.664062 2.726562 2.976562 C 4.410156 1.292969 6.695312 0.347656 9.078125 0.347656 Z M 9.078125 0.347656 " clip-rule="nonzero"/></clipPath><clipPath id="d94f8992a3"><rect x="0" width="100" y="0" height="101"/></clipPath><clipPath id="fd7f1f73d8"><path d="M 224 7 L 324.089844 7 L 324.089844 107.222656 L 224 107.222656 Z M 224 7 " clip-rule="nonzero"/></clipPath><clipPath id="60ea540f50"><path d="M 233.195312 7.347656 L 315.113281 7.347656 C 317.492188 7.347656 319.777344 8.292969 321.460938 9.976562 C 323.144531 11.664062 324.089844 13.945312 324.089844 16.328125 L 324.089844 98.246094 C 324.089844 100.625 323.144531 102.910156 321.460938 104.59375 C 319.777344 106.277344 317.492188 107.222656 315.113281 107.222656 L 233.195312 107.222656 C 230.8125 107.222656 228.53125 106.277344 226.84375 104.59375 C 225.160156 102.910156 224.214844 100.625 224.214844 98.246094 L 224.214844 16.328125 C 224.214844 13.945312 225.160156 11.664062 226.84375 9.976562 C 228.53125 8.292969 230.8125 7.347656 233.195312 7.347656 Z M 233.195312 7.347656 " clip-rule="nonzero"/></clipPath><clipPath id="f9634e1af2"><path d="M 0.132812 0.320312 L 100.089844 0.320312 L 100.089844 100.222656 L 0.132812 100.222656 Z M 0.132812 0.320312 " clip-rule="nonzero"/></clipPath><clipPath id="c9e5835cdd"><path d="M 9.195312 0.347656 L 91.113281 0.347656 C 93.492188 0.347656 95.777344 1.292969 97.460938 2.976562 C 99.144531 4.664062 100.089844 6.945312 100.089844 9.328125 L 100.089844 91.246094 C 100.089844 93.625 99.144531 95.910156 97.460938 97.59375 C 95.777344 99.277344 93.492188 100.222656 91.113281 100.222656 L 9.195312 100.222656 C 6.8125 100.222656 4.53125 99.277344 2.84375 97.59375 C 1.160156 95.910156 0.214844 93.625 0.214844 91.246094 L 0.214844 9.328125 C 0.214844 6.945312 1.160156 4.664062 2.84375 2.976562 C 4.53125 1.292969 6.8125 0.347656 9.195312 0.347656 Z M 9.195312 0.347656 " clip-rule="nonzero"/></clipPath><clipPath id="ab768f4ae3"><rect x="0" width="101" y="0" height="101"/></clipPath><clipPath id="ce6f6fd4dd"><path d="M 7.417969 115 L 107.6875 115 L 107.6875 215.121094 L 7.417969 215.121094 Z M 7.417969 115 " clip-rule="nonzero"/></clipPath><clipPath id="8a23afb2f2"><path d="M 16.789062 115.246094 L 98.707031 115.246094 C 101.085938 115.246094 103.371094 116.191406 105.054688 117.875 C 106.738281 119.558594 107.6875 121.84375 107.6875 124.226562 L 107.6875 206.140625 C 107.6875 208.523438 106.738281 210.808594 105.054688 212.492188 C 103.371094 214.175781 101.085938 215.121094 98.707031 215.121094 L 16.789062 215.121094 C 14.40625 215.121094 12.125 214.175781 10.441406 212.492188 C 8.753906 210.808594 7.808594 208.523438 7.808594 206.140625 L 7.808594 124.226562 C 7.808594 121.84375 8.753906 119.558594 10.441406 117.875 C 12.125 116.191406 14.40625 115.246094 16.789062 115.246094 Z M 16.789062 115.246094 " clip-rule="nonzero"/></clipPath><clipPath id="47094b835a"><path d="M 0.664062 0.0742188 L 100.6875 0.0742188 L 100.6875 100.121094 L 0.664062 100.121094 Z M 0.664062 0.0742188 " clip-rule="nonzero"/></clipPath><clipPath id="e826678c4d"><path d="M 9.789062 0.246094 L 91.707031 0.246094 C 94.085938 0.246094 96.371094 1.191406 98.054688 2.875 C 99.738281 4.558594 100.6875 6.84375 100.6875 9.226562 L 100.6875 91.140625 C 100.6875 93.523438 99.738281 95.808594 98.054688 97.492188 C 96.371094 99.175781 94.085938 100.121094 91.707031 100.121094 L 9.789062 100.121094 C 7.40625 100.121094 5.125 99.175781 3.441406 97.492188 C 1.753906 95.808594 0.808594 93.523438 0.808594 91.140625 L 0.808594 9.226562 C 0.808594 6.84375 1.753906 4.558594 3.441406 2.875 C 5.125 1.191406 7.40625 0.246094 9.789062 0.246094 Z M 9.789062 0.246094 " clip-rule="nonzero"/></clipPath><clipPath id="3f15d6f93c"><rect x="0" width="101" y="0" height="101"/></clipPath><clipPath id="2ad953a54e"><path d="M 116 115 L 215.972656 115 L 215.972656 215.121094 L 116 215.121094 Z M 116 115 " clip-rule="nonzero"/></clipPath><clipPath id="fa04fcf5ea"><path d="M 125.078125 115.246094 L 206.992188 115.246094 C 209.375 115.246094 211.660156 116.191406 213.34375 117.875 C 215.027344 119.558594 215.972656 121.84375 215.972656 124.226562 L 215.972656 206.140625 C 215.972656 208.523438 215.027344 210.808594 213.34375 212.492188 C 211.660156 214.175781 209.375 215.121094 206.992188 215.121094 L 125.078125 215.121094 C 122.695312 215.121094 120.410156 214.175781 118.726562 212.492188 C 117.042969 210.808594 116.097656 208.523438 116.097656 206.140625 L 116.097656 124.226562 C 116.097656 121.84375 117.042969 119.558594 118.726562 117.875 C 120.410156 116.191406 122.695312 115.246094 125.078125 115.246094 Z M 125.078125 115.246094 " clip-rule="nonzero"/></clipPath><clipPath id="7328555cb9"><path d="M 0 0.0742188 L 99.972656 0.0742188 L 99.972656 100.121094 L 0 100.121094 Z M 0 0.0742188 " clip-rule="nonzero"/></clipPath><clipPath id="fc4fe90204"><path d="M 9.078125 0.246094 L 90.992188 0.246094 C 93.375 0.246094 95.660156 1.191406 97.34375 2.875 C 99.027344 4.558594 99.972656 6.84375 99.972656 9.226562 L 99.972656 91.140625 C 99.972656 93.523438 99.027344 95.808594 97.34375 97.492188 C 95.660156 99.175781 93.375 100.121094 90.992188 100.121094 L 9.078125 100.121094 C 6.695312 100.121094 4.410156 99.175781 2.726562 97.492188 C 1.042969 95.808594 0.0976562 93.523438 0.0976562 91.140625 L 0.0976562 9.226562 C 0.0976562 6.84375 1.042969 4.558594 2.726562 2.875 C 4.410156 1.191406 6.695312 0.246094 9.078125 0.246094 Z M 9.078125 0.246094 " clip-rule="nonzero"/></clipPath><clipPath id="4ac393a8bd"><rect x="0" width="100" y="0" height="101"/></clipPath><clipPath id="3fd7380c76"><path d="M 224 115 L 324.089844 115 L 324.089844 215.121094 L 224 215.121094 Z M 224 115 " clip-rule="nonzero"/></clipPath><clipPath id="77f00eee09"><path d="M 233.195312 115.246094 L 315.113281 115.246094 C 317.492188 115.246094 319.777344 116.191406 321.460938 117.875 C 323.144531 119.558594 324.089844 121.84375 324.089844 124.226562 L 324.089844 206.140625 C 324.089844 208.523438 323.144531 210.808594 321.460938 212.492188 C 319.777344 214.175781 317.492188 215.121094 315.113281 215.121094 L 233.195312 215.121094 C 230.8125 215.121094 228.53125 214.175781 226.84375 212.492188 C 225.160156 210.808594 224.214844 208.523438 224.214844 206.140625 L 224.214844 124.226562 C 224.214844 121.84375 225.160156 119.558594 226.84375 117.875 C 228.53125 116.191406 230.8125 115.246094 233.195312 115.246094 Z M 233.195312 115.246094 " clip-rule="nonzero"/></clipPath><clipPath id="13cb68b03c"><path d="M 0.132812 0.0742188 L 100.089844 0.0742188 L 100.089844 100.121094 L 0.132812 100.121094 Z M 0.132812 0.0742188 " clip-rule="nonzero"/></clipPath><clipPath id="fc31fc3836"><path d="M 9.195312 0.246094 L 91.113281 0.246094 C 93.492188 0.246094 95.777344 1.191406 97.460938 2.875 C 99.144531 4.558594 100.089844 6.84375 100.089844 9.226562 L 100.089844 91.140625 C 100.089844 93.523438 99.144531 95.808594 97.460938 97.492188 C 95.777344 99.175781 93.492188 100.121094 91.113281 100.121094 L 9.195312 100.121094 C 6.8125 100.121094 4.53125 99.175781 2.84375 97.492188 C 1.160156 95.808594 0.214844 93.523438 0.214844 91.140625 L 0.214844 9.226562 C 0.214844 6.84375 1.160156 4.664062 2.84375 2.976562 C 4.53125 1.292969 6.8125 0.246094 9.195312 0.246094 Z M 9.195312 0.246094 " clip-rule="nonzero"/></clipPath><clipPath id="565bbfbf2e"><rect x="0" width="101" y="0" height="101"/></clipPath><clipPath id="9f281ce0cc"><path d="M 7.417969 223 L 107.6875 223 L 107.6875 323.238281 L 7.417969 323.238281 Z M 7.417969 223 " clip-rule="nonzero"/></clipPath><clipPath id="1d04454504"><path d="M 16.789062 223.363281 L 98.707031 223.363281 C 101.085938 223.363281 103.371094 224.308594 105.054688 225.992188 C 106.738281 227.675781 107.6875 229.960938 107.6875 232.34375 L 107.6875 314.257812 C 107.6875 316.640625 106.738281 318.925781 105.054688 320.609375 C 103.371094 322.292969 101.085938 323.238281 98.707031 323.238281 L 16.789062 323.238281 C 14.40625 323.238281 12.125 322.292969 10.441406 320.609375 C 8.753906 318.925781 7.808594 316.640625 7.808594 314.257812 L 7.808594 232.34375 C 7.808594 229.960938 8.753906 227.675781 10.441406 225.992188 C 12.125 224.308594 14.40625 223.363281 16.789062 223.363281 Z M 16.789062 223.363281 " clip-rule="nonzero"/></clipPath><clipPath id="c78d5ef86c"><path d="M 0.664062 0.3125 L 100.6875 0.3125 L 100.6875 100.238281 L 0.664062 100.238281 Z M 0.664062 0.3125 " clip-rule="nonzero"/></clipPath><clipPath id="c0781a543c"><path d="M 9.789062 0.363281 L 91.707031 0.363281 C 94.085938 0.363281 96.371094 1.308594 98.054688 2.992188 C 99.738281 4.675781 100.6875 6.960938 100.6875 9.34375 L 100.6875 91.257812 C 100.6875 93.640625 99.738281 95.925781 98.054688 97.609375 C 96.371094 99.292969 94.085938 100.238281 91.707031 100.238281 L 9.789062 100.238281 C 7.40625 100.238281 5.125 99.292969 3.441406 97.609375 C 1.753906 95.925781 0.808594 93.640625 0.808594 91.257812 L 0.808594 9.34375 C 0.808594 6.960938 1.753906 4.675781 3.441406 2.992188 C 5.125 1.308594 7.40625 0.363281 9.789062 0.363281 Z M 9.789062 0.363281 " clip-rule="nonzero"/></clipPath><clipPath id="bc4fd507a3"><rect x="0" width="101" y="0" height="101"/></clipPath><clipPath id="0759c8d403"><path d="M 116 224.011719 L 215.972656 224.011719 L 215.972656 324.277344 L 116 324.277344 Z M 116 224.011719 " clip-rule="nonzero"/></clipPath><clipPath id="6ea63fe3cb"><path d="M 125.078125 224.402344 L 206.992188 224.402344 C 209.375 224.402344 211.660156 225.347656 213.34375 227.03125 C 215.027344 228.71875 215.972656 231 215.972656 233.382812 L 215.972656 315.300781 C 215.972656 317.679688 215.027344 319.964844 213.34375 321.648438 C 211.660156 323.332031 209.375 324.277344 206.992188 324.277344 L 125.078125 324.277344 C 122.695312 324.277344 120.410156 323.332031 118.726562 321.648438 C 117.042969 319.964844 116.097656 317.679688 116.097656 315.300781 L 116.097656 233.382812 C 116.097656 231 117.042969 228.71875 118.726562 227.03125 C 120.410156 225.347656 122.695312 224.402344 125.078125 224.402344 Z M 125.078125 224.402344 " clip-rule="nonzero"/></clipPath><clipPath id="4f800fca8d"><path d="M 0 0.269531 L 99.972656 0.269531 L 99.972656 100.277344 L 0 100.277344 Z M 0 0.269531 " clip-rule="nonzero"/></clipPath><clipPath id="cddd5e0a55"><path d="M 9.078125 0.402344 L 90.992188 0.402344 C 93.375 0.402344 95.660156 1.347656 97.34375 3.03125 C 99.027344 4.71875 99.972656 7 99.972656 9.382812 L 99.972656 91.300781 C 99.972656 93.679688 99.027344 95.964844 97.34375 97.648438 C 95.660156 99.332031 93.375 100.277344 90.992188 100.277344 L 9.078125 100.277344 C 6.695312 100.277344 4.410156 99.332031 2.726562 97.648438 C 1.042969 95.964844 0.0976562 93.679688 0.0976562 91.300781 L 0.0976562 9.382812 C 0.0976562 7 1.042969 4.71875 2.726562 3.03125 C 4.410156 1.347656 6.695312 0.402344 9.078125 0.402344 Z M 9.078125 0.402344 " clip-rule="nonzero"/></clipPath><clipPath id="1988ff0bad"><rect x="0" width="100" y="0" height="101"/></clipPath><clipPath id="979e4f5ab2"><path d="M 224 224.011719 L 324.089844 224.011719 L 324.089844 324.277344 L 224 324.277344 Z M 224 224.011719 " clip-rule="nonzero"/></clipPath><clipPath id="b098f43d03"><path d="M 233.195312 224.402344 L 315.113281 224.402344 C 317.492188 224.402344 319.777344 225.347656 321.460938 227.03125 C 323.144531 228.71875 324.089844 231 324.089844 233.382812 L 324.089844 315.300781 C 324.089844 317.679688 323.144531 319.964844 321.460938 321.648438 C 319.777344 323.332031 317.492188 324.277344 315.113281 324.277344 L 233.195312 324.277344 C 230.8125 324.277344 228.53125 323.332031 226.84375 321.648438 C 225.160156 319.964844 224.214844 317.679688 224.214844 315.300781 L 224.214844 233.382812 C 224.214844 231 225.160156 228.71875 226.84375 227.03125 C 228.53125 225.347656 230.8125 224.402344 233.195312 224.402344 Z M 233.195312 224.402344 " clip-rule="nonzero"/></clipPath><clipPath id="87ee24b36e"><path d="M 0.132812 0.269531 L 100.089844 0.269531 L 100.089844 100.277344 L 0.132812 100.277344 Z M 0.132812 0.269531 " clip-rule="nonzero"/></clipPath><clipPath id="5e32fa2afb"><path d="M 9.195312 0.402344 L 91.113281 0.402344 C 93.492188 0.402344 95.777344 1.347656 97.460938 3.03125 C 99.144531 4.71875 100.089844 7 100.089844 9.382812 L 100.089844 91.300781 C 100.089844 93.679688 99.144531 95.964844 97.460938 97.648438 C 95.777344 99.332031 93.492188 100.277344 91.113281 100.277344 L 9.195312 100.277344 C 6.8125 100.277344 4.53125 99.332031 2.84375 97.648438 C 1.160156 95.964844 0.214844 93.679688 0.214844 91.300781 L 0.214844 9.382812 C 0.214844 7 1.160156 4.71875 2.84375 3.03125 C 4.53125 1.347656 6.8125 0.402344 9.195312 0.402344 Z M 9.195312 0.402344 " clip-rule="nonzero"/></clipPath><clipPath id="7c160a8aa5"><rect x="0" width="101" y="0" height="101"/></clipPath></defs><g clip-path="url(#17c81b9ede)"><g clip-path="url(#b2fa23b026)"><g transform="matrix(1, 0, 0, 1, 0, -0.000000000000029809)"><g clip-path="url(#c33caf1329)"><g clip-path="url(#0fbf970a6c)"><g clip-path="url(#1da2f8263a)"><path fill="#343434" d="M 0 0.375 L 331.234375 0.375 L 331.234375 331.609375 L 0 331.609375 Z M 0 0.375 " fill-opacity="1" fill-rule="nonzero"/></g></g></g></g></g></g><g clip-path="url(#682cc2c157)"><g clip-path="url(#4f649ee595)"><g transform="matrix(1, 0, 0, 1, 7, 7)"><g clip-path="url(#15ac6f2bbb)"><g clip-path="url(#6f353ffd0d)"><g clip-path="url(#275c5127bf)"><path fill="#ff5757" d="M 0.808594 0.347656 L 100.6875 0.347656 L 100.6875 100.222656 L 0.808594 100.222656 Z M 0.808594 0.347656 " fill-opacity="1" fill-rule="nonzero"/></g></g></g></g></g></g><g clip-path="url(#4a75187048)"><g clip-path="url(#b34dbd9ecb)"><g transform="matrix(1, 0, 0, 1, 116, 7)"><g clip-path="url(#d94f8992a3)"><g clip-path="url(#5e5ca09bfa)"><g clip-path="url(#801322ef3b)"><path fill="#ff5757" d="M 0.0976562 0.347656 L 99.972656 0.347656 L 99.972656 100.222656 L 0.0976562 100.222656 Z M 0.0976562 0.347656 " fill-opacity="1" fill-rule="nonzero"/></g></g></g></g></g></g><g clip-path="url(#fd7f1f73d8)"><g clip-path="url(#60ea540f50)"><g transform="matrix(1, 0, 0, 1, 224, 7)"><g clip-path="url(#ab768f4ae3)"><g clip-path="url(#f9634e1af2)"><g clip-path="url(#c9e5835cdd)"><path fill="#ff5757" d="M 0.214844 0.347656 L 100.089844 0.347656 L 100.089844 100.222656 L 0.214844 100.222656 Z M 0.214844 0.347656 " fill-opacity="1" fill-rule="nonzero"/></g></g></g></g></g></g><g clip-path="url(#ce6f6fd4dd)"><g clip-path="url(#8a23afb2f2)"><g transform="matrix(1, 0, 0, 1, 7, 115)"><g clip-path="url(#3f15d6f93c)"><g clip-path="url(#47094b835a)"><g clip-path="url(#e826678c4d)"><path fill="#ff5757" d="M 0.808594 0.246094 L 100.6875 0.246094 L 100.6875 100.121094 L 0.808594 100.121094 Z M 0.808594 0.246094 " fill-opacity="1" fill-rule="nonzero"/></g></g></g></g></g></g><g clip-path="url(#2ad953a54e)"><g clip-path="url(#fa04fcf5ea)"><g transform="matrix(1, 0, 0, 1, 116, 115)"><g clip-path="url(#4ac393a8bd)"><g clip-path="url(#7328555cb9)"><g clip-path="url(#fc4fe90204)"><path fill="#ff5757" d="M 0.0976562 0.246094 L 99.972656 0.246094 L 99.972656 100.121094 L 0.0976562 100.121094 Z M 0.0976562 0.246094 " fill-opacity="1" fill-rule="nonzero"/></g></g></g></g></g></g><g clip-path="url(#3fd7380c76)"><g clip-path="url(#77f00eee09)"><g transform="matrix(1, 0, 0, 1, 224, 115)"><g clip-path="url(#565bbfbf2e)"><g clip-path="url(#13cb68b03c)"><g clip-path="url(#fc31fc3836)"><path fill="#ff5757" d="M 0.214844 0.246094 L 100.089844 0.246094 L 100.089844 100.121094 L 0.214844 100.121094 Z M 0.214844 0.246094 " fill-opacity="1" fill-rule="nonzero"/></g></g></g></g></g></g><g clip-path="url(#9f281ce0cc)"><g clip-path="url(#1d04454504)"><g transform="matrix(1, 0, 0, 1, 7, 223)"><g clip-path="url(#bc4fd507a3)"><g clip-path="url(#c78d5ef86c)"><g clip-path="url(#c0781a543c)"><path fill="#ff5757" d="M 0.808594 0.363281 L 100.6875 0.363281 L 100.6875 100.238281 L 0.808594 100.238281 Z M 0.808594 0.363281 " fill-opacity="1" fill-rule="nonzero"/></g></g></g></g></g></g><g clip-path="url(#0759c8d403)"><g clip-path="url(#6ea63fe3cb)"><g transform="matrix(1, 0, 0, 1, 116, 224)"><g clip-path="url(#1988ff0bad)"><g clip-path="url(#4f800fca8d)"><g clip-path="url(#cddd5e0a55)"><path fill="#ff5757" d="M 0.0976562 0.402344 L 99.972656 0.402344 L 99.972656 100.277344 L 0.0976562 100.277344 Z M 0.0976562 0.402344 " fill-opacity="1" fill-rule="nonzero"/></g></g></g></g></g></g><g clip-path="url(#979e4f5ab2)"><g clip-path="url(#b098f43d03)"><g transform="matrix(1, 0, 0, 1, 224, 224)"><g clip-path="url(#7c160a8aa5)"><g clip-path="url(#87ee24b36e)"><g clip-path="url(#5e32fa2afb)"><path fill="#ff5757" d="M 0.214844 0.402344 L 100.089844 0.402344 L 100.089844 100.277344 L 0.214844 100.277344 Z M 0.214844 0.402344 " fill-opacity="1" fill-rule="nonzero"/></g></g></g></g></g></g></svg>

