<svg xmlns="http://www.w3.org/2000/svg" xmlns:xlink="http://www.w3.org/1999/xlink" width="164" zoomAndPan="magnify" viewBox="0 0 123 123.000003" height="164" preserveAspectRatio="xMidYMid meet" version="1.0"><defs><clipPath id="c868eadd83"><path d="M 0.496094 0 L 122.503906 0 L 122.503906 122.007812 L 0.496094 122.007812 Z M 0.496094 0 " clip-rule="nonzero"/></clipPath><clipPath id="49a9a5a9af"><path d="M 0.496094 0 L 122.429688 0 L 122.429688 121.933594 L 0.496094 121.933594 Z M 0.496094 0 " clip-rule="nonzero"/></clipPath><clipPath id="3e68864ddc"><path d="M 8.679688 0 L 114.246094 0 C 118.765625 0 122.429688 3.664062 122.429688 8.183594 L 122.429688 113.75 C 122.429688 118.269531 118.765625 121.933594 114.246094 121.933594 L 8.679688 121.933594 C 4.160156 121.933594 0.496094 118.269531 0.496094 113.75 L 0.496094 8.183594 C 0.496094 3.664062 4.160156 0 8.679688 0 Z M 8.679688 0 " clip-rule="nonzero"/></clipPath><clipPath id="a7c696da36"><path d="M 0.496094 0 L 122.429688 0 L 122.429688 121.933594 L 0.496094 121.933594 Z M 0.496094 0 " clip-rule="nonzero"/></clipPath><clipPath id="d34b95a65c"><path d="M 8.679688 0 L 114.246094 0 C 118.765625 0 122.429688 3.664062 122.429688 8.183594 L 122.429688 113.75 C 122.429688 118.269531 118.765625 121.933594 114.246094 121.933594 L 8.679688 121.933594 C 4.160156 121.933594 0.496094 118.269531 0.496094 113.75 L 0.496094 8.183594 C 0.496094 3.664062 4.160156 0 8.679688 0 Z M 8.679688 0 " clip-rule="nonzero"/></clipPath><clipPath id="5c2c813ef1"><rect x="0" width="123" y="0" height="122"/></clipPath><clipPath id="bb25c60616"><path d="M 6.195312 6.066406 L 39.582031 6.066406 L 39.582031 39.457031 L 6.195312 39.457031 Z M 6.195312 6.066406 " clip-rule="nonzero"/></clipPath><clipPath id="1b3c07088d"><path d="M 10.65625 6.066406 L 35.121094 6.066406 C 37.585938 6.066406 39.582031 8.066406 39.582031 10.53125 L 39.582031 34.996094 C 39.582031 37.460938 37.585938 39.457031 35.121094 39.457031 L 10.65625 39.457031 C 8.191406 39.457031 6.195312 37.460938 6.195312 34.996094 L 6.195312 10.53125 C 6.195312 8.066406 8.191406 6.066406 10.65625 6.066406 Z M 10.65625 6.066406 " clip-rule="nonzero"/></clipPath><clipPath id="154e1e4521"><path d="M 0.195312 0.0664062 L 33.582031 0.0664062 L 33.582031 33.457031 L 0.195312 33.457031 Z M 0.195312 0.0664062 " clip-rule="nonzero"/></clipPath><clipPath id="84196aa726"><path d="M 4.65625 0.0664062 L 29.121094 0.0664062 C 31.585938 0.0664062 33.582031 2.066406 33.582031 4.53125 L 33.582031 28.996094 C 33.582031 31.460938 31.585938 33.457031 29.121094 33.457031 L 4.65625 33.457031 C 2.191406 33.457031 0.195312 31.460938 0.195312 28.996094 L 0.195312 4.53125 C 0.195312 2.066406 2.191406 0.0664062 4.65625 0.0664062 Z M 4.65625 0.0664062 " clip-rule="nonzero"/></clipPath><clipPath id="629c119a3e"><rect x="0" width="34" y="0" height="34"/></clipPath><clipPath id="ddc359ec3c"><path d="M 44.769531 6.066406 L 78.15625 6.066406 L 78.15625 39.457031 L 44.769531 39.457031 Z M 44.769531 6.066406 " clip-rule="nonzero"/></clipPath><clipPath id="c9c1ea4bef"><path d="M 49.230469 6.066406 L 73.695312 6.066406 C 76.160156 6.066406 78.15625 8.066406 78.15625 10.53125 L 78.15625 34.996094 C 78.15625 37.460938 76.160156 39.457031 73.695312 39.457031 L 49.230469 39.457031 C 46.765625 39.457031 44.769531 37.460938 44.769531 34.996094 L 44.769531 10.53125 C 44.769531 8.066406 46.765625 6.066406 49.230469 6.066406 Z M 49.230469 6.066406 " clip-rule="nonzero"/></clipPath><clipPath id="cd6cadeae8"><path d="M 0.769531 0.0664062 L 34.15625 0.0664062 L 34.15625 33.457031 L 0.769531 33.457031 Z M 0.769531 0.0664062 " clip-rule="nonzero"/></clipPath><clipPath id="d17a139a3d"><path d="M 5.230469 0.0664062 L 29.695312 0.0664062 C 32.160156 0.0664062 34.15625 2.066406 34.15625 4.53125 L 34.15625 28.996094 C 34.15625 31.460938 32.160156 33.457031 29.695312 33.457031 L 5.230469 33.457031 C 2.765625 33.457031 0.769531 31.460938 0.769531 28.996094 L 0.769531 4.53125 C 0.769531 2.066406 2.765625 0.0664062 5.230469 0.0664062 Z M 5.230469 0.0664062 " clip-rule="nonzero"/></clipPath><clipPath id="a5720a6d0a"><rect x="0" width="35" y="0" height="34"/></clipPath><clipPath id="46e6672592"><path d="M 83.40625 6.066406 L 116.796875 6.066406 L 116.796875 39.457031 L 83.40625 39.457031 Z M 83.40625 6.066406 " clip-rule="nonzero"/></clipPath><clipPath id="f6ca7550fb"><path d="M 87.871094 6.066406 L 112.332031 6.066406 C 114.796875 6.066406 116.796875 8.066406 116.796875 10.53125 L 116.796875 34.996094 C 116.796875 37.460938 114.796875 39.457031 112.332031 39.457031 L 87.871094 39.457031 C 85.402344 39.457031 83.40625 37.460938 83.40625 34.996094 L 83.40625 10.53125 C 83.40625 8.066406 85.402344 6.066406 87.871094 6.066406 Z M 87.871094 6.066406 " clip-rule="nonzero"/></clipPath><clipPath id="bd32b7233b"><path d="M 0.40625 0.0664062 L 33.796875 0.0664062 L 33.796875 33.457031 L 0.40625 33.457031 Z M 0.40625 0.0664062 " clip-rule="nonzero"/></clipPath><clipPath id="a190bb2519"><path d="M 4.871094 0.0664062 L 29.332031 0.0664062 C 31.796875 0.0664062 33.796875 2.066406 33.796875 4.53125 L 33.796875 28.996094 C 33.796875 31.460938 31.796875 33.457031 29.332031 33.457031 L 4.871094 33.457031 C 2.402344 33.457031 0.40625 31.460938 0.40625 28.996094 L 0.40625 4.53125 C 0.40625 2.066406 2.402344 0.0664062 4.871094 0.0664062 Z M 4.871094 0.0664062 " clip-rule="nonzero"/></clipPath><clipPath id="05f7b130bb"><rect x="0" width="34" y="0" height="34"/></clipPath><clipPath id="0367496be4"><path d="M 6.195312 44.273438 L 39.582031 44.273438 L 39.582031 77.660156 L 6.195312 77.660156 Z M 6.195312 44.273438 " clip-rule="nonzero"/></clipPath><clipPath id="b6d260428e"><path d="M 10.65625 44.273438 L 35.121094 44.273438 C 37.585938 44.273438 39.582031 46.269531 39.582031 48.734375 L 39.582031 73.199219 C 39.582031 75.664062 37.585938 77.660156 35.121094 77.660156 L 10.65625 77.660156 C 8.191406 77.660156 6.195312 75.664062 6.195312 73.199219 L 6.195312 48.734375 C 6.195312 46.269531 8.191406 44.273438 10.65625 44.273438 Z M 10.65625 44.273438 " clip-rule="nonzero"/></clipPath><clipPath id="8688e3ae2f"><path d="M 0.195312 0.273438 L 33.582031 0.273438 L 33.582031 33.660156 L 0.195312 33.660156 Z M 0.195312 0.273438 " clip-rule="nonzero"/></clipPath><clipPath id="47d6a367a5"><path d="M 4.65625 0.273438 L 29.121094 0.273438 C 31.585938 0.273438 33.582031 2.269531 33.582031 4.734375 L 33.582031 29.199219 C 33.582031 31.664062 31.585938 33.660156 29.121094 33.660156 L 4.65625 33.660156 C 2.191406 33.660156 0.195312 31.664062 0.195312 29.199219 L 0.195312 4.734375 C 0.195312 2.269531 2.191406 0.273438 4.65625 0.273438 Z M 4.65625 0.273438 " clip-rule="nonzero"/></clipPath><clipPath id="30a877330a"><rect x="0" width="34" y="0" height="34"/></clipPath><clipPath id="9fd4e9b54b"><path d="M 6.195312 82.476562 L 39.582031 82.476562 L 39.582031 115.867188 L 6.195312 115.867188 Z M 6.195312 82.476562 " clip-rule="nonzero"/></clipPath><clipPath id="639c74e947"><path d="M 10.65625 82.476562 L 35.121094 82.476562 C 37.585938 82.476562 39.582031 84.472656 39.582031 86.9375 L 39.582031 111.402344 C 39.582031 113.867188 37.585938 115.867188 35.121094 115.867188 L 10.65625 115.867188 C 8.191406 115.867188 6.195312 113.867188 6.195312 111.402344 L 6.195312 86.9375 C 6.195312 84.472656 8.191406 82.476562 10.65625 82.476562 Z M 10.65625 82.476562 " clip-rule="nonzero"/></clipPath><clipPath id="b58fdcf2e3"><path d="M 0.195312 0.476562 L 33.582031 0.476562 L 33.582031 33.867188 L 0.195312 33.867188 Z M 0.195312 0.476562 " clip-rule="nonzero"/></clipPath><clipPath id="adc9304182"><path d="M 4.65625 0.476562 L 29.121094 0.476562 C 31.585938 0.476562 33.582031 2.472656 33.582031 4.9375 L 33.582031 29.402344 C 33.582031 31.867188 31.585938 33.867188 29.121094 33.867188 L 4.65625 33.867188 C 2.191406 33.867188 0.195312 31.867188 0.195312 29.402344 L 0.195312 4.9375 C 0.195312 2.472656 2.191406 0.476562 4.65625 0.476562 Z M 4.65625 0.476562 " clip-rule="nonzero"/></clipPath><clipPath id="6914aba10c"><rect x="0" width="34" y="0" height="34"/></clipPath><clipPath id="212f4df177"><path d="M 44.769531 82.476562 L 78.15625 82.476562 L 78.15625 115.867188 L 44.769531 115.867188 Z M 44.769531 82.476562 " clip-rule="nonzero"/></clipPath><clipPath id="4d55af6723"><path d="M 49.230469 82.476562 L 73.695312 82.476562 C 76.160156 82.476562 78.15625 84.472656 78.15625 86.9375 L 78.15625 111.402344 C 78.15625 113.867188 76.160156 115.867188 73.695312 115.867188 L 49.230469 115.867188 C 46.765625 115.867188 44.769531 113.867188 44.769531 111.402344 L 44.769531 86.9375 C 44.769531 84.472656 46.765625 82.476562 49.230469 82.476562 Z M 49.230469 82.476562 " clip-rule="nonzero"/></clipPath><clipPath id="35cc4d0a32"><path d="M 0.769531 0.476562 L 34.15625 0.476562 L 34.15625 33.867188 L 0.769531 33.867188 Z M 0.769531 0.476562 " clip-rule="nonzero"/></clipPath><clipPath id="4c968340fb"><path d="M 5.230469 0.476562 L 29.695312 0.476562 C 32.160156 0.476562 34.15625 2.472656 34.15625 4.9375 L 34.15625 29.402344 C 34.15625 31.867188 32.160156 33.867188 29.695312 33.867188 L 5.230469 33.867188 C 2.765625 33.867188 0.769531 31.867188 0.769531 29.402344 L 0.769531 4.9375 C 0.769531 2.472656 2.765625 0.476562 5.230469 0.476562 Z M 5.230469 0.476562 " clip-rule="nonzero"/></clipPath><clipPath id="8700befe5d"><rect x="0" width="35" y="0" height="34"/></clipPath><clipPath id="21ed68915a"><path d="M 83.40625 82.476562 L 116.796875 82.476562 L 116.796875 115.867188 L 83.40625 115.867188 Z M 83.40625 82.476562 " clip-rule="nonzero"/></clipPath><clipPath id="9f4ab71abe"><path d="M 87.871094 82.476562 L 112.332031 82.476562 C 114.796875 82.476562 116.796875 84.472656 116.796875 86.9375 L 116.796875 111.402344 C 116.796875 113.867188 114.796875 115.867188 112.332031 115.867188 L 87.871094 115.867188 C 85.402344 115.867188 83.40625 113.867188 83.40625 111.402344 L 83.40625 86.9375 C 83.40625 84.472656 85.402344 82.476562 87.871094 82.476562 Z M 87.871094 82.476562 " clip-rule="nonzero"/></clipPath><clipPath id="b976414b23"><path d="M 0.40625 0.476562 L 33.796875 0.476562 L 33.796875 33.867188 L 0.40625 33.867188 Z M 0.40625 0.476562 " clip-rule="nonzero"/></clipPath><clipPath id="ba5a58931c"><path d="M 4.871094 0.476562 L 29.332031 0.476562 C 31.796875 0.476562 33.796875 2.472656 33.796875 4.9375 L 33.796875 29.402344 C 33.796875 31.867188 31.796875 33.867188 29.332031 33.867188 L 4.871094 33.867188 C 2.402344 33.867188 0.40625 31.867188 0.40625 29.402344 L 0.40625 4.9375 C 0.40625 2.472656 2.402344 0.476562 4.871094 0.476562 Z M 4.871094 0.476562 " clip-rule="nonzero"/></clipPath><clipPath id="8bfc4153e2"><rect x="0" width="34" y="0" height="34"/></clipPath><clipPath id="80a66d4c51"><path d="M 44.621094 44.273438 L 78.011719 44.273438 L 78.011719 77.660156 L 44.621094 77.660156 Z M 44.621094 44.273438 " clip-rule="nonzero"/></clipPath><clipPath id="3654a77766"><path d="M 49.085938 44.273438 L 73.546875 44.273438 C 76.011719 44.273438 78.011719 46.269531 78.011719 48.734375 L 78.011719 73.199219 C 78.011719 75.664062 76.011719 77.660156 73.546875 77.660156 L 49.085938 77.660156 C 46.617188 77.660156 44.621094 75.664062 44.621094 73.199219 L 44.621094 48.734375 C 44.621094 46.269531 46.617188 44.273438 49.085938 44.273438 Z M 49.085938 44.273438 " clip-rule="nonzero"/></clipPath><clipPath id="a4d619b5c0"><path d="M 0.621094 0.273438 L 34.011719 0.273438 L 34.011719 33.660156 L 0.621094 33.660156 Z M 0.621094 0.273438 " clip-rule="nonzero"/></clipPath><clipPath id="13814ea3e8"><path d="M 5.085938 0.273438 L 29.546875 0.273438 C 32.011719 0.273438 34.011719 2.269531 34.011719 4.734375 L 34.011719 29.199219 C 34.011719 31.664062 32.011719 33.660156 29.546875 33.660156 L 5.085938 33.660156 C 2.617188 33.660156 0.621094 31.664062 0.621094 29.199219 L 0.621094 4.734375 C 0.621094 2.269531 2.617188 0.273438 5.085938 0.273438 Z M 5.085938 0.273438 " clip-rule="nonzero"/></clipPath><clipPath id="944e047c5e"><rect x="0" width="35" y="0" height="34"/></clipPath><clipPath id="cc02afbf27"><path d="M 83.40625 44.273438 L 116.796875 44.273438 L 116.796875 77.660156 L 83.40625 77.660156 Z M 83.40625 44.273438 " clip-rule="nonzero"/></clipPath><clipPath id="7532d74d32"><path d="M 87.871094 44.273438 L 112.332031 44.273438 C 114.796875 44.273438 116.796875 46.269531 116.796875 48.734375 L 116.796875 73.199219 C 116.796875 75.664062 114.796875 77.660156 112.332031 77.660156 L 87.871094 77.660156 C 85.402344 77.660156 83.40625 75.664062 83.40625 73.199219 L 83.40625 48.734375 C 83.40625 46.269531 85.402344 44.273438 87.871094 44.273438 Z M 87.871094 44.273438 " clip-rule="nonzero"/></clipPath><clipPath id="9f27d883cf"><path d="M 0.40625 0.273438 L 33.796875 0.273438 L 33.796875 33.660156 L 0.40625 33.660156 Z M 0.40625 0.273438 " clip-rule="nonzero"/></clipPath><clipPath id="1efb19b294"><path d="M 4.871094 0.273438 L 29.332031 0.273438 C 31.796875 0.273438 33.796875 2.269531 33.796875 4.734375 L 33.796875 29.199219 C 33.796875 31.664062 31.796875 33.660156 29.332031 33.660156 L 4.871094 33.660156 C 2.402344 33.660156 0.40625 31.664062 0.40625 29.199219 L 0.40625 4.734375 C 0.40625 2.269531 2.402344 0.273438 4.871094 0.273438 Z M 4.871094 0.273438 " clip-rule="nonzero"/></clipPath><clipPath id="4ac99bccc2"><rect x="0" width="34" y="0" height="34"/></clipPath></defs><g clip-path="url(#49a9a5a9af)"><g clip-path="url(#3e68864ddc)"><g transform="matrix(1, 0, 0, 1, 0, 0.000000000000032234)"><g clip-path="url(#5c2c813ef1)"><g clip-path="url(#a7c696da36)"><g clip-path="url(#d34b95a65c)"><path fill="#343434" d="M 0.496094 0 L 122.429688 0 L 122.429688 121.933594 L 0.496094 121.933594 Z M 0.496094 0 " fill-opacity="1" fill-rule="nonzero"/></g></g></g></g></g></g><g clip-path="url(#bb25c60616)"><g clip-path="url(#1b3c07088d)"><g transform="matrix(1, 0, 0, 1, 6, 6)"><g clip-path="url(#629c119a3e)"><g clip-path="url(#154e1e4521)"><g clip-path="url(#84196aa726)"><path fill="#00bf63" d="M 0.195312 0.0664062 L 33.582031 0.0664062 L 33.582031 33.457031 L 0.195312 33.457031 Z M 0.195312 0.0664062 " fill-opacity="1" fill-rule="nonzero"/></g></g></g></g></g></g><g clip-path="url(#ddc359ec3c)"><g clip-path="url(#c9c1ea4bef)"><g transform="matrix(1, 0, 0, 1, 44, 6)"><g clip-path="url(#a5720a6d0a)"><g clip-path="url(#cd6cadeae8)"><g clip-path="url(#d17a139a3d)"><path fill="#00bf63" d="M 0.769531 0.0664062 L 34.15625 0.0664062 L 34.15625 33.457031 L 0.769531 33.457031 Z M 0.769531 0.0664062 " fill-opacity="1" fill-rule="nonzero"/></g></g></g></g></g></g><g clip-path="url(#46e6672592)"><g clip-path="url(#f6ca7550fb)"><g transform="matrix(1, 0, 0, 1, 83, 6)"><g clip-path="url(#05f7b130bb)"><g clip-path="url(#bd32b7233b)"><g clip-path="url(#a190bb2519)"><path fill="#00bf63" d="M 0.40625 0.0664062 L 33.796875 0.0664062 L 33.796875 33.457031 L 0.40625 33.457031 Z M 0.40625 0.0664062 " fill-opacity="1" fill-rule="nonzero"/></g></g></g></g></g></g><g clip-path="url(#0367496be4)"><g clip-path="url(#b6d260428e)"><g transform="matrix(1, 0, 0, 1, 6, 44)"><g clip-path="url(#30a877330a)"><g clip-path="url(#8688e3ae2f)"><g clip-path="url(#47d6a367a5)"><path fill="#00bf63" d="M 0.195312 0.273438 L 33.582031 0.273438 L 33.582031 33.660156 L 0.195312 33.660156 Z M 0.195312 0.273438 " fill-opacity="1" fill-rule="nonzero"/></g></g></g></g></g></g><g clip-path="url(#9fd4e9b54b)"><g clip-path="url(#639c74e947)"><g transform="matrix(1, 0, 0, 1, 6, 82)"><g clip-path="url(#6914aba10c)"><g clip-path="url(#b58fdcf2e3)"><g clip-path="url(#adc9304182)"><path fill="#00bf63" d="M 0.195312 0.476562 L 33.582031 0.476562 L 33.582031 33.867188 L 0.195312 33.867188 Z M 0.195312 0.476562 " fill-opacity="1" fill-rule="nonzero"/></g></g></g></g></g></g><g clip-path="url(#212f4df177)"><g clip-path="url(#4d55af6723)"><g transform="matrix(1, 0, 0, 1, 44, 82)"><g clip-path="url(#8700befe5d)"><g clip-path="url(#35cc4d0a32)"><g clip-path="url(#4c968340fb)"><path fill="#00bf63" d="M 0.769531 0.476562 L 34.15625 0.476562 L 34.15625 33.867188 L 0.769531 33.867188 Z M 0.769531 0.476562 " fill-opacity="1" fill-rule="nonzero"/></g></g></g></g></g></g><g clip-path="url(#21ed68915a)"><g clip-path="url(#9f4ab71abe)"><g transform="matrix(1, 0, 0, 1, 83, 82)"><g clip-path="url(#8bfc4153e2)"><g clip-path="url(#b976414b23)"><g clip-path="url(#ba5a58931c)"><path fill="#00bf63" d="M 0.40625 0.476562 L 33.796875 0.476562 L 33.796875 33.867188 L 0.40625 33.867188 Z M 0.40625 0.476562 " fill-opacity="1" fill-rule="nonzero"/></g></g></g></g></g></g><g clip-path="url(#80a66d4c51)"><g clip-path="url(#3654a77766)"><g transform="matrix(1, 0, 0, 1, 44, 44)"><g clip-path="url(#944e047c5e)"><g clip-path="url(#a4d619b5c0)"><g clip-path="url(#13814ea3e8)"><path fill="#00bf63" d="M 0.621094 0.273438 L 34.011719 0.273438 L 34.011719 33.660156 L 0.621094 33.660156 Z M 0.621094 0.273438 " fill-opacity="1" fill-rule="nonzero"/></g></g></g></g></g></g><g clip-path="url(#cc02afbf27)"><g clip-path="url(#7532d74d32)"><g transform="matrix(1, 0, 0, 1, 83, 44)"><g clip-path="url(#4ac99bccc2)"><g clip-path="url(#9f27d883cf)"><g clip-path="url(#1efb19b294)"><path fill="#00bf63" d="M 0.40625 0.273438 L 33.796875 0.273438 L 33.796875 33.660156 L 0.40625 33.660156 Z M 0.40625 0.273438 " fill-opacity="1" fill-rule="nonzero"/></g></g></g></g></g></g></svg>

